<?xml version="1.0" encoding="utf-8"?>
<!DOCTYPE svg PUBLIC "-//W3C//DTD SVG 1.0//EN" "http://www.w3.org/TR/2001/REC-SVG-20010904/DTD/svg10.dtd">
<svg version="1.0" xmlns="http://www.w3.org/2000/svg" width="1565px" height="1565px" viewBox="0 0 1565 1565" preserveAspectRatio="xMidYMid meet">
<g fill="#378dff"></g>
 <g fill="#378dff">
  <path d="M267.5 1497.9 c-26.7 -2 -47.9 -6.9 -69.5 -16 -2.5 -1.1 -5 -2.3 -5.6 -2.7 -8.5 -5.7 -11.1 -7.2 -13 -7.2 -4.1 0 -21.5 -11.2 -35.7 -23.1 -34.6 -28.7 -59.3 -68.4 -70.3 -113.3 -5.8 -23.7 -5.7 -20.6 -6.1 -142.3 -0.4 -109.6 -0.4 -112.3 1.5 -112.3 1 0 2.7 0.9 3.8 2.1 1 1.1 3.3 2.7 5 3.4 1.8 0.7 5.8 3.4 9.1 5.9 3.2 2.5 6.3 4.6 7 4.6 0.7 0 2.7 1.2 4.5 2.8 4.5 3.7 8.7 6.6 12.6 8.6 1.9 1 5.9 3.7 9 6.1 3.2 2.3 7.4 4.8 9.4 5.5 2.1 0.6 4 1.6 4.4 2.1 0.3 0.5 2.2 1.6 4.2 2.4 2 0.9 4.2 2.1 4.7 2.8 2 2.4 9.1 7.4 11.5 8.2 4 1.2 16.1 8.3 21.5 12.6 2.8 2.1 5.5 3.9 6.1 3.9 2 0 14.9 7.3 19.4 11 2.5 2 13.5 8.1 24.5 13.4 11 5.4 20.9 10.2 22 10.9 1.1 0.6 5.7 3 10.3 5.4 4.5 2.4 11.3 6.6 15 9.3 3.8 2.8 7.5 5 8.3 5 0.8 0 2.9 0.9 4.7 2 1.7 1.1 5.3 2.5 8 3.1 2.6 0.6 19.1 8.2 36.7 16.9 20.1 9.9 33.7 16 36.5 16.4 2.5 0.4 6.2 1.8 8.2 3.1 2.1 1.4 4.3 2.5 4.9 2.5 0.6 0 2.6 0.9 4.3 1.9 1.7 1.1 5.4 2.5 8.1 3.1 2.8 0.6 9.1 3.1 14.1 5.5 5 2.4 11.3 4.9 14 5.6 2.7 0.7 6.5 2 8.6 3 2 1 5.6 2.1 8 2.5 2.3 0.4 6.3 1.7 8.8 2.9 2.5 1.3 6.5 2.6 9 3 2.4 0.4 6.1 1.6 8.1 2.7 2 1 5.4 2.2 7.5 2.5 2.2 0.3 5.9 1.6 8.4 2.8 2.6 1.3 7.2 2.4 11 2.7 3.8 0.3 8.3 1.4 10.7 2.6 2.3 1.2 6.1 2.4 8.5 2.8 2.3 0.4 5.8 1.6 7.7 2.7 2.6 1.6 6 2.3 13.7 2.8 7.5 0.4 11.1 1.1 13.6 2.6 2 1.1 6.2 2.2 10.2 2.6 4 0.4 8.7 1.6 11 2.8 3 1.6 6.9 2.3 14.6 2.9 8.3 0.6 11.3 1.2 14.3 3 3.5 2.1 5.2 2.3 21.2 2.6 16.3 0.3 17.8 0.5 22.8 2.9 l5.4 2.5 69.3 0 69.3 0 5.6 -2.7 c4.8 -2.2 7.3 -2.7 17.6 -3.1 10 -0.4 12.7 -0.9 16.4 -2.8 3.6 -2 5.9 -2.4 13 -2.4 7.4 0 9.3 -0.4 13.6 -2.7 4.1 -2.1 6.7 -2.7 14.5 -3.1 6.6 -0.3 10.4 -1 12.5 -2.2 1.7 -1 5.4 -2.3 8.3 -2.9 2.9 -0.6 6.9 -1.9 9 -3 2 -1 5.7 -2.1 8.2 -2.5 2.5 -0.4 5.9 -1.5 7.6 -2.5 1.7 -1 5.4 -2.4 8.3 -3 2.9 -0.6 9.2 -3.1 14.1 -5.5 4.8 -2.4 10.5 -4.7 12.6 -5.1 4.1 -0.7 8.3 -2.4 19.9 -8.1 3.9 -1.9 8 -3.4 9.1 -3.4 2.7 0 11.1 -4.4 14.4 -7.5 1.4 -1.3 4.7 -2.9 7.4 -3.5 5.9 -1.3 9.1 -3 13.3 -6.9 1.8 -1.6 4.3 -3.3 5.5 -3.7 1.3 -0.3 3.4 -1.4 4.8 -2.4 1.4 -0.9 4 -2.2 5.8 -2.8 1.8 -0.6 6.1 -3.3 9.5 -5.9 3.4 -2.6 9.8 -6.5 14.3 -8.7 4.4 -2.3 10.7 -6 14 -8.4 6.2 -4.5 16.6 -11.4 21.8 -14.6 8.5 -5.2 11.7 -7.7 19 -14.8 4.4 -4.3 8.8 -8.1 9.9 -8.4 4.1 -1.3 10.7 -6.8 22.2 -18.4 8.1 -8.2 13.9 -13.1 17.9 -15.3 4.5 -2.4 12 -9.2 30.1 -27.2 25.7 -25.5 33.8 -34.5 35 -38.5 0.4 -1.4 6 -7.9 12.4 -14.5 6.5 -6.8 12.8 -14.3 14.4 -17.2 1.6 -3 7.4 -9.9 13.5 -16.1 6.4 -6.4 11.7 -12.8 13.2 -15.7 1.4 -2.8 5.1 -7.8 8.2 -11.2 3.1 -3.5 6.9 -8.4 8.4 -11 1.6 -2.7 5.3 -7.6 8.4 -11 3.5 -3.8 7.5 -10 10.6 -16 2.7 -5.4 6.7 -11.8 8.9 -14.3 6.7 -7.4 10 -12.1 13.9 -20.2 2.1 -4.2 6.2 -11 9.2 -14.9 3 -4 5.4 -7.8 5.4 -8.5 0 -0.6 1.8 -3.4 4 -6 2.2 -2.7 6.3 -9.3 9 -14.6 2.7 -5.4 6.3 -11.5 8 -13.7 3.2 -3.9 6.3 -9.6 13.5 -24.1 8.1 -16.4 10.5 -20.7 14.7 -26.1 1.8 -2.5 7.3 -12.5 12.2 -22.3 l8.8 -17.9 -6.2 -12.6 c-3.5 -6.9 -7.7 -14.4 -9.5 -16.6 -1.8 -2.2 -4 -5.6 -5 -7.5 -1 -1.9 -3.8 -6.1 -6.2 -9.3 -2.4 -3.2 -4.8 -6.9 -5.2 -8.1 -0.5 -1.2 -2.8 -4.6 -5.2 -7.6 -2.4 -3 -5.4 -7.7 -6.8 -10.3 -1.3 -2.7 -6.2 -8.8 -10.8 -13.5 -4.6 -4.8 -9.4 -10.7 -10.5 -13.2 -3.1 -6.6 -47.7 -51.2 -53.8 -53.8 -2.5 -1.1 -7 -4.5 -10 -7.7 -6.1 -6.2 -13.6 -12.2 -19 -15 -1.9 -1 -5.9 -3.8 -8.8 -6.2 -3 -2.3 -5.9 -4.3 -6.6 -4.3 -0.7 0 -3.9 -2.1 -7.2 -4.6 -3.2 -2.5 -7.9 -5.7 -10.4 -7 -2.5 -1.4 -6.7 -4.2 -9.5 -6.4 -2.7 -2.2 -6.1 -4.2 -7.6 -4.5 -1.5 -0.3 -4.1 -1.7 -6 -3.1 -1.8 -1.3 -3.8 -2.4 -4.5 -2.4 -0.7 0 -3.1 -1.6 -5.5 -3.6 -5.4 -4.5 -8.4 -6 -13.6 -6.9 -2.8 -0.4 -5.9 -2 -9 -4.6 -5.7 -4.7 -19.2 -11.4 -25.2 -12.4 -2.3 -0.4 -7.7 -2.5 -11.9 -4.7 -4.2 -2.2 -9 -4.7 -10.7 -5.5 -1.6 -0.8 -4.1 -2 -5.5 -2.8 -6.7 -3.8 -16 -7.7 -20 -8.5 -2.5 -0.5 -7.2 -2.1 -10.5 -3.4 -3.3 -1.4 -7.2 -2.6 -8.6 -2.6 -1.4 0 -4 -1.1 -5.9 -2.5 -1.9 -1.4 -3.8 -2.5 -4.3 -2.5 -0.4 0 -3.3 -1.2 -6.2 -2.6 -3 -1.4 -7.1 -2.8 -9.2 -3.1 -2.1 -0.3 -5.4 -1.4 -7.5 -2.4 -2 -1 -5.8 -2.3 -8.5 -2.9 -2.6 -0.6 -6.7 -2 -9 -3.1 -2.3 -1.1 -5.9 -2.3 -8 -2.6 -2.1 -0.3 -5.5 -1.4 -7.5 -2.4 -2.1 -1.1 -6.1 -2.4 -9 -3 -2.9 -0.7 -6.3 -1.9 -7.6 -2.7 -1.5 -1 -6.2 -1.8 -12.5 -2.3 -7.8 -0.6 -11.5 -1.3 -15.7 -3.3 -5.4 -2.5 -6 -2.6 -27 -2.6 -20.8 0 -21.7 -0.1 -26.8 -2.5 -5.3 -2.5 -5.8 -2.5 -31.5 -2.5 -24.8 0 -26.4 0.2 -30.7 2.2 -3.9 1.9 -6.8 2.3 -22.5 2.8 -16.2 0.5 -18.4 0.8 -22.4 2.9 -3.3 1.7 -6.9 2.5 -14.5 3 -7.1 0.5 -10.9 1.3 -12.9 2.5 -1.6 1.1 -5.4 2 -9.5 2.4 -4.2 0.3 -8.5 1.4 -11.4 2.8 -2.9 1.5 -7.5 2.6 -12 3.1 -5.8 0.5 -8.9 1.5 -15.6 4.9 -4.5 2.4 -11 5 -14.4 5.9 -3.5 0.9 -7.4 2.3 -8.7 3.2 -1.4 0.9 -5.5 1.8 -9.5 2.1 -7.2 0.4 -13.5 3 -17.4 7.1 -0.9 1.1 -9 5.6 -17.8 10.1 -8.9 4.5 -18.3 10 -20.9 12.1 -2.6 2.1 -5.3 3.9 -6 3.9 -0.7 0 -4.2 2.3 -7.9 5 -4.2 3.2 -8.4 5.4 -11.4 6.1 -6.9 1.5 -10 3.9 -29.1 23 -16.3 16.4 -23.1 24.3 -23.1 26.9 0 0.6 -4.2 5.5 -9.2 10.8 -5.5 5.7 -10.6 12.2 -12.6 15.9 -1.8 3.4 -3.6 6.3 -4 6.5 -1.9 0.8 -6.4 8.5 -12.6 21.3 -3.7 7.7 -7.4 15.1 -8.2 16.5 -0.8 1.4 -2.2 4.1 -3 6 -0.8 1.9 -2.1 4.6 -2.8 6 -0.8 1.4 -1.9 4.9 -2.5 7.8 -0.6 2.9 -1.9 6.9 -3 9 -1 2 -2.1 6.8 -2.4 10.6 -0.4 4.3 -1.4 8.2 -2.8 10.5 -1.7 2.8 -2.3 6 -2.9 14.1 -0.5 8.1 -1.2 11.3 -2.9 14 -1.9 3.2 -2.1 4.9 -2.1 19.5 0 14.6 0.2 16.4 2.2 20 1.8 3.3 2.3 6.2 2.8 16.5 0.4 10.3 0.9 13.3 2.8 16.7 1.3 2.6 2.4 6.9 2.8 11.5 0.4 4.1 1.4 8.6 2.4 10.3 1 1.7 2.1 4.1 2.5 5.5 0.4 1.3 1.6 3.6 2.6 5 1 1.4 2.5 5.4 3.4 9 0.9 3.6 2.2 7.5 3 8.7 0.8 1.2 1.8 4.1 2.1 6.5 0.9 5.9 6.8 18.1 12 25.1 4 5.1 4.4 6.3 4.4 11.2 0 4.9 -0.4 5.9 -3.6 9.5 -3.5 3.9 -3.9 4 -9.9 4 -5.8 0 -7.4 -0.5 -19.7 -6.8 -7.3 -3.8 -14.2 -7.3 -15.3 -7.9 -1.1 -0.6 -14.9 -7.5 -30.7 -15.3 -16.7 -8.3 -31.2 -16.1 -34.5 -18.7 -3.2 -2.5 -6.8 -4.9 -8 -5.4 -1.2 -0.4 -4.8 -2.8 -8 -5.2 -3.2 -2.4 -11.6 -7.2 -18.6 -10.7 -7.1 -3.5 -15.8 -8.5 -19.5 -11.3 -3.7 -2.7 -7.7 -5.3 -8.9 -5.8 -1.3 -0.5 -4.6 -2.7 -7.5 -4.9 -2.8 -2.3 -7 -5.1 -9.2 -6.2 -2.3 -1.2 -5.8 -3.6 -8 -5.4 -2.1 -1.8 -5.5 -4 -7.5 -5 -2 -0.9 -5.3 -3.2 -7.4 -4.9 -2.1 -1.8 -6.4 -4.6 -9.5 -6.3 -6.6 -3.5 -20.7 -17.5 -21.7 -21.5 -0.4 -1.4 -0.5 -9.2 -0.3 -17.4 0.3 -12.7 0.6 -15.4 2.5 -18.8 1.1 -2.2 2.6 -6.6 3.2 -9.7 0.7 -3.1 1.8 -6.2 2.6 -6.8 0.8 -0.6 1.9 -2.8 2.6 -4.8 0.7 -2 2.3 -5.3 3.5 -7.2 1.3 -1.9 2.4 -4.2 2.4 -5.1 0 -0.9 0.9 -2.8 2 -4.2 1.2 -1.4 2.6 -4.1 3.2 -5.9 0.6 -1.8 2.2 -4.9 3.5 -6.8 1.2 -1.9 2.3 -4.2 2.3 -5.1 0 -0.9 0.9 -2.8 2 -4.2 1.2 -1.4 2.6 -4.1 3.2 -5.9 0.6 -1.8 2.2 -4.9 3.5 -6.8 1.2 -1.9 2.3 -4.2 2.3 -5 0 -0.9 0.7 -2.5 1.5 -3.7 0.8 -1.2 3.4 -5.9 5.8 -10.5 2.3 -4.5 6.1 -10.9 8.5 -14 2.3 -3.2 4.8 -7 5.4 -8.5 0.7 -1.5 3.9 -5.7 7.1 -9.2 6 -6.5 9.6 -12.8 9.7 -16.7 0 -1.2 1.1 -3.6 2.4 -5.5 1.3 -1.9 3.9 -5.8 5.8 -8.7 1.8 -3 6.4 -9.1 10.1 -13.5 3.8 -4.5 7.9 -10.2 9.2 -12.7 1.3 -2.5 4.9 -7 8 -10 6.4 -6.2 14.5 -16.7 14.5 -18.8 0 -0.8 13.6 -15 30.3 -31.7 23 -23 31.5 -30.9 35.6 -33 3 -1.5 9.4 -6.6 14.5 -11.4 5 -4.9 10.7 -9.6 12.6 -10.5 1.9 -0.9 6.2 -3.6 9.5 -6.1 3.3 -2.5 6.3 -4.5 6.8 -4.5 0.5 0 3.5 -2 6.7 -4.4 3.2 -2.5 7.4 -5.2 9.2 -6.2 1.8 -0.9 5.8 -3.6 8.9 -5.9 3.1 -2.3 8.5 -5.7 12 -7.6 3.5 -1.8 7.5 -3.9 8.9 -4.6 1.4 -0.8 4.1 -2.1 6 -2.9 1.9 -0.8 4.4 -2 5.5 -2.6 1.1 -0.6 3.4 -1.8 5 -2.5 1.7 -0.8 3.9 -1.9 5 -2.6 4.5 -2.5 19.1 -9.6 19.8 -9.7 0.5 0 2.2 -0.9 3.8 -2.1 1.7 -1.2 5.7 -2.7 9 -3.5 3.4 -0.8 10.1 -3.4 15 -5.8 4.8 -2.4 11.1 -4.9 13.8 -5.5 2.8 -0.6 6.7 -2 8.8 -3.1 2.3 -1.2 5.7 -2 8.8 -2 3.1 0 6.9 -0.9 10.1 -2.4 2.8 -1.3 7.1 -2.7 9.5 -3.1 2.4 -0.4 6 -1.6 7.9 -2.7 2.5 -1.5 6.3 -2.3 13.5 -2.8 7.5 -0.5 11.2 -1.3 14.5 -3 3.8 -2 6.6 -2.5 17.5 -3 10.6 -0.4 13.5 -0.9 16 -2.5 2.7 -1.9 5.2 -2 37.5 -2.5 34.4 -0.5 34.5 -0.5 39 -3 4 -2.2 5.7 -2.5 15.5 -2.5 10 0 11.4 0.2 15 2.5 l4 2.5 35 0.5 c32.6 0.5 35.2 0.6 38.5 2.5 2.9 1.7 6 2.1 18.5 2.6 13.5 0.5 15.5 0.8 20.5 3.2 4.5 2.2 6.9 2.7 13.5 2.7 6.3 0 8.9 0.5 12 2.1 2.3 1.3 7.2 2.5 11.7 3 4.9 0.6 9.4 1.8 12.4 3.4 3.9 2.1 6.1 2.5 12.8 2.5 6.4 0 9.2 0.5 13.2 2.4 2.8 1.3 7.1 2.7 9.4 3.1 2.4 0.4 6.3 1.8 8.8 3.1 3.1 1.7 6.1 2.4 9.9 2.4 3.4 0 7.5 0.9 11.1 2.4 3.1 1.3 7.2 2.7 9.1 3.1 1.9 0.4 5.7 1.8 8.5 3.1 2.8 1.3 6.2 2.4 7.6 2.4 1.4 0 4.9 1.1 7.8 2.5 2.8 1.3 6.9 2.7 9 3.1 2 0.4 5.3 1.5 7.2 2.4 1.9 1 6.1 2.3 9.2 2.9 3.1 0.7 6.7 2 8 3 1.3 1 3.4 2.2 4.7 2.6 1.4 0.4 4.5 1.8 6.9 3.1 2.5 1.3 5.7 2.4 7.2 2.4 1.4 0 7.1 2.2 12.6 4.9 5.4 2.7 11.7 5.3 13.8 5.7 3.7 0.6 22.5 9.3 33.4 15.4 0.9 0.5 3.3 1.6 5.2 2.4 1.9 0.8 4.6 2.1 6 3 1.4 0.8 6.1 3.2 10.5 5.4 13.4 6.5 16.9 8.3 19 9.5 1.1 0.6 3.2 1.7 4.8 2.4 1.5 0.7 3.9 1.9 5.5 2.6 1.5 0.7 3.6 1.8 4.7 2.4 1.1 0.6 3.6 1.8 5.5 2.7 6.2 3 9.4 4.6 12 6.1 1.4 0.8 4.1 2.2 6 3 1.9 0.9 4.2 2 5 2.5 0.8 0.6 3.1 1.8 5 2.8 2 0.9 5.6 3.3 8 5.3 2.5 2 10.7 6.6 18.2 10.3 7.6 3.7 17 9.2 21 12.1 4 3 8.4 5.7 9.7 6 1.3 0.3 4 1.7 6 3.1 1.9 1.3 4.1 2.4 4.7 2.4 0.7 0 3 1.5 5.2 3.3 2.1 1.7 5.8 4.3 8 5.7 2.3 1.4 7.4 4.9 11.3 7.8 3.9 2.8 7.7 5.2 8.5 5.2 0.8 0 2.3 0.9 3.3 1.9 2.7 2.7 12.1 9.1 13.3 9.1 0.6 0 2.5 1.3 4.4 2.9 1.8 1.6 6.1 4.6 9.5 6.6 3.4 2 8.1 5.2 10.4 7 2.3 1.9 5.6 4 7.3 4.8 1.8 0.7 5.3 3.3 7.8 5.7 l4.5 4.3 -0.8 12.1 c-0.4 6.7 -0.8 23.4 -0.8 37.1 0 13.8 0.1 108 0.2 209.5 0.5 403.8 0.2 440.8 -3.1 462.5 -2.1 13.3 -6.6 31.2 -10.6 41.5 -1.1 3 -2.4 6.4 -2.7 7.5 -1.3 3.9 -10.6 22 -16 30.9 -23.1 38.1 -60.4 69.6 -100.8 85.2 -4.9 1.9 -9.9 3.9 -11 4.3 -2.1 0.9 -12.4 3.8 -23.5 6.6 -3.6 0.9 -12.1 2.4 -19 3.3 -11.4 1.4 -59.3 1.6 -523 1.8 -280.8 0.1 -515.4 -0.2 -521.5 -0.7z"/>
  <path d="M605.5 1186.1 c-9.7 -0.5 -12.6 -1 -15 -2.6 -2.5 -1.7 -5.1 -2.1 -18.5 -2.5 -13.4 -0.5 -16.1 -0.9 -19.8 -2.8 -3.1 -1.6 -7 -2.5 -14.5 -3 -7.3 -0.6 -11.1 -1.4 -13.1 -2.7 -2.1 -1.4 -5.6 -2.1 -13 -2.6 -7.8 -0.5 -11.3 -1.2 -15.6 -3.3 -3 -1.4 -6.6 -2.6 -8 -2.6 -1.4 0 -4.5 -1.1 -7 -2.4 -2.9 -1.5 -7 -2.5 -11.5 -2.9 -4.6 -0.4 -8.7 -1.5 -11.9 -3.2 -2.7 -1.4 -6.2 -2.5 -7.8 -2.5 -1.6 0 -5 -1.1 -7.6 -2.4 -2.9 -1.4 -7.2 -2.5 -11.2 -2.8 -3.6 -0.3 -8.3 -1.4 -10.5 -2.5 -2.2 -1.1 -6.4 -2.6 -9.4 -3.2 -2.9 -0.6 -6.6 -2 -8.1 -3.1 -1.6 -1.1 -3.1 -2 -3.6 -2 -0.4 0 -3.1 -1.1 -6.1 -2.5 -2.9 -1.4 -7.3 -2.9 -9.8 -3.4 -2.4 -0.5 -5.5 -1.5 -6.9 -2.4 -1.3 -0.9 -5.4 -2.3 -9.1 -3.2 -3.7 -0.8 -7.8 -2.4 -9.2 -3.5 -1.4 -1.1 -3.1 -2 -3.7 -2 -0.6 0 -2.8 -0.9 -4.8 -2 -2.1 -1.1 -5.9 -2.5 -8.5 -3 -4.1 -0.9 -17.1 -6.8 -22.3 -10 -3.7 -2.3 -16.1 -7 -18.4 -7 -1.4 0 -3.4 -0.8 -4.4 -1.8 -4.2 -4.2 -11 -7.9 -16.5 -9 -3.2 -0.6 -7 -2 -8.5 -3 -1.5 -1.1 -4.4 -2.5 -6.4 -3.1 -2 -0.7 -4.2 -1.8 -4.8 -2.6 -0.6 -0.8 -2.8 -1.9 -4.8 -2.6 -2 -0.6 -4.8 -1.9 -6.2 -2.9 -1.4 -0.9 -4 -2.2 -5.8 -2.8 -1.8 -0.6 -4.5 -2 -5.9 -3.2 -1.4 -1.1 -3 -2 -3.6 -2 -0.6 0 -3.4 -1.9 -6.4 -4.2 -3 -2.3 -11.8 -7.4 -19.6 -11.3 -7.8 -3.9 -16.7 -9 -19.7 -11.3 -3 -2.3 -9.3 -6 -14 -8.2 -4.7 -2.3 -9.4 -4.6 -10.5 -5.2 -1.1 -0.7 -4 -2.2 -6.4 -3.5 -2.4 -1.3 -6.2 -3.9 -8.5 -5.7 -2.2 -1.9 -5.6 -4.1 -7.5 -5.1 -1.9 -1 -5.7 -3.5 -8.4 -5.7 -2.8 -2.1 -6.4 -4.5 -8.2 -5.2 -1.7 -0.8 -8.2 -6.2 -14.2 -12.1 -11.1 -10.7 -16.1 -14.7 -19.8 -15.8 -1.1 -0.4 -6.8 -5.5 -12.8 -11.5 l-10.7 -10.7 0 -329.5 c0.1 -311.1 0.4 -356.5 2.9 -372.7 5 -32.6 20.5 -68.7 41.5 -96.9 7.9 -10.7 30.1 -32.5 40.6 -40.1 14.8 -10.6 37.9 -23.8 46.6 -26.6 1 -0.3 4.4 -1.5 7.4 -2.7 13.2 -5 30.5 -9.3 46.6 -11.7 10.9 -1.5 31.9 -1.7 241.4 -2.2 126.2 -0.3 359.6 -0.3 518.5 0 261.1 0.5 290.1 0.7 300.3 2.2 48.3 7 89.4 27.3 122.8 60.5 31.7 31.5 52.3 72.2 60 118.2 1 6 1.8 24.7 2.5 62.5 1 56.5 0.9 166.9 -0.2 168 -0.4 0.3 -2.4 0.3 -4.5 -0.1 -2.7 -0.5 -5.7 -2.5 -10.9 -7.4 -4 -3.7 -9.4 -7.7 -12 -8.9 -2.6 -1.2 -6.8 -4.2 -9.3 -6.7 -9 -8.9 -14.7 -13.6 -19.2 -15.9 -2.5 -1.3 -5.8 -3.8 -7.5 -5.5 -3.5 -3.8 -13 -11 -14.4 -11 -0.5 0 -4.7 -3.2 -9.3 -7.1 -4.6 -3.9 -9.9 -7.9 -11.8 -8.8 -2 -0.9 -5.6 -3.3 -8.2 -5.4 -2.5 -2 -6.3 -4.7 -8.5 -6 -2.2 -1.2 -5.6 -3.4 -7.4 -4.9 -1.9 -1.4 -7.7 -4.9 -12.9 -7.5 -5.2 -2.7 -11.9 -6.8 -14.9 -9 -5.4 -4.1 -6.7 -4.9 -13.1 -7.8 -5.5 -2.5 -9.1 -4.7 -15 -9 -7.8 -5.8 -117.4 -60.1 -123 -61 -2.4 -0.4 -6.1 -1.6 -8.1 -2.7 -2 -1 -5.4 -2.2 -7.5 -2.5 -2 -0.3 -8.1 -2.7 -13.3 -5.3 -5.3 -2.6 -12 -5.3 -14.9 -5.9 -2.9 -0.6 -6.3 -1.7 -7.5 -2.6 -1.2 -0.8 -4.7 -1.9 -7.7 -2.6 -3 -0.6 -7.1 -2 -9.2 -3 -2 -1 -5.6 -2.1 -8 -2.5 -2.3 -0.4 -6.3 -1.7 -8.8 -3 -2.5 -1.3 -5.6 -2.4 -7 -2.4 -1.4 0 -4.7 -1.1 -7.5 -2.3 -2.7 -1.3 -8 -2.7 -11.7 -3.1 -3.7 -0.3 -9.1 -1.8 -12 -3.1 -3.3 -1.6 -7.1 -2.5 -10.2 -2.5 -2.9 0 -7.1 -1 -10.5 -2.4 -4 -1.7 -8.1 -2.6 -14.2 -2.9 -6.4 -0.3 -9.8 -1.1 -14 -3.1 -4.6 -2.1 -7.1 -2.6 -13.4 -2.6 -6 0 -9 -0.5 -13.4 -2.4 -4.8 -2.1 -7.5 -2.5 -19.6 -2.9 -12.8 -0.3 -14.5 -0.6 -19.2 -3 l-5.2 -2.7 -24.8 0 c-24.3 0 -24.9 -0.1 -30.1 -2.5 -5.3 -2.5 -5.8 -2.5 -31.8 -2.5 -25.5 0 -26.6 0.1 -30.7 2.3 -4.1 2.1 -5.3 2.2 -38.7 2.7 -34.2 0.5 -34.5 0.5 -39 2.9 -3.8 2.1 -6.2 2.5 -16 2.8 -9.4 0.4 -12.5 0.9 -17.1 2.9 -4.3 1.8 -7.4 2.4 -13 2.4 -5.8 0 -8.6 0.6 -12.9 2.6 -3.2 1.5 -8.2 2.8 -12 3.1 -5 0.5 -8.9 1.8 -17 5.6 -10.3 5 -10.7 5.1 -21.5 5.4 -8.9 0.4 -12.1 0.9 -16.6 2.9 -3.1 1.3 -6.7 2.4 -7.9 2.4 -1.2 0 -4.8 1.1 -7.9 2.4 -3.1 1.4 -7.2 2.7 -9.1 3 -2 0.3 -7.9 2.8 -13.1 5.4 -5.2 2.7 -11.5 5.2 -13.8 5.6 -2.4 0.3 -6.4 1.8 -8.9 3.1 -2.6 1.4 -5 2.5 -5.5 2.5 -0.4 0 -2.5 1.1 -4.5 2.5 -2 1.4 -4.4 2.5 -5.2 2.5 -0.8 0 -3.1 1 -5 2.3 -1.9 1.3 -5.8 2.8 -8.6 3.5 -7.3 1.6 -28.9 12.2 -35.8 17.6 -3.3 2.5 -6.4 4.6 -6.9 4.6 -0.5 0 -2.1 0.8 -3.5 1.9 -1.5 1 -4.4 2.4 -6.4 3 -2 0.7 -4.2 1.8 -4.8 2.6 -0.6 0.7 -2.4 1.7 -4 2 -1.6 0.4 -4.4 1.7 -6.3 2.9 -1.8 1.2 -4.8 2.8 -6.5 3.4 -1.8 0.6 -6 3.1 -9.2 5.6 -3.2 2.5 -7.6 5.4 -9.7 6.5 -2.1 1.1 -6 3.8 -8.7 6 -2.6 2.3 -5.2 4.1 -5.8 4.1 -1.6 0 -12.2 7.7 -15.8 11.5 -1.9 2 -5.5 4.6 -7.9 5.8 -2.4 1.1 -8.5 6 -13.5 10.7 -5 4.8 -10.7 9.5 -12.6 10.5 -6.5 3.3 -13.4 9.3 -27 23 -9 9.1 -15.2 14.6 -18.5 16.2 -6.7 3.4 -28.4 25.1 -31.4 31.4 -1.3 2.8 -6.6 9.1 -13.4 16 -6.8 7 -12.3 13.5 -14.1 16.9 -1.6 3 -6.8 9.6 -11.6 14.6 -4.7 5 -9.4 10.7 -10.4 12.8 -0.9 2 -3.9 6.5 -6.6 10.1 -2.6 3.5 -5.1 7.4 -5.5 8.6 -0.4 1.2 -2.9 4.9 -5.6 8.2 -2.7 3.4 -4.9 6.6 -4.9 7.2 0 0.6 -2 3.7 -4.4 6.8 -2.4 3.1 -6.3 9.6 -8.7 14.4 -2.4 4.8 -5.8 10.6 -7.6 12.7 -1.8 2.2 -4.8 6.9 -6.6 10.5 -1.9 3.6 -3.9 7.5 -4.5 8.6 -0.6 1.1 -2.9 5.8 -5.1 10.5 -2.3 4.7 -4.7 9.6 -5.5 11 -0.8 1.4 -3.3 6.3 -5.5 11 -2.3 4.7 -4.7 9.6 -5.5 11 -3 5.1 -6.4 13.6 -7.2 17.5 -0.4 2.2 -1.8 6.2 -3 9 -1.3 2.7 -2.4 6.1 -2.4 7.5 0 1.4 -2.3 7 -5 12.4 -2.8 5.5 -5.3 11.7 -5.7 14 -0.3 2.3 -1.4 5.8 -2.4 7.8 -1.1 2.1 -2.5 6.4 -3.3 9.6 -0.7 3.2 -2.1 7.1 -3.1 8.6 -1.3 1.9 -1.9 5.4 -2.3 12.4 -0.4 7.5 -1 10.8 -2.8 14.4 -1.3 2.6 -2.4 5.4 -2.4 6.3 0 3 12.3 27 16.2 31.7 2.1 2.6 4.5 6.3 5.3 8.1 0.8 1.9 3.3 5.8 5.7 8.8 2.4 3 5 7 5.9 8.9 0.9 1.9 4.5 6.9 8.1 11 3.5 4.1 7.7 9.8 9.2 12.5 1.7 2.9 11 13.2 22.1 24.5 12.4 12.5 19.9 20.9 20.9 23.2 2 5 10.1 13 16.2 16.1 2.7 1.4 8.5 6.2 12.9 10.7 8.1 8.3 15.5 14.3 21 17.3 1.7 0.9 6.7 5.1 11.2 9.4 4.5 4.4 10.6 9.2 13.5 10.8 2.9 1.6 7 4.3 9.1 6 2.1 1.8 10.4 6.5 18.5 10.6 8.1 4 17.5 9.5 21 12.2 3.5 2.7 7.8 5.3 9.5 5.9 1.8 0.6 4.3 1.9 5.7 2.8 1.4 0.9 4 2.2 5.9 2.9 1.9 0.6 4.2 1.7 5 2.4 0.9 0.8 3.2 2 5.1 2.7 1.9 0.7 4.6 2.1 6 3 1.4 0.9 4 2.2 5.8 2.8 1.8 0.6 4.6 2 6.1 3.2 1.6 1.1 3.3 2 3.8 2 0.4 0 2.5 0.9 4.6 2 2.1 1.2 6.1 2.5 8.9 3 2.8 0.6 7.5 2.1 10.4 3.5 2.9 1.4 6.5 2.5 8.1 2.5 1.5 0 4.1 0.9 5.8 2 1.6 1.1 5.4 2.5 8.3 3.1 2.9 0.6 9.4 3.1 14.4 5.6 7.2 3.6 10.8 4.8 16.3 5.3 3.8 0.4 8.8 1.6 11 2.7 2.8 1.4 6.8 2.2 13.6 2.6 7.8 0.4 10.6 1 14.5 3.1 4 2.1 6.3 2.6 12.4 2.6 4.3 0.1 9.2 0.8 11.5 1.6 2.2 0.9 6 2.2 8.5 3 13.3 4.3 12.6 4.1 14.6 2.7 3.1 -2.2 13.2 -1.6 18.9 1.2 l5 2.5 50.6 0 50.6 0 4.9 -2.7 c4.5 -2.4 6 -2.7 19.9 -3.1 12.5 -0.4 15.7 -0.8 19 -2.5 2.7 -1.3 7 -2.2 13.5 -2.7 6.8 -0.5 10.7 -1.3 13.8 -2.9 2.5 -1.3 7.1 -2.4 11 -2.8 3.7 -0.3 8.3 -1.4 10.2 -2.3 1.9 -1 5.9 -2.3 8.8 -2.9 2.9 -0.6 7 -2 9.1 -3.1 2.1 -1 7 -2.2 10.7 -2.6 5.4 -0.5 9.2 -1.8 17.9 -6 6.1 -3 12.3 -6.3 14 -7.4 1.6 -1.1 5 -2.2 7.5 -2.6 5.9 -0.8 41 -18.1 47.4 -23.4 2.6 -2.2 5.4 -4 6.1 -4 0.7 0 4.1 -2.1 7.6 -4.8 3.5 -2.6 8.7 -6 11.4 -7.6 7.1 -4.1 59.5 -56.3 63.1 -63 1.5 -2.8 4.5 -7.3 6.6 -10.1 2.1 -2.7 4.5 -6.6 5.3 -8.5 0.9 -1.9 2.1 -4.4 2.7 -5.5 5.2 -9 13 -26.3 13.9 -30.7 0.6 -2.9 1.9 -6.9 2.9 -8.8 1 -1.9 2.3 -5.9 2.9 -8.8 0.6 -2.9 1.9 -6.4 2.8 -7.9 1.2 -1.7 1.9 -5.7 2.3 -12.8 0.6 -8 1.2 -11.1 2.9 -13.8 2 -3.2 2.1 -4.7 2.1 -25.3 0 -20.2 -0.2 -22.2 -2.2 -26.4 -1.6 -3.5 -2.2 -7.4 -2.8 -17 -0.5 -9.9 -1.1 -13.3 -2.7 -16.5 -1.3 -2.3 -2.4 -7 -2.8 -11 -0.4 -3.8 -1.5 -8.4 -2.5 -10.1 -1 -1.7 -2.1 -5.1 -2.5 -7.5 -0.4 -2.4 -4.2 -11.6 -8.5 -20.4 -4.3 -8.8 -8.1 -17.7 -8.5 -19.9 -0.3 -2.1 -1.5 -5.5 -2.6 -7.5 -1 -2 -1.9 -4 -1.9 -4.6 0 -0.6 -1.1 -2.6 -2.3 -4.5 -1.3 -1.9 -2.9 -5 -3.5 -6.8 -0.6 -1.8 -3.1 -5.9 -5.4 -9 -2.4 -3.1 -5.9 -8.4 -7.7 -11.7 -3.1 -5.4 -3.4 -6.8 -3.5 -14.1 -0.1 -5.5 0.3 -8.6 1.3 -9.7 2 -2.5 12 -2.3 17.1 0.3 2.2 1.1 6.3 2.5 9.2 3.1 2.9 0.6 6.9 2.2 8.9 3.5 1.9 1.3 4 2.4 4.7 2.4 0.6 0 3.2 1.1 5.8 2.5 2.6 1.4 5.9 2.5 7.4 2.5 1.5 0 4.2 1.1 6.1 2.5 1.9 1.3 5 3.6 6.9 5 2 1.3 5.6 2.9 8.1 3.3 2.8 0.5 6.7 2.5 10.1 5 5.2 3.8 8.8 5.9 19.8 11.1 2.5 1.2 5.2 2.6 6 3.2 0.8 0.5 3 1.6 4.9 2.5 1.9 0.9 5.5 3.3 8 5.4 2.5 2.1 6.6 4.8 9.1 6 2.5 1.3 4.7 2.6 5 3.1 1 1.5 10.4 7.9 11.6 7.9 0.7 0 3.6 2 6.5 4.4 3 2.4 7 5.2 9 6.2 2 1.1 6.5 4 10 6.7 3.4 2.6 6.9 4.7 7.7 4.7 0.7 0 5.8 4.3 11.2 9.5 5.4 5.2 12 10.5 14.7 11.9 3.3 1.7 14.2 11.8 34.5 31.9 16.3 16.2 30.1 30.4 30.7 31.5 1.9 3.6 1.4 16.3 -0.9 20.2 -1.6 3 -3.8 7.2 -10.4 21 -0.7 1.4 -1.7 3.4 -2.3 4.5 -1.4 2.4 -5.1 9.8 -7 14 -0.8 1.7 -1.9 3.9 -2.6 5 -0.6 1.1 -2.2 4 -3.5 6.5 -1.3 2.5 -2.7 4.7 -3.1 5 -1.3 1 -5.9 7.6 -7.6 11 -0.9 1.9 -2.8 4.6 -4.1 6 -2 2.2 -4.7 6.9 -12.2 21.5 -0.9 1.7 -3.2 5 -5.3 7.5 -2 2.5 -4.6 6.3 -5.7 8.5 -1.1 2.2 -3.8 5.8 -6 8.1 -4.4 4.5 -11.2 14.1 -11.2 15.7 0 0.6 -6.8 7.9 -15 16.3 -9.1 9.3 -15.7 16.9 -16.7 19.1 -0.8 2.1 -4.2 6.6 -7.4 10.1 -3.3 3.4 -7.1 8.6 -8.5 11.5 -1.9 3.9 -9.5 12.1 -30.2 33 -15.2 15.2 -28.2 27.7 -28.8 27.7 -2.4 0 -12.3 7.7 -22 17.2 -5.6 5.5 -11.9 10.8 -14 11.9 -2.2 1 -6.1 3.7 -8.8 5.9 -2.6 2.2 -5.2 4 -5.7 4 -0.5 0 -3.7 1.9 -7 4.3 -3.4 2.3 -8.9 5.9 -12.2 8 -3.4 2.1 -7.3 4.9 -8.7 6.2 -1.4 1.2 -4.1 3.1 -6 4 -1.9 1 -6 3.6 -9 5.9 -6.8 5.1 -39.5 21.6 -42.8 21.6 -1.3 0 -9.7 3.6 -18.6 7.9 -8.8 4.4 -17.9 8.2 -20.1 8.6 -2.1 0.4 -5.5 1.5 -7.5 2.5 -1.9 0.9 -5.8 2.2 -8.6 2.8 -2.9 0.6 -6.7 2 -8.5 3 -1.9 1.1 -5.4 2.3 -7.7 2.6 -2.4 0.4 -6.2 1.6 -8.4 2.7 -2.2 1.1 -7.2 2.4 -11.2 2.8 -3.9 0.5 -8.7 1.7 -10.6 2.7 -2.4 1.3 -6.5 2 -13 2.4 -7.4 0.4 -10.5 1.1 -14 2.9 -3.8 2.1 -6.3 2.5 -16 2.8 -9.8 0.4 -12.4 0.8 -17.5 3.1 l-6 2.7 -73 0.1 c-40.1 0 -78.4 -0.2 -85 -0.5z"/>
  <path d="M746 895 c-2.5 -0.4 -6.1 -1.7 -8 -2.8 -1.9 -1.1 -5.3 -2.2 -7.5 -2.6 -2.2 -0.3 -7.8 -2.6 -12.5 -5 -4.7 -2.5 -10.3 -5.3 -12.5 -6.4 -2.3 -1.1 -10.7 -8.8 -19.7 -17.8 -14.9 -15.2 -15.9 -16.4 -21.6 -27.5 -3.3 -6.3 -6.3 -13.5 -6.7 -16 -0.4 -2.4 -1.7 -6 -2.8 -7.9 -2.1 -3.3 -2.2 -5 -2.5 -28.4 -0.3 -24.7 -0.3 -24.8 2.2 -30 1.3 -2.8 2.7 -6.8 3.1 -9 1 -6.1 6.4 -15.6 13.1 -22.7 3.3 -3.6 7 -8.6 8.2 -11 2.5 -5.1 13 -15.6 18.3 -18.3 2 -1 5.8 -3.5 8.4 -5.7 2.8 -2.3 5.8 -3.9 7.4 -3.9 1.4 0 4.9 -1.1 7.7 -2.4 2.8 -1.3 7.3 -2.9 10 -3.4 2.7 -0.6 6.7 -2 8.9 -3.2 3.6 -1.9 5.7 -2 28.3 -2 22.3 0 24.6 0.2 28.2 2 2.2 1.1 6.6 2.6 9.9 3.4 3.3 0.8 7.3 2.3 9 3.5 1.6 1.2 3.4 2.1 3.9 2.1 0.5 0 3.2 1.8 5.8 4 2.7 2.2 6.9 5 9.4 6.2 2.7 1.3 8.9 6.6 15.5 13.2 11 11.1 11 11.1 20 29.1 l9 18 0 29.5 0 29.5 -2.6 4.5 c-1.5 2.5 -3 6.6 -3.3 9.2 -0.4 2.6 -1.5 5.7 -2.5 7 -1 1.3 -2.2 3.4 -2.6 4.8 -0.4 1.4 -2.5 5.7 -4.6 9.5 -4.6 8.4 -21.9 25.9 -28.9 29.3 -2.5 1.2 -6.6 3.9 -9.2 6 -3 2.6 -6.1 4.2 -8.8 4.6 -2.3 0.4 -5.8 1.5 -7.8 2.5 -2.1 1 -6 2.3 -8.8 2.9 -2.9 0.6 -6.7 2 -8.5 3 -2.9 1.7 -6.1 2 -21.9 2.4 -10.2 0.3 -20.5 0.2 -23 -0.2z"/>
 </g>
 <g fill="#82b8ff">
  <path d="M635.4 1322.5 c-4.7 -2.2 -6.4 -2.5 -22.5 -2.7 -16.3 -0.3 -17.8 -0.5 -21.4 -2.7 -3.2 -1.9 -6.1 -2.5 -14.5 -3.1 -7.7 -0.6 -11.6 -1.3 -14.6 -2.9 -2.3 -1.2 -7 -2.4 -11 -2.8 -4 -0.4 -8.2 -1.5 -10.2 -2.6 -2.5 -1.5 -6.1 -2.2 -13.6 -2.6 -7.7 -0.5 -11.1 -1.2 -13.7 -2.8 -1.9 -1.1 -5.4 -2.3 -7.7 -2.7 -2.4 -0.4 -6.2 -1.6 -8.5 -2.8 -2.4 -1.2 -6.9 -2.3 -10.7 -2.6 -3.8 -0.3 -8.4 -1.4 -11 -2.7 -2.5 -1.2 -6.2 -2.5 -8.4 -2.8 -2.1 -0.3 -5.5 -1.5 -7.5 -2.5 -2 -1.1 -5.7 -2.3 -8.1 -2.7 -2.5 -0.4 -6.5 -1.7 -9 -3 -2.5 -1.2 -6.5 -2.5 -8.8 -2.9 -2.4 -0.4 -6 -1.5 -8 -2.5 -2.1 -1 -5.9 -2.3 -8.6 -3 -2.7 -0.7 -9 -3.2 -14 -5.6 -5 -2.4 -11.3 -4.9 -14.1 -5.5 -2.7 -0.6 -6.4 -2 -8.1 -3.1 -1.7 -1 -3.7 -1.9 -4.3 -1.9 -0.6 0 -2.8 -1.1 -4.9 -2.5 -2 -1.3 -5.7 -2.7 -8.2 -3.1 -2.8 -0.4 -16.4 -6.5 -36.5 -16.4 -17.6 -8.7 -34.1 -16.3 -36.7 -16.9 -2.7 -0.6 -6.3 -2 -8 -3.1 -1.8 -1.1 -3.9 -2 -4.7 -2 -0.8 0 -4.5 -2.2 -8.3 -5 -3.7 -2.7 -10.5 -6.9 -15 -9.3 -4.6 -2.4 -9.2 -4.8 -10.3 -5.4 -1.1 -0.7 -11 -5.5 -22 -10.9 -11 -5.3 -22 -11.4 -24.5 -13.4 -4.5 -3.7 -17.4 -11 -19.4 -11 -0.6 0 -3.3 -1.8 -6.1 -3.9 -5.4 -4.3 -17.5 -11.4 -21.5 -12.6 -2.4 -0.8 -9.5 -5.8 -11.5 -8.2 -0.5 -0.7 -2.7 -1.9 -4.7 -2.8 -2 -0.8 -3.9 -1.9 -4.2 -2.4 -0.4 -0.5 -2.3 -1.5 -4.4 -2.1 -2 -0.7 -6.2 -3.2 -9.4 -5.5 -3.1 -2.4 -7.1 -5.1 -9 -6.1 -3.9 -2 -8.1 -4.9 -12.6 -8.6 -1.8 -1.6 -3.8 -2.8 -4.5 -2.8 -0.7 0 -4.1 -2.3 -7.6 -5 -3.5 -2.7 -7.4 -5.2 -8.5 -5.6 -4.2 -1.3 -7.6 -5.5 -7.6 -9.6 0 -3.3 0.3 -3.8 2.3 -3.8 1.3 0 14.1 7.9 30.2 18.6 15.3 10.3 29.5 19.3 31.4 20.1 2 0.9 8.1 4.5 13.6 8.1 5.4 3.6 11.7 7.3 14 8.3 2.2 1 9.1 5.2 15.4 9.3 6.3 4.2 12 7.6 12.7 7.6 0.7 0 6.6 3.5 13.1 7.9 6.5 4.3 12.9 8.2 14.3 8.6 1.4 0.4 3.6 1.5 5 2.5 1.4 1 3.6 2.1 4.8 2.5 1.3 0.4 6.9 3.1 12.5 6.1 5.5 3 10.4 5.4 10.9 5.4 0.5 0 2.6 1.1 4.8 2.5 2.2 1.4 4.4 2.5 5 2.5 1.2 0 9.1 4.8 18.4 11.2 4.4 3 10.2 5.8 16.5 7.9 5.3 1.7 12.1 4.4 15.1 5.9 19.4 9.5 30.8 15.3 33.4 16.9 1.7 1 4.2 2.2 5.6 2.6 1.4 0.4 3.6 1.5 5 2.5 1.4 0.9 7 3.2 12.5 5 5.5 1.8 11.8 4.3 14 5.5 2.3 1.3 9 4 15 6.1 6.1 2 12.1 4.5 13.5 5.4 3.2 2.2 77.7 27 81.1 27 1.4 0 10 2.5 19 5.5 11.9 4 17.9 5.5 21.9 5.5 3.4 0 9.2 1.2 14.8 3 5.1 1.7 10.5 3 12.1 3 1.5 0 6.1 1.1 10.1 2.5 4.2 1.4 9.6 2.5 12.7 2.5 3.1 0 9.1 1.2 14.6 3 8.5 2.7 10.7 3 22.9 3 11.7 0 14.4 0.3 20.8 2.5 l7.4 2.5 69.7 0 69.8 0 6.9 -2.5 c5.3 -1.9 8.9 -2.5 15.4 -2.5 6.6 0 10.3 -0.6 17.6 -3 5.4 -1.7 11.5 -3 14.5 -3 2.9 0 8.7 -1.1 13 -2.5 4.3 -1.4 10.2 -2.5 13.1 -2.5 4.1 0 12.3 -2.3 35.2 -10 16.5 -5.5 32.4 -11.3 35.4 -12.9 3 -1.6 8.9 -3.9 13 -5.1 4.1 -1.2 9.5 -3.3 11.8 -4.7 2.4 -1.4 8.1 -3.7 12.7 -5.3 4.5 -1.5 10.5 -4.4 13.3 -6.3 2.8 -1.9 7.7 -4.4 10.9 -5.5 3.2 -1 9.6 -4.5 14.2 -7.6 4.6 -3.1 9 -5.6 9.7 -5.6 0.7 0 5.9 -3.1 11.7 -7 5.8 -3.8 12.2 -7.7 14.3 -8.7 8 -3.6 47.4 -30.4 54.1 -36.8 3.8 -3.5 9.8 -8.3 13.4 -10.6 3.5 -2.3 12 -9.6 18.9 -16.3 6.9 -6.8 15.7 -14.3 19.5 -16.8 10 -6.4 51.2 -47.5 58.9 -58.8 3.2 -4.7 9.8 -12.5 14.6 -17.5 4.8 -4.9 11 -12.4 13.8 -16.7 2.7 -4.2 8.8 -11.4 13.4 -16 4.6 -4.5 10.9 -12.1 14 -16.8 3 -4.7 6.8 -9.6 8.3 -11 1.5 -1.4 5.1 -6.1 8.1 -10.5 3 -4.4 7.5 -10.5 10.1 -13.6 2.7 -3.2 6.8 -9.6 9.2 -14.3 2.3 -4.8 6.4 -11 9 -13.9 5.6 -6.3 8.9 -11.1 13.3 -19.7 1.9 -3.6 7.9 -13.2 13.4 -21.3 5.4 -8.1 11.7 -18.3 13.9 -22.5 2.2 -4.2 6.1 -10.6 8.6 -14.2 2.5 -3.6 8.1 -13.7 12.4 -22.5 4.3 -8.8 10.8 -20.5 14.5 -26 3.7 -5.5 7.1 -11.1 7.5 -12.5 0.4 -1.4 1.5 -3.6 2.5 -5 0.9 -1.4 2.2 -4 2.8 -5.8 0.6 -1.8 2 -4.6 3.1 -6.1 1.1 -1.5 2.6 -4.8 3.2 -7.3 1.2 -4.4 1.1 -4.8 -3.2 -13.4 -6.4 -13 -43.9 -69.1 -50.1 -75 -2.8 -2.7 -7.5 -8.5 -10.4 -12.9 -6.5 -9.9 -38.9 -42.5 -47.9 -48 -3.3 -2.1 -8.9 -6.6 -12.5 -10.1 -6.5 -6.3 -66.7 -47.4 -69.5 -47.4 -0.7 0 -5.5 -2.8 -10.6 -6.1 -5.2 -3.4 -12 -7.1 -15.3 -8.2 -3.2 -1.1 -9.3 -4.3 -13.5 -7.2 -5.2 -3.6 -10.7 -6.3 -17.5 -8.5 -5.4 -1.8 -16.9 -6.8 -25.5 -11.2 -10.5 -5.4 -21.7 -10 -34.1 -14.2 -10.2 -3.5 -20.1 -7.3 -22 -8.4 -1.9 -1.1 -20.6 -7.7 -41.5 -14.6 -30.4 -10.1 -39.1 -12.6 -43.6 -12.6 -3.3 0 -8.5 -1 -12.9 -2.5 -6.8 -2.3 -8.7 -2.5 -26.5 -2.5 -18.6 0 -19.4 -0.1 -28 -3 l-8.9 -3 -23.8 0 -23.8 0 -8.7 3 c-8 2.8 -9.6 3 -22.8 3 -12.5 0 -15 0.3 -21.5 2.5 -4 1.4 -9.6 2.5 -12.4 2.5 -2.8 0 -8.7 1.1 -13 2.4 -4.3 1.4 -9.7 2.8 -12 3.1 -2.3 0.4 -7.7 1.7 -12.1 3 -4.4 1.3 -10.7 2.8 -14 3.4 -3.3 0.6 -8.9 2.6 -12.5 4.5 -7.7 4 -30.6 11.6 -35 11.6 -3.5 0 -7.1 1.7 -15 7 -3 2.1 -10 5.9 -15.5 8.5 -5.5 2.7 -17 9.6 -25.5 15.3 -9.4 6.3 -18.5 11.5 -23.1 13.3 -7.2 2.8 -8.3 3.6 -23.7 19.2 -9.3 9.3 -18.2 19.2 -20.8 23.2 -2.6 3.9 -7.5 9.9 -10.9 13.5 -9.1 9.4 -20.9 28 -31.9 50.2 -9.2 18.7 -17.6 40.9 -17.6 46.7 0 1.5 -1.1 6.1 -2.5 10.1 -1.4 4.1 -2.5 9.6 -2.5 12.5 0 3 -1.1 8.6 -2.7 13.1 -2.2 6.6 -2.7 10.2 -3 21.4 -0.4 12.5 -0.2 14.1 2.2 21.5 1.9 5.5 2.9 11.5 3.5 19 0.5 7 1.5 13.2 2.9 16.9 1.1 3.3 2.1 7.3 2.1 9.1 0 3.9 3.3 13.6 5.8 17.3 1.1 1.5 4.7 11.3 8.2 21.7 5.3 16 7.1 20.3 11.9 27.5 5.3 8 5.6 8.9 5.6 14.6 0 5.6 -0.3 6.5 -3.8 10.7 -2 2.5 -5.3 5.5 -7.3 6.7 -3.1 2 -4.4 2.2 -10.2 1.6 -3.7 -0.4 -8 -1.4 -9.7 -2.3 -1.6 -0.9 -4.8 -2.4 -7 -3.5 -2.2 -1 -4.9 -2.4 -6 -3 -1.1 -0.6 -8.3 -4.3 -16 -8.1 -7.7 -3.8 -14.9 -7.4 -16 -8 -5.6 -3 -29.3 -14.7 -29.9 -14.7 -0.4 0 -9.4 -5.8 -19.9 -12.8 -16 -10.6 -32.6 -20.2 -35.2 -20.2 -0.3 0 -18.5 -11.9 -40.5 -26.6 -35.6 -23.6 -40.7 -27.4 -47.9 -35 -9.7 -10.2 -11.1 -13.9 -11.1 -28.6 0 -15.2 4.5 -27 29.1 -76.6 20.5 -41.1 30.7 -58.5 40.9 -69.8 3 -3.4 5.5 -7.4 6.9 -11.5 2.6 -7.2 12.1 -22.6 19.1 -30.9 2.6 -3 7 -8.9 9.8 -13 2.8 -4.1 7.4 -9.7 10.2 -12.5 2.9 -2.7 7.6 -8.7 10.6 -13.2 7.2 -11 61.2 -65.1 72.4 -72.6 4.1 -2.7 10.4 -7.8 14 -11.2 3.9 -3.8 17.8 -13.7 35 -25.2 26.2 -17.4 31 -20.2 60 -34.5 17.3 -8.6 34.7 -16.6 38.5 -17.8 3.9 -1.3 9 -3.3 11.5 -4.6 6 -3.2 30.7 -11.4 34.2 -11.4 1.6 0 10.1 -2.5 19.1 -5.5 11.9 -4.1 17.7 -5.5 21.8 -5.5 3.3 0 8.5 -1 12.8 -2.5 4.7 -1.6 10.7 -2.6 17.4 -3.1 6.3 -0.4 13 -1.6 17.6 -3 7.1 -2.3 8.5 -2.4 37.6 -2.4 29.5 0 30.3 -0.1 37.5 -2.5 10 -3.4 19.4 -3.4 28.8 0 6.8 2.5 7.4 2.5 37.4 2.5 30.2 0 30.5 0 37.9 2.6 5.9 2.1 10.2 2.8 21.4 3.4 10.4 0.5 15.5 1.3 19.9 2.9 3.5 1.2 8.3 2.1 11.8 2.1 3.7 0 8.8 0.9 13.3 2.5 4 1.3 10 2.9 13.2 3.4 3.2 0.5 8.5 1.9 11.7 3 3.3 1.2 8.4 2.1 11.5 2.1 4.2 0 9.9 1.4 22 5.5 9 3 17.6 5.5 19.1 5.5 3.3 0 79.3 25.3 82.7 27.6 1.4 0.9 7.7 3.4 14.2 5.6 6.4 2.2 12.7 4.8 14.1 5.8 1.4 0.9 6.3 2.9 11 4.5 11.5 3.7 120.6 58 133.5 66.5 5.5 3.6 14.4 8.7 19.8 11.3 5.4 2.6 14.6 7.9 20.5 11.7 5.8 3.9 11.1 7 11.8 7 1 0 93.6 61.3 98.5 65.2 1.2 1 1.6 3.1 1.6 8.8 0 4.1 -0.1 6.5 -0.4 5.3 -0.2 -1.3 -1 -2.3 -1.6 -2.3 -0.7 -0.1 -3 -1.9 -5.2 -4.1 -2.2 -2.2 -5.5 -4.7 -7.4 -5.5 -1.9 -0.8 -5.3 -3 -7.6 -4.9 -2.3 -1.8 -7 -5 -10.4 -7 -3.4 -2 -7.7 -5 -9.5 -6.6 -1.9 -1.6 -3.8 -2.9 -4.4 -2.9 -1.2 0 -10.6 -6.4 -13.3 -9.1 -1 -1 -2.5 -1.9 -3.3 -1.9 -0.8 0 -4.6 -2.4 -8.5 -5.2 -3.9 -2.9 -9 -6.4 -11.3 -7.8 -2.2 -1.4 -5.9 -4 -8 -5.7 -2.2 -1.8 -4.5 -3.3 -5.2 -3.3 -0.6 0 -2.8 -1.1 -4.7 -2.4 -2 -1.4 -4.7 -2.8 -6 -3.1 -1.3 -0.3 -5.7 -3 -9.7 -6 -4 -2.9 -13.4 -8.4 -21 -12.1 -7.5 -3.7 -15.7 -8.3 -18.2 -10.3 -2.4 -2 -6 -4.4 -8 -5.4 -1.9 -1 -4.8 -2.4 -6.5 -3.3 -1.6 -0.8 -4.1 -2.1 -5.5 -2.9 -1.4 -0.8 -4.1 -2.2 -6 -3 -1.9 -0.9 -4.2 -2 -5 -2.5 -0.8 -0.6 -3.1 -1.7 -5 -2.6 -1.9 -0.9 -4.4 -2.1 -5.5 -2.7 -1.1 -0.6 -3.2 -1.7 -4.7 -2.4 -1.6 -0.7 -4 -1.9 -5.5 -2.6 -1.6 -0.7 -3.7 -1.8 -4.8 -2.4 -2.1 -1.2 -5.6 -3 -19 -9.5 -4.4 -2.2 -9.1 -4.6 -10.5 -5.4 -1.4 -0.9 -4.1 -2.2 -6 -3 -1.9 -0.8 -4.4 -2 -5.5 -2.6 -9.6 -5.4 -29.5 -14.6 -33.1 -15.2 -2.1 -0.4 -8.4 -3 -13.8 -5.7 -5.5 -2.7 -11.2 -4.9 -12.6 -4.9 -1.5 0 -4.7 -1.1 -7.2 -2.4 -2.4 -1.3 -5.5 -2.7 -6.9 -3.1 -1.3 -0.4 -3.4 -1.6 -4.7 -2.6 -1.3 -1 -4.9 -2.3 -8 -3 -3.1 -0.6 -7.3 -1.9 -9.2 -2.9 -1.9 -0.9 -5.2 -2 -7.2 -2.4 -2.1 -0.4 -6.2 -1.8 -9 -3.1 -2.9 -1.4 -6.4 -2.5 -7.8 -2.5 -1.4 0 -4.8 -1.1 -7.6 -2.4 -2.8 -1.3 -6.6 -2.7 -8.5 -3.1 -1.9 -0.4 -6 -1.8 -9.1 -3.1 -3.6 -1.5 -7.7 -2.4 -11.1 -2.4 -3.8 0 -6.8 -0.7 -9.9 -2.4 -2.5 -1.3 -6.4 -2.7 -8.8 -3.1 -2.3 -0.4 -6.6 -1.8 -9.4 -3.1 -4 -1.9 -6.8 -2.4 -13.2 -2.4 -6.7 0 -8.9 -0.4 -12.8 -2.5 -3 -1.6 -7.5 -2.8 -12.4 -3.4 -4.5 -0.5 -9.4 -1.7 -11.7 -3 -3.1 -1.6 -5.7 -2.1 -12 -2.1 -6.6 0 -9 -0.5 -13.5 -2.7 -5 -2.4 -7 -2.7 -20.5 -3.2 -12.5 -0.5 -15.6 -0.9 -18.5 -2.6 -3.3 -1.9 -5.9 -2 -38.5 -2.5 l-35 -0.5 -4 -2.5 c-3.4 -2.1 -5.2 -2.5 -12 -2.4 -6.6 0 -8.8 0.4 -12.5 2.4 -4.5 2.5 -4.7 2.5 -39 3 -32.3 0.5 -34.8 0.6 -37.5 2.5 -2.5 1.6 -5.4 2.1 -16 2.5 -10.9 0.5 -13.7 1 -17.5 3 -3.3 1.7 -7 2.5 -14.5 3 -7.2 0.5 -11 1.3 -13.5 2.8 -1.9 1.1 -5.5 2.3 -7.9 2.7 -2.4 0.4 -6.7 1.8 -9.5 3.1 -3.2 1.5 -7 2.4 -10.1 2.4 -3.1 0 -6.5 0.8 -8.8 2 -2.1 1.1 -6 2.5 -8.8 3.1 -2.7 0.6 -9 3.1 -13.8 5.5 -4.9 2.4 -11.6 5 -15 5.8 -3.3 0.8 -7.3 2.3 -9 3.5 -1.6 1.2 -3.3 2.1 -3.8 2.1 -0.4 0 -4.6 2 -9.3 4.4 -4.7 2.4 -10.1 5.1 -12 6 -3.5 1.8 -5.6 2.8 -8.7 4.6 -1 0.5 -3.4 1.6 -5.3 2.4 -1.9 0.8 -4.6 2.1 -6 2.9 -1.4 0.7 -5.4 2.8 -8.9 4.6 -3.5 1.9 -8.9 5.3 -12 7.6 -3.1 2.3 -7.1 5 -8.9 5.9 -1.8 1 -6 3.7 -9.2 6.2 -3.2 2.4 -6.2 4.4 -6.7 4.4 -0.5 0 -3.5 2 -6.8 4.5 -3.3 2.5 -7.6 5.2 -9.5 6.1 -1.9 0.9 -7.6 5.6 -12.6 10.5 -5.1 4.8 -11.5 9.9 -14.5 11.4 -4.1 2.1 -12.6 10 -35.6 33 -16.7 16.7 -30.3 30.9 -30.3 31.7 0 2.1 -8.1 12.6 -14.5 18.8 -3.1 3 -6.7 7.5 -8 10 -1.3 2.5 -5.4 8.2 -9.2 12.7 -3.7 4.4 -8.3 10.5 -10.1 13.5 -1.9 2.9 -4.5 6.8 -5.8 8.7 -1.3 1.9 -2.4 4.3 -2.4 5.5 -0.1 3.9 -3.7 10.2 -9.7 16.7 -3.2 3.5 -6.4 7.7 -7.1 9.2 -0.6 1.5 -3.1 5.3 -5.4 8.5 -2.4 3.1 -6.2 9.5 -8.5 14 -2.4 4.6 -5 9.3 -5.8 10.5 -0.8 1.2 -1.5 2.8 -1.5 3.7 0 0.8 -1.1 3.1 -2.3 5 -1.3 1.9 -2.9 5 -3.5 6.8 -0.6 1.8 -2 4.5 -3.2 5.9 -1.1 1.4 -2 3.3 -2 4.2 0 0.9 -1.1 3.2 -2.3 5.1 -1.3 1.9 -2.9 5 -3.5 6.8 -0.6 1.8 -2 4.5 -3.2 5.9 -1.1 1.4 -2 3.3 -2 4.2 0 0.9 -1.1 3.2 -2.4 5.1 -1.2 1.9 -2.8 5.2 -3.5 7.2 -0.7 2 -1.8 4.2 -2.6 4.8 -0.8 0.6 -1.9 3.7 -2.6 6.8 -0.6 3.1 -2.1 7.5 -3.2 9.7 -1.7 3.2 -2.2 6.3 -2.5 15.8 -0.2 6.4 -0.1 12.9 0.3 14.4 1 4 15.1 18 21.7 21.5 3.1 1.7 7.4 4.5 9.5 6.3 2.1 1.7 5.4 4 7.4 4.9 2 1 5.4 3.2 7.5 5 2.2 1.8 5.7 4.2 8 5.4 2.2 1.1 6.4 3.9 9.2 6.2 2.9 2.2 6.2 4.4 7.5 4.9 1.2 0.5 5.2 3.1 8.9 5.8 3.7 2.8 12.4 7.8 19.5 11.3 7 3.5 15.4 8.3 18.6 10.7 3.2 2.4 6.8 4.8 8 5.2 1.2 0.5 4.8 2.9 8 5.4 3.3 2.6 17.8 10.4 34.5 18.7 15.8 7.8 29.6 14.7 30.7 15.3 1.1 0.6 8 4.1 15.3 7.9 16.2 8.2 18.4 8.5 23.6 2.8 2.1 -2.3 3.6 -5 3.6 -6.5 0 -1.4 -1.9 -5 -4.4 -8.2 -5.2 -7 -11.1 -19.2 -12 -25.1 -0.3 -2.4 -1.3 -5.3 -2.1 -6.5 -0.8 -1.2 -2.1 -5.1 -3 -8.7 -0.9 -3.6 -2.4 -7.6 -3.4 -9 -1 -1.4 -2.2 -3.7 -2.6 -5 -0.4 -1.4 -1.5 -3.8 -2.5 -5.5 -1 -1.7 -2 -6.2 -2.4 -10.3 -0.4 -4.6 -1.5 -8.9 -2.8 -11.5 -1.9 -3.4 -2.4 -6.4 -2.8 -16.7 -0.5 -10.3 -1 -13.2 -2.8 -16.5 -2 -3.7 -2.2 -5.3 -2.2 -23 0 -17.7 0.2 -19.2 2.1 -22.5 1.7 -2.7 2.4 -5.9 2.9 -14 0.6 -8.1 1.2 -11.3 2.9 -14.1 1.4 -2.3 2.4 -6.2 2.8 -10.5 0.3 -3.8 1.4 -8.6 2.4 -10.6 1.1 -2.1 2.4 -6.1 3 -9 0.6 -2.9 1.7 -6.4 2.5 -7.8 0.7 -1.4 2 -4.1 2.8 -6 0.8 -1.9 2.2 -4.6 3 -6 0.8 -1.4 4.5 -8.8 8.2 -16.5 6.2 -12.8 10.7 -20.5 12.6 -21.3 0.4 -0.2 2.2 -3.1 4 -6.5 2 -3.7 7.1 -10.2 12.6 -15.9 5 -5.3 9.2 -10.2 9.2 -10.8 0 -2.6 6.8 -10.5 23.1 -26.9 19.1 -19.1 22.2 -21.5 29.1 -23 3 -0.7 7.2 -2.9 11.4 -6.1 3.7 -2.7 7.2 -5 7.9 -5 0.7 0 3.4 -1.8 6 -3.9 2.6 -2.1 12 -7.6 20.9 -12.1 8.8 -4.5 16.9 -9 17.8 -10.1 3.9 -4.1 10.2 -6.7 17.4 -7.1 4 -0.3 8.1 -1.2 9.5 -2.1 1.3 -0.9 5.2 -2.3 8.7 -3.2 3.4 -0.9 9.9 -3.5 14.4 -5.9 6.7 -3.4 9.8 -4.4 15.6 -4.9 4.5 -0.5 9.1 -1.6 12 -3.1 2.9 -1.4 7.2 -2.5 11.4 -2.8 4.1 -0.4 7.9 -1.3 9.5 -2.4 2 -1.2 5.8 -2 12.9 -2.5 7.6 -0.5 11.2 -1.3 14.5 -3 4 -2.1 6.2 -2.4 22.4 -2.9 15.7 -0.5 18.6 -0.9 22.5 -2.8 4.3 -2.1 5.8 -2.2 33.7 -2.2 28.9 0 29.1 0 34.5 2.5 5.1 2.4 6 2.5 26.8 2.5 21 0 21.6 0.1 27 2.6 4.2 2 7.9 2.7 15.7 3.3 6.3 0.5 11 1.3 12.5 2.3 1.3 0.8 4.7 2 7.6 2.7 2.9 0.6 6.9 1.9 9 3 2 1 5.4 2.1 7.5 2.4 2.1 0.3 5.7 1.5 8 2.6 2.3 1.1 6.4 2.5 9 3.1 2.7 0.6 6.5 1.9 8.5 2.9 2.1 1 5.4 2.1 7.5 2.4 2.1 0.3 6.2 1.7 9.2 3.1 2.9 1.4 5.8 2.6 6.2 2.6 0.5 0 2.4 1.1 4.3 2.5 1.9 1.4 4.5 2.5 5.9 2.5 1.4 0 5.3 1.2 8.6 2.6 3.3 1.3 8 2.9 10.5 3.4 4 0.8 13.3 4.7 20 8.5 1.4 0.8 3.9 2 5.5 2.8 1.7 0.8 6.5 3.3 10.7 5.5 4.2 2.2 9.6 4.3 11.9 4.7 6 1 19.5 7.7 25.2 12.4 3.1 2.6 6.2 4.2 9 4.6 5.2 0.9 8.2 2.4 13.6 6.9 2.4 2 4.8 3.6 5.5 3.6 0.7 0 2.7 1.1 4.5 2.4 1.9 1.4 4.5 2.8 6 3.1 1.5 0.3 4.9 2.3 7.6 4.5 2.8 2.2 7 5 9.5 6.4 2.5 1.3 7.2 4.5 10.4 7 3.3 2.5 6.5 4.6 7.2 4.6 0.7 0 3.6 2 6.6 4.3 2.9 2.4 6.9 5.2 8.8 6.2 5.4 2.8 12.9 8.8 19 15 3 3.2 7.5 6.6 10 7.7 6.1 2.6 50.7 47.2 53.8 53.8 1.1 2.5 5.9 8.4 10.5 13.2 4.6 4.7 9.5 10.8 10.8 13.5 1.4 2.6 4.4 7.3 6.8 10.3 2.4 3 4.7 6.4 5.2 7.6 0.4 1.2 2.8 4.9 5.2 8.1 2.4 3.2 5.2 7.4 6.2 9.3 1 1.9 3.2 5.3 5 7.5 1.8 2.2 6.3 10.2 10 17.7 5 10.3 6.5 14.2 6 16 -1.6 5.1 -18.1 37.5 -21.3 41.7 -4.2 5.4 -6.6 9.7 -14.7 26.1 -7.2 14.5 -10.3 20.2 -13.5 24.1 -1.7 2.2 -5.3 8.3 -8 13.7 -2.7 5.3 -6.8 11.9 -9 14.6 -2.2 2.6 -4 5.4 -4 6 0 0.7 -2.4 4.5 -5.4 8.5 -3 3.9 -7.1 10.7 -9.2 14.9 -3.9 8.1 -7.2 12.8 -13.9 20.2 -2.2 2.5 -6.2 8.9 -8.9 14.3 -3.1 6 -7.1 12.2 -10.6 16 -3.1 3.4 -6.8 8.3 -8.4 11 -1.5 2.6 -5.3 7.5 -8.4 11 -3.1 3.4 -6.8 8.4 -8.2 11.2 -1.5 2.9 -6.8 9.3 -13.2 15.7 -6.1 6.2 -11.9 13.1 -13.5 16.1 -1.6 2.9 -7.9 10.4 -14.4 17.2 -6.4 6.6 -12 13.1 -12.4 14.5 -1.2 4 -9.3 13 -35 38.5 -18.1 18 -25.6 24.8 -30.1 27.2 -4 2.2 -9.8 7.1 -17.9 15.3 -11.5 11.6 -18.1 17.1 -22.2 18.4 -1.1 0.3 -5.5 4.1 -9.9 8.4 -7.3 7.1 -10.5 9.6 -19 14.8 -5.2 3.2 -15.6 10.1 -21.8 14.6 -3.3 2.4 -9.6 6.1 -14 8.4 -4.5 2.2 -10.9 6.1 -14.3 8.7 -3.4 2.6 -7.7 5.3 -9.5 5.9 -1.8 0.6 -4.4 1.9 -5.8 2.8 -1.4 1 -3.5 2.1 -4.8 2.4 -1.2 0.4 -3.7 2.1 -5.5 3.7 -4.2 3.9 -7.4 5.6 -13.3 6.9 -2.7 0.6 -6 2.2 -7.4 3.5 -3.3 3.1 -11.7 7.5 -14.4 7.5 -1.1 0 -5.2 1.5 -9.1 3.4 -11.6 5.7 -15.8 7.4 -19.9 8.1 -2.1 0.4 -7.8 2.7 -12.6 5.1 -4.9 2.4 -11.2 4.9 -14.1 5.5 -2.9 0.6 -6.6 2 -8.3 3 -1.7 1 -5.1 2.1 -7.6 2.5 -2.5 0.4 -6.2 1.5 -8.2 2.5 -2.1 1.1 -6.1 2.4 -9 3 -2.9 0.6 -6.6 1.9 -8.3 2.9 -2.1 1.2 -5.9 1.9 -12.5 2.2 -7.8 0.4 -10.4 1 -14.5 3.1 -4.3 2.3 -6.2 2.7 -13.6 2.7 -7.3 0 -9.3 0.4 -13.4 2.5 -4.2 2.3 -6.2 2.6 -16.4 2.9 -10.2 0.2 -12.3 0.6 -17.2 2.9 l-5.6 2.7 -72.4 0 -72.4 0 -5.1 -2.5z"/>
  <path d="M592.6 1190.4 c-5.8 -2 -8.9 -2.4 -18.1 -2.4 -9.8 0 -12.3 -0.4 -20.1 -3 -5.6 -1.9 -11 -3 -14.5 -3 -3.3 0 -8.5 -1 -13 -2.5 -4.1 -1.4 -11.2 -3 -15.9 -3.4 -5.8 -0.6 -12.7 -2.3 -22 -5.5 -7.4 -2.5 -14.8 -4.6 -16.3 -4.6 -1.6 0 -10.4 -2.4 -19.5 -5.4 -9.2 -3 -18.5 -5.8 -20.7 -6.1 -6.1 -1 -28.5 -8.5 -33 -11.1 -2.2 -1.2 -12.2 -4.9 -22.2 -8.2 -10 -3.4 -20.1 -7.2 -22.5 -8.5 -2.4 -1.4 -8.6 -3.9 -13.9 -5.6 -5.2 -1.7 -13.5 -5.2 -18.5 -7.9 -4.9 -2.7 -12.6 -6.1 -17 -7.6 -4.5 -1.5 -10.4 -4.2 -13 -6.1 -2.7 -1.9 -8.4 -4.7 -12.7 -6.1 -6.6 -2.2 -15.8 -6.4 -24.2 -11.2 -1.1 -0.6 -6 -3 -10.9 -5.3 -4.9 -2.3 -12.5 -6.6 -16.9 -9.7 -4.5 -3 -13.5 -8.2 -20.1 -11.5 -6.7 -3.3 -15.5 -8.3 -19.6 -11.2 -4.1 -2.8 -12.4 -7.6 -18.5 -10.5 -16.3 -7.9 -52 -32.3 -60.3 -41.1 -3.7 -3.9 -10.9 -9.9 -16 -13.4 -5.1 -3.4 -12.9 -9.7 -17.2 -14 -7.6 -7.3 -8 -8 -8.6 -13 -0.5 -3.6 -0.3 -5.5 0.6 -6 0.7 -0.5 5.4 3.5 12.9 10.9 6.5 6.4 12.3 11.6 13 11.6 2.3 0 8.3 4.8 19.4 15.5 6 5.9 12.5 11.3 14.2 12.1 1.8 0.7 5.4 3.1 8.2 5.2 2.7 2.2 6.5 4.7 8.4 5.7 1.9 1 5.3 3.2 7.5 5.1 2.3 1.8 6.1 4.4 8.5 5.7 2.4 1.3 5.3 2.8 6.4 3.5 1.1 0.6 5.8 2.9 10.5 5.2 4.7 2.2 11 5.9 14 8.2 3 2.3 11.9 7.4 19.7 11.3 7.8 3.9 16.6 9 19.6 11.3 3 2.3 5.8 4.2 6.4 4.2 0.6 0 2.2 0.9 3.6 2 1.4 1.2 4.1 2.6 5.9 3.2 1.8 0.6 4.4 1.9 5.8 2.8 1.4 1 4.2 2.3 6.2 2.9 2 0.7 4.2 1.8 4.8 2.6 0.6 0.8 2.8 1.9 4.8 2.6 2 0.6 4.9 2 6.4 3.1 1.5 1 5.3 2.4 8.5 3 5.5 1.1 12.3 4.8 16.5 9 1 1 3 1.8 4.4 1.8 2.3 0 14.7 4.7 18.4 7 5.2 3.2 18.2 9.1 22.3 10 2.6 0.5 6.4 1.9 8.5 3 2 1.1 4.2 2 4.8 2 0.6 0 2.3 0.9 3.7 2 1.4 1.1 5.5 2.7 9.2 3.5 3.7 0.9 7.8 2.3 9.1 3.2 1.4 0.9 4.5 1.9 6.9 2.4 2.5 0.5 6.9 2 9.8 3.4 3 1.4 5.7 2.5 6.1 2.5 0.5 0 2 0.9 3.6 2 1.5 1.1 5.2 2.5 8.1 3.1 3 0.6 7.2 2.1 9.4 3.2 2.2 1.1 6.9 2.2 10.5 2.5 4 0.3 8.3 1.4 11.2 2.8 2.6 1.3 6 2.4 7.6 2.4 1.6 0 5.1 1.1 7.8 2.5 3.2 1.7 7.3 2.8 11.9 3.2 4.5 0.4 8.6 1.4 11.5 2.9 2.5 1.3 5.6 2.4 7 2.4 1.4 0 5 1.2 8 2.6 4.3 2.1 7.8 2.8 15.6 3.3 7.4 0.5 10.9 1.2 13 2.6 2 1.3 5.8 2.1 13.1 2.7 7.5 0.5 11.4 1.4 14.5 3 3.7 1.9 6.4 2.3 19.8 2.8 13.9 0.5 16 0.8 20 3 l4.5 2.5 80.5 0 80.5 0 6 -2.7 c5.1 -2.3 7.7 -2.7 17.5 -3.1 9.7 -0.3 12.2 -0.7 16 -2.8 3.5 -1.8 6.6 -2.5 14 -2.9 6.5 -0.4 10.6 -1.1 13 -2.4 1.9 -1 6.7 -2.2 10.6 -2.7 4 -0.4 9 -1.7 11.2 -2.8 2.2 -1.1 6 -2.3 8.4 -2.7 2.3 -0.3 5.8 -1.5 7.7 -2.6 1.8 -1 5.6 -2.4 8.5 -3 2.8 -0.6 6.7 -1.9 8.6 -2.8 2 -1 5.4 -2.1 7.5 -2.5 2.2 -0.4 11.3 -4.2 20.1 -8.6 8.9 -4.3 17.3 -7.9 18.6 -7.9 3.3 0 36 -16.5 42.8 -21.6 3 -2.3 7.1 -4.9 9 -5.9 1.9 -0.9 4.6 -2.8 6 -4 1.4 -1.3 5.3 -4.1 8.7 -6.2 3.3 -2.1 8.8 -5.7 12.2 -8 3.3 -2.4 6.5 -4.3 7 -4.3 0.5 0 3.1 -1.8 5.7 -4 2.7 -2.2 6.6 -4.9 8.8 -5.9 2.1 -1.1 8.4 -6.4 14 -11.9 9.7 -9.5 19.6 -17.2 22 -17.2 0.6 0 13.6 -12.5 28.8 -27.7 20.7 -20.9 28.3 -29.1 30.2 -33 1.4 -2.9 5.2 -8.1 8.5 -11.5 3.2 -3.5 6.6 -8 7.4 -10.1 1 -2.2 7.6 -9.8 16.7 -19.1 8.2 -8.4 15 -15.7 15 -16.3 0 -1.6 6.8 -11.2 11.2 -15.7 2.2 -2.3 4.9 -5.9 6 -8.1 1.1 -2.2 3.7 -6 5.7 -8.5 2.1 -2.5 4.4 -5.8 5.3 -7.5 7.5 -14.6 10.2 -19.3 12.2 -21.5 1.3 -1.4 3.2 -4.1 4.1 -6 1.7 -3.4 6.3 -10 7.6 -11 0.4 -0.3 1.8 -2.5 3.1 -5 1.3 -2.5 2.9 -5.4 3.5 -6.5 1.3 -2.4 5 -9.8 7 -14 0.8 -1.6 1.9 -3.9 2.5 -5 0.7 -1.1 1.7 -3.1 2.4 -4.5 6.6 -13.8 8.8 -18 10.4 -21 2.2 -3.8 2.6 -10.9 0.9 -14.2 -0.6 -1.1 -14.4 -15.3 -30.7 -31.5 -20.3 -20.1 -31.2 -30.2 -34.5 -31.9 -2.7 -1.4 -9.3 -6.7 -14.7 -11.9 -5.4 -5.2 -10.5 -9.5 -11.2 -9.5 -0.8 0 -4.3 -2.1 -7.7 -4.7 -3.5 -2.7 -8 -5.6 -10 -6.7 -2 -1 -6 -3.8 -9 -6.2 -2.9 -2.4 -5.8 -4.4 -6.5 -4.4 -1.2 0 -10.6 -6.4 -11.6 -7.9 -0.3 -0.5 -2.5 -1.8 -5 -3.1 -2.5 -1.2 -6.6 -3.9 -9.1 -6 -2.5 -2.1 -6.1 -4.5 -8 -5.4 -1.9 -0.9 -4.1 -2 -4.9 -2.5 -0.8 -0.6 -3.5 -2 -6 -3.2 -11 -5.2 -14.6 -7.3 -19.8 -11.1 -3.4 -2.5 -7.3 -4.5 -10.1 -5 -2.5 -0.4 -6.1 -2 -8.1 -3.3 -1.9 -1.4 -5 -3.7 -6.9 -5 -1.9 -1.4 -4.6 -2.5 -6.1 -2.5 -1.5 0 -4.8 -1.1 -7.4 -2.5 -2.6 -1.4 -5.2 -2.5 -5.8 -2.5 -0.7 0 -2.8 -1.1 -4.7 -2.4 -2 -1.3 -6 -2.9 -8.9 -3.5 -2.9 -0.6 -7 -2 -9.2 -3.1 -4.7 -2.4 -9.3 -2.6 -11.1 -0.4 -0.8 0.9 -1.3 3.8 -1.2 6.9 0.2 5.9 3.5 12.7 11.1 22.7 2.3 3.1 4.8 7.2 5.4 9 0.6 1.8 2.2 4.9 3.5 6.8 1.2 1.9 2.3 3.9 2.3 4.5 0 0.6 0.9 2.6 1.9 4.6 1.1 2 2.3 5.4 2.6 7.5 0.4 2.2 4.2 11.1 8.5 19.9 4.3 8.8 8.1 18 8.5 20.4 0.4 2.4 1.5 5.8 2.5 7.5 1 1.7 2.1 6.3 2.5 10.1 0.4 4 1.5 8.7 2.8 11 1.6 3.2 2.2 6.6 2.7 16.5 0.6 9.6 1.2 13.5 2.8 17 2 4.2 2.2 6.1 2.2 29.4 0 23.7 -0.1 25 -2.1 28.3 -1.7 2.7 -2.3 5.8 -2.9 13.8 -0.4 7.1 -1.1 11.1 -2.3 12.8 -0.9 1.5 -2.2 5 -2.8 7.9 -0.6 2.9 -1.9 6.9 -2.9 8.8 -1 1.9 -2.3 5.9 -2.9 8.8 -0.9 4.4 -8.7 21.7 -13.9 30.7 -0.6 1.1 -1.8 3.6 -2.7 5.5 -0.8 1.9 -3.2 5.8 -5.3 8.5 -2.1 2.8 -5.1 7.3 -6.6 10.1 -3.6 6.7 -56 58.9 -63.1 63 -2.7 1.6 -7.9 5 -11.4 7.6 -3.5 2.7 -6.9 4.8 -7.6 4.8 -0.7 0 -3.5 1.8 -6.1 4 -6.4 5.3 -41.5 22.6 -47.4 23.4 -2.5 0.4 -5.9 1.5 -7.5 2.6 -1.7 1.1 -7.9 4.4 -14 7.4 -8.7 4.2 -12.5 5.5 -17.9 6 -3.7 0.4 -8.6 1.6 -10.7 2.6 -2.1 1.1 -6.2 2.5 -9.1 3.1 -2.9 0.6 -6.9 1.9 -8.8 2.9 -1.9 0.9 -6.5 2 -10.2 2.3 -3.9 0.4 -8.5 1.5 -11 2.8 -3.1 1.6 -7 2.4 -13.8 2.9 -6.5 0.5 -10.8 1.4 -13.5 2.7 -3.3 1.7 -6.5 2.1 -19 2.5 -13.9 0.4 -15.4 0.7 -19.9 3.1 l-4.9 2.7 -53.6 0 -53.6 0 -5 -2.5 c-5.8 -2.8 -10.1 -3.1 -13.3 -0.9 -1.5 1 -3.5 1.4 -5.5 1.1 -5.9 -1 -17.2 -4.4 -20.7 -6.2 -2.3 -1.2 -6.9 -2 -13.5 -2.5 -7.8 -0.5 -10.8 -1.2 -13.7 -2.9 -2.9 -1.8 -5.8 -2.4 -13.5 -2.8 -7 -0.4 -11 -1.2 -13.8 -2.6 -2.2 -1.1 -7.2 -2.3 -11 -2.7 -5.5 -0.5 -9.1 -1.7 -16.3 -5.3 -5 -2.5 -11.5 -5 -14.4 -5.6 -2.9 -0.6 -6.7 -2 -8.3 -3.1 -1.7 -1.1 -4.3 -2 -5.8 -2 -1.6 0 -5.2 -1.1 -8.1 -2.5 -2.9 -1.4 -7.6 -2.9 -10.4 -3.5 -2.8 -0.5 -6.8 -1.8 -8.9 -3 -2.1 -1.1 -4.2 -2 -4.6 -2 -0.5 0 -2.2 -0.9 -3.8 -2 -1.5 -1.2 -4.3 -2.6 -6.1 -3.2 -1.8 -0.6 -4.4 -1.9 -5.8 -2.8 -1.4 -0.9 -4.1 -2.3 -6 -3 -1.9 -0.7 -4.2 -1.9 -5.1 -2.7 -0.8 -0.7 -3.1 -1.8 -5 -2.4 -1.9 -0.7 -4.5 -2 -5.9 -2.9 -1.4 -0.9 -3.9 -2.2 -5.7 -2.8 -1.7 -0.6 -6 -3.2 -9.5 -5.9 -3.5 -2.7 -12.9 -8.2 -21 -12.2 -8.1 -4.1 -16.4 -8.8 -18.5 -10.6 -2.1 -1.7 -6.2 -4.4 -9.1 -6 -2.9 -1.6 -9 -6.4 -13.5 -10.8 -4.5 -4.3 -9.5 -8.5 -11.2 -9.4 -5.5 -3 -12.9 -9 -21 -17.3 -4.4 -4.5 -10.2 -9.3 -12.9 -10.7 -6.1 -3.1 -14.2 -11.1 -16.2 -16.1 -1 -2.3 -8.5 -10.7 -20.9 -23.2 -11.1 -11.3 -20.4 -21.6 -22.1 -24.5 -1.5 -2.7 -5.7 -8.4 -9.2 -12.5 -3.6 -4.1 -7.2 -9.1 -8.1 -11 -0.9 -1.9 -3.5 -5.9 -5.9 -8.9 -2.4 -3 -4.9 -6.9 -5.7 -8.8 -0.8 -1.8 -3.2 -5.5 -5.3 -8.1 -2.2 -2.6 -6.7 -10.4 -10.1 -17.4 -7 -14.7 -7.6 -18.8 -3.7 -26.6 1.8 -3.6 2.4 -6.9 2.8 -14.4 0.4 -7 1 -10.5 2.3 -12.4 1 -1.5 2.4 -5.4 3.1 -8.6 0.8 -3.2 2.2 -7.5 3.3 -9.6 1 -2 2.1 -5.5 2.4 -7.8 0.4 -2.3 2.9 -8.5 5.7 -14 2.7 -5.4 5 -11 5 -12.4 0 -1.4 1.1 -4.8 2.4 -7.5 1.2 -2.8 2.6 -6.8 3 -9 0.8 -3.9 4.2 -12.4 7.2 -17.5 0.8 -1.4 3.2 -6.3 5.5 -11 2.2 -4.7 4.7 -9.6 5.5 -11 0.8 -1.4 3.2 -6.3 5.5 -11 2.2 -4.7 4.5 -9.4 5.1 -10.5 0.6 -1.1 2.6 -5 4.5 -8.6 1.8 -3.6 4.8 -8.3 6.6 -10.5 1.8 -2.1 5.2 -7.9 7.6 -12.7 2.4 -4.8 6.3 -11.3 8.7 -14.4 2.4 -3.1 4.4 -6.2 4.4 -6.8 0 -0.6 2.2 -3.8 4.9 -7.2 2.7 -3.3 5.2 -7 5.6 -8.2 0.4 -1.2 2.9 -5.1 5.5 -8.6 2.7 -3.6 5.7 -8.1 6.6 -10.1 1 -2.1 5.7 -7.8 10.4 -12.8 4.8 -5 10 -11.6 11.6 -14.6 1.8 -3.4 7.3 -9.9 14.1 -16.9 6.8 -6.9 12.1 -13.2 13.4 -16 3 -6.3 24.7 -28 31.4 -31.4 3.3 -1.6 9.5 -7.1 18.5 -16.2 13.6 -13.7 20.5 -19.7 27 -23 1.9 -1 7.6 -5.7 12.6 -10.5 5 -4.7 11.1 -9.6 13.5 -10.7 2.4 -1.2 6 -3.8 7.9 -5.8 3.6 -3.8 14.2 -11.5 15.8 -11.5 0.6 0 3.2 -1.8 5.8 -4.1 2.7 -2.2 6.6 -4.9 8.7 -6 2.1 -1.1 6.5 -4 9.7 -6.5 3.2 -2.5 7.4 -5 9.2 -5.6 1.7 -0.6 4.7 -2.2 6.5 -3.4 1.9 -1.2 4.7 -2.5 6.3 -2.9 1.6 -0.3 3.4 -1.3 4 -2 0.6 -0.8 2.8 -1.9 4.8 -2.6 2 -0.6 4.9 -2 6.4 -3 1.4 -1.1 3 -1.9 3.5 -1.9 0.5 0 3.6 -2.1 6.9 -4.6 6.9 -5.4 28.5 -16 35.8 -17.6 2.8 -0.7 6.7 -2.2 8.6 -3.5 1.9 -1.3 4.2 -2.3 5 -2.3 0.8 0 3.2 -1.1 5.2 -2.5 2 -1.4 4.1 -2.5 4.5 -2.5 0.5 0 2.9 -1.1 5.5 -2.5 2.5 -1.3 6.5 -2.8 8.9 -3.1 2.3 -0.4 8.6 -2.9 13.8 -5.6 5.2 -2.6 11.1 -5.1 13.1 -5.4 1.9 -0.3 6 -1.6 9.1 -3 3.1 -1.3 6.7 -2.4 7.9 -2.4 1.2 0 4.8 -1.1 7.9 -2.4 4.5 -2 7.7 -2.5 16.6 -2.9 10.8 -0.3 11.2 -0.4 21.5 -5.4 8.1 -3.8 12 -5.1 17 -5.6 3.8 -0.3 8.8 -1.6 12 -3.1 4.3 -2 7.1 -2.6 12.9 -2.6 5.6 0 8.7 -0.6 13 -2.4 4.6 -2 7.7 -2.5 17.1 -2.9 9.8 -0.3 12.2 -0.7 16 -2.8 4.5 -2.4 4.8 -2.4 39 -2.9 33.4 -0.5 34.6 -0.6 38.7 -2.7 4.1 -2.2 5 -2.3 33.7 -2.3 29.2 0 29.4 0 34.8 2.5 5.2 2.4 5.8 2.5 30.1 2.5 l24.8 0 5.2 2.7 c4.7 2.4 6.4 2.7 19.2 3 12.1 0.4 14.8 0.8 19.6 2.9 4.4 1.9 7.4 2.4 13.4 2.4 6.3 0 8.8 0.5 13.4 2.6 4.2 2 7.6 2.8 14 3.1 6.1 0.3 10.2 1.2 14.2 2.9 3.4 1.4 7.6 2.4 10.5 2.4 3.1 0 6.9 0.9 10.2 2.5 2.9 1.3 8.3 2.8 12 3.1 3.7 0.4 9 1.8 11.7 3.1 2.8 1.2 6.1 2.3 7.5 2.3 1.4 0 4.5 1.1 7 2.4 2.5 1.3 6.5 2.6 8.8 3 2.4 0.4 6 1.5 8 2.5 2.1 1 6.2 2.4 9.2 3 3 0.7 6.5 1.8 7.7 2.6 1.2 0.9 4.6 2 7.5 2.6 2.9 0.6 9.6 3.3 14.9 5.9 5.2 2.6 11.3 5 13.3 5.3 2.1 0.3 5.5 1.5 7.5 2.5 2 1.1 5.7 2.3 8.1 2.7 5.6 0.9 115.2 55.2 123 61 5.9 4.3 9.5 6.5 15 9 6.4 2.9 7.7 3.7 13.1 7.8 3 2.2 9.7 6.3 14.9 9 5.2 2.6 11 6.1 12.9 7.5 1.8 1.5 5.2 3.7 7.4 4.9 2.2 1.3 6 4 8.5 6 2.6 2.1 6.2 4.5 8.2 5.4 1.9 0.9 7.2 4.9 11.8 8.8 4.6 3.9 8.8 7.1 9.3 7.1 1.4 0 10.9 7.2 14.4 11 1.7 1.7 5 4.2 7.5 5.5 4.5 2.3 10.2 7 19.2 15.9 2.5 2.5 6.8 5.5 9.4 6.7 2.6 1.3 7.8 5.2 11.5 8.6 7.2 6.8 12.5 9.4 13.1 6.5 0.2 -0.9 0.4 1.1 0.5 4.6 l0.1 6.2 -3.2 0 c-3.5 0 -9 -3.3 -15.1 -9 -2.2 -2.1 -7.8 -6.2 -12.5 -9.3 -4.7 -3 -10.1 -7.4 -12 -9.7 -1.9 -2.3 -7.8 -7 -13 -10.5 -5.2 -3.4 -10.4 -7.3 -11.5 -8.5 -1.1 -1.2 -5.4 -4.5 -9.5 -7.3 -4.1 -2.7 -9.3 -6.7 -11.6 -8.7 -5 -4.6 -46.9 -32.4 -50.4 -33.5 -1.4 -0.4 -7.8 -4.3 -14.3 -8.6 -6.6 -4.4 -12.4 -7.9 -13.1 -7.9 -0.7 0 -6 -3.1 -11.9 -7 -9.9 -6.4 -17.9 -10.7 -40.7 -21.9 -4.7 -2.3 -9.3 -4.7 -10.3 -5.2 -1 -0.6 -3.7 -1.9 -6 -3 -3.9 -1.9 -5.7 -2.9 -9.7 -5 -0.8 -0.5 -8 -4 -15.9 -7.9 -7.9 -3.8 -14.9 -7.4 -15.5 -7.8 -0.6 -0.5 -2.7 -1.5 -4.6 -2.2 -1.9 -0.7 -4.6 -2.1 -6 -3 -1.4 -1 -11 -4.6 -21.5 -8 -10.4 -3.5 -20.7 -7.4 -23 -8.6 -5.4 -3 -78.1 -27.4 -81.6 -27.4 -1.6 0 -6.3 -1.1 -10.6 -2.5 -4.3 -1.4 -8.9 -2.5 -10.2 -2.5 -1.3 0 -6.6 -1.4 -11.8 -3 -5.6 -1.8 -11.5 -3 -14.7 -3 -3.1 0 -8.5 -1.1 -12.8 -2.5 -4.3 -1.5 -9.6 -2.5 -12.9 -2.5 -3.6 0 -9 -1.1 -14.7 -3 -7.9 -2.6 -10.6 -3 -20 -3 -8.9 0 -12.1 -0.4 -18.2 -2.5 -7 -2.4 -8.5 -2.5 -29.1 -2.5 -21.2 0 -21.8 -0.1 -31.4 -3 -9.6 -3 -10 -3 -33 -3 -23.1 0 -23.3 0 -32.6 3 l-9.4 3 -30.1 0 c-29.4 0 -30.2 0.1 -37.4 2.5 -5.4 1.8 -9.4 2.5 -15.3 2.5 -6.1 0 -10.2 0.7 -17.4 3 -5.6 1.8 -11.4 3 -14.6 3 -2.8 0 -8.8 1.1 -13.2 2.4 -4.4 1.4 -10.6 2.9 -13.9 3.5 -3.2 0.6 -9.7 3 -14.4 5.3 -8.2 4.1 -9.1 4.3 -20.2 4.9 -10.8 0.6 -12.7 1.1 -32 7.6 -11.3 3.9 -22.1 8 -24 9.2 -1.9 1.1 -7.7 3.5 -12.9 5.2 -5.1 1.6 -13.9 5.4 -19.5 8.3 -5.5 2.9 -14.6 6.8 -20.1 8.6 -5.5 1.8 -11.6 4.4 -13.5 5.7 -1.9 1.2 -4.2 2.3 -5.1 2.3 -0.9 0 -5.6 2.8 -10.5 6.2 -4.9 3.4 -17 10.3 -26.9 15.3 -17.7 8.9 -53.9 31.9 -61.5 39 -1.9 1.8 -6.4 5.2 -10 7.5 -3.6 2.4 -9.6 7.3 -13.5 11 -3.8 3.6 -10.4 8.8 -14.5 11.4 -4.6 3 -13.2 10.5 -22.1 19.3 -8.1 8 -17.7 16.5 -21.5 19 -9.3 6.1 -20.6 17.3 -26.1 25.8 -2.4 3.9 -8.4 11.1 -13.3 16 -4.8 5 -11.1 12.6 -14 17 -2.9 4.4 -8.1 10.9 -11.5 14.5 -6.7 6.8 -42.2 58.9 -45.8 67 -1.1 2.5 -5 9 -8.6 14.5 -3.7 5.5 -10.9 18.6 -16 29 -5.1 10.5 -9.8 19.9 -10.4 21 -7 13.2 -10.5 21.3 -15.3 35.8 -3.1 9.5 -6.5 18.8 -7.7 20.7 -1.1 1.9 -5.3 13.3 -9.3 25.3 -5.7 17 -7.4 23.2 -7.4 27.5 0 3.5 -1 8.8 -2.6 13.6 -3.1 9.2 -2.8 10.8 3.8 24.1 4.8 9.4 28.5 45.5 33.3 50.5 1.8 1.9 6 7.6 9.3 12.5 4.2 6.3 10.8 13.7 21.7 24.5 8.6 8.5 17.8 18.7 20.5 22.5 5.3 7.7 7.6 10 13.5 13.5 2.2 1.3 8.5 6.7 14 12 5.5 5.3 13.2 11.7 17 14.2 3.9 2.5 9.7 7.2 13 10.5 5.1 5 32.2 24.3 34.1 24.3 1.7 0 19.1 9.4 26 14.1 4.4 2.9 18.9 10.9 32.4 17.6 21.5 10.9 27.5 13.4 48.3 20.3 13.1 4.4 27.9 9.8 32.8 12 5 2.4 11.7 4.6 15.5 5.2 3.6 0.5 9.8 2.1 13.7 3.4 4 1.4 9.4 2.4 12.5 2.4 3.3 0 8.2 1 12.4 2.5 4.4 1.6 9 2.5 12.9 2.5 4.4 0 9.3 1.1 18.9 4.4 12.6 4.3 13.2 4.4 22.3 3.9 6.9 -0.4 10.7 -0.2 14.9 1.1 4.9 1.4 12.3 1.6 55 1.6 l49.4 0 7.4 -2.5 c6.1 -2.1 9.2 -2.5 18.3 -2.5 9.5 0 12.3 -0.4 20.4 -3 5.5 -1.8 11.5 -3 14.6 -3 3.1 0 8.5 -1.1 12.7 -2.5 4 -1.4 8.7 -2.5 10.2 -2.5 1.6 0 9.8 -2.3 18.1 -5.1 8.4 -2.8 18.1 -5.5 21.7 -6 4.7 -0.7 10.3 -2.8 20.5 -7.8 7.7 -3.8 17.2 -7.9 21 -9.1 12.5 -3.9 31.5 -14 53 -28.3 21 -13.9 21 -14 44.8 -37.6 21.5 -21.2 24.7 -24.9 32.1 -36.1 12.6 -19.3 19.8 -34.5 28.2 -59.5 5.7 -16.9 7.4 -23.3 7.4 -27.7 0 -3.3 1 -8.6 2.5 -13 2.3 -6.7 2.5 -8.7 2.5 -25.7 0 -17.7 -0.1 -18.7 -3 -27.8 -2.3 -7.3 -3 -11.1 -3 -17.6 0 -6.3 -0.6 -10.2 -2.5 -15.7 -1.4 -4 -2.5 -8.7 -2.5 -10.4 0 -4.9 -7.5 -25.8 -13.9 -38.6 -3.2 -6.4 -7.1 -15.4 -8.6 -20 -3.7 -11 -9.6 -22.7 -16.3 -32.4 -10 -14.3 -12.6 -25 -8.2 -33.7 3.1 -6 7.2 -8.1 14.5 -7.5 6.5 0.6 24.7 6.3 29.8 9.5 1.8 1 6.7 3.1 11.1 4.5 4.3 1.4 10.2 4.1 13 6.1 2.8 1.9 7.8 4.4 11.1 5.6 3.3 1.1 9.2 4.2 13 6.8 3.9 2.7 11.5 7 17 9.6 13.6 6.6 83 52.8 91.1 60.7 3.3 3.3 9.3 8.1 13.3 10.7 10.3 6.7 68.6 64.8 71.2 70.9 3.8 8.7 2.5 12.8 -13.9 45.4 -8.9 17.4 -16.3 30.5 -24 41.9 -6.1 9.2 -11.8 18.3 -12.6 20.4 -2 4.8 -16.9 26.8 -21.6 32 -2 2.3 -6.2 7.9 -9.2 12.5 -3.3 5.1 -9.9 12.8 -16.3 19 -5.8 5.8 -12.7 13.7 -15.2 17.5 -2.5 3.9 -6.2 8.8 -8.3 11 -2 2.2 -6.1 7.6 -9 12 -3.7 5.7 -12.7 15.5 -31.4 34.3 -20.9 21.1 -28 27.6 -35.6 32.7 -5.3 3.5 -12.8 9.7 -17.1 14.1 -6.3 6.6 -13.4 11.8 -44.7 32.6 -20.4 13.6 -40.8 26.7 -45.4 29 -4.6 2.2 -10.9 5.4 -14.1 7 -3.2 1.6 -9.7 4.2 -14.5 5.8 -4.8 1.5 -12.7 4.9 -17.7 7.5 -10.3 5.4 -59.9 22.7 -71.5 25 -4.1 0.7 -10.2 2.3 -13.4 3.4 -3.3 1.2 -8.5 2.1 -11.6 2.1 -3.6 0 -8.8 1.1 -14.5 3 -7 2.4 -10.6 3 -16.9 3 -5.9 0 -10.3 0.7 -16 2.5 l-7.9 2.5 -80.1 -0.1 -80.1 0 -6.9 -2.5z"/>
  <path d="M735 897.6 c-6.9 -2.3 -17.2 -6.7 -23 -9.6 -10.1 -5.2 -11.3 -6.2 -29.1 -24 -17.8 -17.8 -18.7 -18.9 -23.8 -28.9 -2.9 -5.7 -7.3 -16.3 -9.7 -23.5 l-4.4 -13.1 0 -19 0 -19 4.6 -14 c4.9 -14.5 8.9 -22.2 15.4 -29 2.1 -2.2 5.5 -6.7 7.6 -10 5.9 -9.3 13.9 -17 26.2 -25.2 10.3 -6.8 12.8 -8 30.4 -13.9 l19.2 -6.4 19.6 0 19.5 0 13.6 4.5 c12.2 4.1 15 5.5 28 14.1 10.8 7.3 16.9 12.2 24.6 19.9 8.8 9 17.3 19.9 17.3 22.3 0 0.4 2.5 5.7 5.6 11.7 8.4 16.4 8.4 16.4 8.4 45 l0 25 -4.4 13 c-2.4 7.2 -6.8 17.7 -9.7 23.4 -4.6 8.9 -6.8 11.8 -16.4 21.6 -7.7 7.9 -14.2 13.4 -21.5 18.3 -13.4 8.9 -11.5 8 -32.6 15.1 l-18.1 6.1 -17.4 -0.1 -17.4 0 -12.5 -4.3z m52.9 -7.7 c1.8 -1.1 5.6 -2.5 8.5 -3.1 2.8 -0.6 6.7 -1.9 8.8 -2.9 2 -1 5.5 -2.1 7.8 -2.5 2.7 -0.4 5.8 -2 8.8 -4.6 2.6 -2.1 6.7 -4.8 9.2 -6 7 -3.4 24.3 -20.9 28.9 -29.3 2.1 -3.8 4.2 -8.1 4.6 -9.5 0.4 -1.4 1.6 -3.5 2.6 -4.8 1 -1.3 2.1 -4.4 2.5 -7 0.3 -2.6 1.8 -6.7 3.3 -9.2 l2.6 -4.5 0 -26.5 0 -26.5 -9 -18 c-9 -18 -9 -18 -20 -29.1 -6.6 -6.6 -12.8 -11.9 -15.5 -13.2 -2.5 -1.2 -6.7 -4 -9.4 -6.2 -2.6 -2.2 -5.3 -4 -5.8 -4 -0.5 0 -2.3 -0.9 -3.9 -2.1 -1.7 -1.2 -5.7 -2.7 -9 -3.5 -3.3 -0.8 -7.7 -2.3 -9.9 -3.4 -3.6 -1.8 -5.9 -2 -25.2 -2 -19.6 0 -21.7 0.2 -25.3 2 -2.2 1.2 -6.2 2.6 -8.9 3.2 -2.7 0.5 -7.2 2.1 -10 3.4 -2.8 1.3 -6.3 2.4 -7.7 2.4 -1.6 0 -4.6 1.6 -7.4 3.9 -2.6 2.2 -6.4 4.7 -8.4 5.7 -5.3 2.7 -15.8 13.2 -18.3 18.3 -1.2 2.4 -4.9 7.4 -8.2 11 -6.7 7.1 -12.1 16.6 -13.1 22.7 -0.4 2.2 -1.8 6.2 -3.1 9.1 -2.5 5 -2.5 5.4 -2.2 27 0.3 20.3 0.5 22 2.5 25.3 1.1 1.9 2.4 5.5 2.8 7.9 0.4 2.5 3.4 9.7 6.7 16 5.7 11.1 6.7 12.3 21.6 27.5 9 9 17.4 16.7 19.7 17.8 2.2 1.1 7.8 3.9 12.5 6.4 4.7 2.4 10.3 4.7 12.5 5 2.2 0.4 5.6 1.5 7.5 2.6 4.9 2.8 10.2 3.4 28 3 13.1 -0.3 16 -0.7 18.9 -2.3z"/>
 </g>
 <g fill="#d1e5ff">
  <path d="M632.6 1315.4 c-6.1 -2.1 -8.8 -2.4 -20.4 -2.4 -12.2 0 -14.4 -0.3 -22.9 -3 -5.5 -1.8 -11.5 -3 -14.6 -3 -3.1 0 -8.5 -1.1 -12.7 -2.5 -4 -1.4 -8.6 -2.5 -10.1 -2.5 -1.6 0 -7 -1.3 -12.1 -3 -5.6 -1.8 -11.4 -3 -14.8 -3 -4 0 -10 -1.5 -21.9 -5.5 -9 -3 -17.6 -5.5 -19 -5.5 -3.4 0 -77.9 -24.8 -81.1 -27 -1.4 -0.9 -7.4 -3.4 -13.5 -5.4 -6 -2.1 -12.7 -4.8 -15 -6.1 -2.2 -1.2 -8.5 -3.7 -14 -5.5 -5.5 -1.8 -11.1 -4.1 -12.5 -5 -1.4 -1 -3.6 -2.1 -5 -2.5 -1.4 -0.4 -3.9 -1.6 -5.6 -2.6 -2.6 -1.6 -14 -7.4 -33.4 -16.9 -3 -1.5 -9.8 -4.2 -15.1 -5.9 -6.3 -2.1 -12.1 -4.9 -16.5 -7.9 -9.3 -6.4 -17.2 -11.2 -18.4 -11.2 -0.6 0 -2.8 -1.1 -5 -2.5 -2.2 -1.4 -4.3 -2.5 -4.8 -2.5 -0.5 0 -5.4 -2.4 -10.9 -5.4 -5.6 -3 -11.2 -5.7 -12.5 -6.1 -1.2 -0.4 -3.4 -1.5 -4.8 -2.5 -1.4 -1 -3.6 -2.1 -5 -2.5 -1.4 -0.4 -7.8 -4.3 -14.3 -8.6 -6.5 -4.4 -12.4 -7.9 -13.1 -7.9 -0.7 0 -6.4 -3.4 -12.7 -7.6 -6.3 -4.1 -13.2 -8.3 -15.4 -9.3 -2.3 -1 -8.6 -4.7 -14 -8.3 -5.5 -3.6 -11.6 -7.2 -13.6 -8.1 -2 -0.8 -15.9 -9.7 -30.9 -19.7 -15.1 -10.1 -28 -18.3 -28.7 -18.3 -0.9 0 -1.3 -1.5 -1.3 -4.9 0 -4.2 0.3 -4.8 2.1 -4.8 2.4 0 13.9 6.6 18.9 10.8 1.9 1.6 5.9 4.2 8.8 5.6 3 1.5 6.6 4 8.1 5.5 1.4 1.5 4.9 3.8 7.6 5.1 2.8 1.3 6.7 3.8 8.7 5.6 2 1.8 8 5.4 13.4 8 5.3 2.5 11.3 6.1 13.3 7.9 2 1.8 8.3 5.6 14.1 8.5 5.8 2.9 12.2 6.8 14.2 8.6 2.1 1.9 8.4 5.7 14 8.5 5.7 2.8 11.9 6.6 13.9 8.3 3.1 2.8 61.2 32.6 63.6 32.6 0.4 0 3.1 2 5.9 4.4 5.4 4.8 18.8 11.6 22.7 11.6 1.3 0 16.7 7.2 34.3 16 17.5 8.7 33.7 16.2 35.9 16.5 2.2 0.4 9 3.1 15.2 6.1 6.2 3 12.4 5.4 13.9 5.4 1.5 0 7.1 2.2 12.5 5 5.4 2.7 12.2 5.5 15.1 6.1 2.9 0.6 6.3 1.7 7.5 2.5 1.2 0.8 4.6 1.9 7.5 2.5 2.9 0.6 7 2 9 3 2.1 1.1 6.1 2.4 9 3 2.9 0.7 6.2 1.8 7.3 2.5 1.1 0.7 4.8 2 8.3 2.8 3.5 0.8 7.5 2.2 8.8 3.1 1.4 0.9 6 2 10.2 2.5 4.2 0.4 9.7 1.7 12.2 2.8 2.5 1.1 6.3 2.4 8.5 2.8 2.2 0.3 5.7 1.5 7.7 2.5 2.7 1.4 5.9 1.9 11.6 1.9 6.5 0 8.7 0.5 12.8 2.5 3 1.6 7.8 2.9 12.6 3.5 4.3 0.5 8.9 1.7 10.3 2.6 1.8 1.1 6.2 2 13.2 2.6 7.4 0.6 12.3 1.6 16.4 3.3 5.4 2.3 7.1 2.5 21.7 2.5 15 0 16.2 0.1 20.6 2.5 l4.7 2.5 70 0 70 0 4.9 -2.5 c4.3 -2.2 6.2 -2.5 15.3 -2.5 9 0 11.2 -0.3 15.9 -2.5 4 -1.8 8 -2.7 14.9 -3.1 6.4 -0.5 10.7 -1.3 13.4 -2.7 2.8 -1.4 7 -2.2 14 -2.7 7 -0.4 11.2 -1.2 14 -2.7 2.2 -1.1 5.6 -2.3 7.6 -2.6 2 -0.3 5.7 -1.5 8.1 -2.6 2.5 -1.1 6.7 -2.5 9.3 -3.1 2.6 -0.6 6 -1.7 7.6 -2.6 1.6 -0.8 5.2 -1.9 8.1 -2.4 2.8 -0.6 8.5 -3 12.7 -5.4 4.4 -2.5 10.2 -4.9 13.6 -5.6 5.5 -1.1 10.8 -3.5 20.5 -9 1.9 -1.1 4.7 -2 6.3 -2 3.5 0 8 -2.3 13.1 -6.6 2.2 -1.9 5.5 -3.6 7.5 -4 5.5 -0.9 8.9 -2.4 13.1 -5.9 2.2 -1.8 8.5 -5.5 14.2 -8.3 5.7 -2.7 11.4 -6.2 12.8 -7.7 1.4 -1.5 7.5 -5.1 13.5 -8.1 6.1 -3 12.6 -7 14.5 -8.9 1.9 -1.8 5.2 -4 7.3 -4.9 2.1 -0.9 6.1 -3.6 8.8 -6 2.7 -2.5 6.4 -4.8 8.2 -5.1 2.2 -0.5 6.3 -3.8 13.2 -10.5 6.7 -6.5 11.7 -10.5 15 -11.9 3.7 -1.7 8.3 -5.6 18.5 -16 10.3 -10.6 14.8 -14.5 19 -16.5 4.5 -2.1 10.3 -7.4 31.1 -28.3 18 -18.2 26.2 -27.1 27.6 -30.3 1.3 -2.7 6.9 -9.4 14.2 -16.9 8.2 -8.5 12.2 -13.4 12.7 -15.5 0.4 -2.2 4.5 -7 13.5 -16.1 8.8 -8.9 13.5 -14.5 14.9 -17.8 1.2 -2.6 4.6 -7.2 7.6 -10.3 3.1 -3.1 6.7 -7.9 8.2 -10.7 1.4 -2.9 5.1 -7.9 8.3 -11.2 5.3 -5.6 14.9 -21.8 14.9 -25.3 0 -0.7 2.7 -3.8 6 -6.9 3.9 -3.6 7.2 -8 9.3 -12.1 1.8 -3.5 4.3 -8.5 5.6 -11.1 1.3 -2.5 4 -6.4 6 -8.6 2 -2.2 4.3 -5.6 5 -7.5 0.8 -1.9 3.2 -5.6 5.3 -8.3 2.2 -2.6 6.3 -9.6 9.3 -15.6 2.9 -6 6.3 -11.5 7.4 -12.4 1.2 -0.8 7.3 -11.7 13.6 -24.2 6.3 -12.6 12.8 -24.2 14.4 -25.9 2.6 -2.7 7.8 -12.3 16.5 -30.7 l2.6 -5.6 -5.9 -11.9 c-3.3 -6.5 -7.1 -12.9 -8.5 -14.1 -1.4 -1.2 -3.7 -4.6 -5.2 -7.5 -1.5 -2.9 -4.2 -7 -6 -9 -1.8 -2.1 -4 -5.4 -4.9 -7.4 -0.8 -1.9 -3.5 -5.8 -5.9 -8.5 -2.5 -2.7 -4.7 -6.3 -5.1 -7.9 -0.7 -3.1 -5.8 -9.3 -14.3 -17.4 -3.3 -3.1 -6.4 -7.2 -7.7 -10.3 -3.3 -7.4 -39.6 -43.9 -47.5 -47.9 -3.3 -1.6 -9.1 -6.2 -14.6 -11.5 -5 -4.9 -10.9 -9.6 -13 -10.5 -2.1 -0.9 -5.6 -3.1 -7.6 -5 -2.1 -1.8 -6.1 -4.5 -9 -6 -2.9 -1.5 -7 -4.2 -9 -6 -2.1 -1.8 -5.5 -4.1 -7.5 -4.9 -2.1 -0.9 -5.4 -3.1 -7.3 -5 -1.9 -1.9 -8.1 -5.6 -13.7 -8.3 -5.6 -2.6 -12 -6.5 -14.4 -8.5 -2.3 -2.1 -5.4 -4 -6.8 -4.3 -8.6 -1.8 -11.9 -3.1 -15.6 -6.4 -4.7 -4.3 -15.4 -9.8 -20.7 -10.6 -2 -0.4 -13.5 -5.5 -25.5 -11.5 -14.2 -7.2 -22.8 -10.9 -24.9 -10.9 -1.8 0 -4.9 -1 -6.9 -2.1 -2 -1.2 -5.7 -2.6 -8.2 -3 -2.5 -0.5 -8.6 -2.9 -13.6 -5.3 -5.1 -2.4 -11.2 -4.9 -13.7 -5.6 -2.5 -0.7 -6.1 -2 -8.2 -3.1 -2 -1 -5.6 -2.2 -8 -2.5 -2.3 -0.4 -6.3 -1.6 -8.8 -2.6 -2.4 -1.1 -6.6 -2.4 -9.3 -3 -2.7 -0.5 -6.4 -1.8 -8.1 -2.8 -1.7 -1 -5.5 -2.3 -8.3 -2.9 -2.9 -0.6 -6.9 -2 -9 -3.1 -2.9 -1.5 -5.7 -2 -11.7 -2 -6.1 0 -9.1 -0.5 -13.5 -2.5 -5.3 -2.3 -6.8 -2.4 -28.1 -2.8 -21.9 -0.3 -22.6 -0.4 -28.3 -3 -5.7 -2.7 -5.9 -2.7 -29.4 -2.7 -23.5 0 -23.6 0 -29.2 2.7 -5.3 2.5 -6.6 2.7 -22.6 3 -14.9 0.4 -17.6 0.7 -21.5 2.6 -3.2 1.5 -7.2 2.3 -14 2.7 -7.2 0.4 -10.6 1.1 -13.8 2.8 -2.6 1.4 -7 2.5 -11 2.9 -3.7 0.3 -8.5 1.5 -10.7 2.6 -2.2 1.1 -7.2 2.3 -11 2.7 -5.6 0.5 -9.2 1.7 -17.5 5.8 -5.7 2.9 -11.3 5.2 -12.5 5.2 -1.1 0 -4.7 1.2 -8 2.5 -3.3 1.4 -8.7 2.8 -12 3.2 -6.7 0.6 -10 2 -13 5.2 -1 1.2 -9.5 6 -18.8 10.6 -9.3 4.7 -17.7 9.5 -18.8 10.8 -1 1.4 -4.4 3.7 -7.6 5.2 -3.2 1.5 -7.7 4.4 -10 6.6 -2.3 2.1 -5.4 4.1 -7 4.4 -10.2 2.1 -10.3 2.2 -28.1 20 -12.8 12.9 -17.7 18.6 -19.3 22.1 -1.2 3 -5.1 7.9 -10.7 13.6 -4.8 4.8 -9.8 11 -11.2 13.7 -1.4 2.8 -3.7 6.3 -5.3 7.9 -3.5 3.7 -26.3 48.7 -27.3 53.8 -0.3 2.1 -1.7 6.5 -3 9.6 -1.3 3.2 -2.4 7.4 -2.4 9.4 0 4.3 -1.8 11 -3.7 13.9 -0.8 1.2 -1.3 5 -1.3 9.8 0 6.6 -0.5 9 -3 14.7 -2.8 6.5 -3 7.5 -3 20.1 0 12.4 0.2 13.5 2.6 17.7 2.3 3.9 2.7 5.8 3.1 16.5 0.4 9.7 1 13.5 2.9 18.4 1.3 3.4 2.4 8.2 2.4 10.8 0 3.5 1.3 7.3 5.5 16 3 6.4 5.5 12.4 5.5 13.5 0 1.2 1.1 4.7 2.5 8 1.4 3.3 2.5 6.7 2.5 7.6 0 3.2 7.2 18 10.5 21.4 4.9 5.2 5.5 7.1 5.5 16.5 l0 8.6 -5.7 6.1 c-7.9 8.3 -11.9 10.1 -20.2 9.6 -5.7 -0.4 -8.4 -1.3 -19.6 -7 -7.1 -3.6 -14.3 -7.2 -16 -8.1 -1.6 -0.9 -4.3 -2.2 -6 -3 -3.2 -1.5 -4.2 -2 -17 -8.6 -4.4 -2.3 -15 -7.6 -23.5 -11.7 -8.5 -4.2 -17.6 -9.4 -20.2 -11.5 -2.6 -2.2 -6.4 -4.7 -8.3 -5.5 -2 -0.8 -5.5 -3.2 -7.8 -5.3 -3.6 -3.2 -30 -17.1 -32.5 -17.1 -0.5 0 -3.4 -2.2 -6.4 -4.8 -3 -2.7 -7 -5.4 -8.9 -6.2 -1.9 -0.7 -5 -2.8 -6.9 -4.6 -1.9 -1.8 -5.6 -4.2 -8.1 -5.3 -2.5 -1.1 -6.1 -3.6 -8.1 -5.5 -1.9 -1.9 -5.8 -4.6 -8.6 -6 -2.7 -1.4 -7.1 -4.3 -9.6 -6.5 -2.5 -2.1 -5.8 -4.2 -7.4 -4.6 -4.4 -0.9 -26.5 -22.9 -28.3 -28.1 -0.9 -2.6 -1.3 -9 -1.3 -19.4 0 -14.5 0.1 -15.9 2.6 -21.5 1.4 -3.3 2.8 -7.6 3.2 -9.5 0.9 -4.9 46.1 -94.8 49.6 -98.5 1.5 -1.6 4 -5.5 5.5 -8.5 1.5 -3 5.4 -8.2 8.7 -11.6 5.3 -5.4 6.1 -6.8 7.4 -12.7 1.3 -5.3 2.4 -7.6 5.6 -11 2.2 -2.3 4.9 -6.2 6 -8.7 1.1 -2.5 4.8 -7.5 8.4 -11.1 3.5 -3.7 7.2 -8.6 8.3 -11 1.1 -2.6 5.1 -7.6 10 -12.4 5.3 -5.2 9.2 -10.1 11.2 -14.1 2.5 -5 8.7 -11.7 36.2 -39.1 25.1 -25 34.3 -33.5 37.7 -35 2.7 -1.2 8 -5.4 13.2 -10.6 4.9 -4.8 11 -9.8 13.8 -11.2 2.8 -1.4 6.6 -4 8.3 -5.7 1.8 -1.6 5.5 -4 8.2 -5.3 2.8 -1.2 6.1 -3.5 7.5 -5 1.4 -1.5 5.2 -4 8.5 -5.7 3.3 -1.6 7.4 -4.2 9 -5.8 1.7 -1.5 14.9 -8.9 29.5 -16.2 14.6 -7.4 27.4 -14 28.5 -14.6 5.3 -2.8 16.4 -7.4 20.3 -8.3 2.5 -0.5 8.4 -3 13.3 -5.4 4.8 -2.4 10.5 -4.7 12.6 -5.1 2.1 -0.4 6.3 -1.8 9.3 -3.2 3 -1.4 8.4 -2.8 12 -3.2 3.7 -0.3 8.2 -1.6 10.5 -2.8 2.2 -1.2 5.3 -2.2 6.8 -2.2 1.6 0 4.3 -0.6 6 -1.4 8.4 -3.8 11.4 -4.6 18.1 -4.6 5.3 0 8.6 -0.6 13.1 -2.5 5 -2 7.7 -2.5 16 -2.5 8.8 0 10.6 -0.3 15.5 -2.7 l5.5 -2.8 34.5 -0.5 c32.5 -0.5 34.8 -0.6 37.5 -2.5 2.6 -1.8 4.7 -2 16.5 -2 11.7 0 14 0.3 17 2 3.3 1.9 5.9 2 38 2.5 l34.5 0.5 4 2.5 c3.7 2.3 5.2 2.5 20 3 13.6 0.5 16.6 0.9 20 2.7 2.9 1.4 6.6 2.2 13.2 2.5 6.5 0.4 10.1 1.1 11.9 2.3 1.5 1 6.8 2.4 11.7 3.1 4.9 0.7 10.1 2.1 11.6 3.1 1.8 1.2 5.7 1.9 12.6 2.3 8 0.6 11 1.2 15.2 3.3 2.9 1.5 5.9 2.7 6.8 2.7 0.8 0 4.1 1 7.3 2.1 3.1 1.2 8.8 2.5 12.5 3 3.8 0.4 8.7 1.7 10.9 2.9 2.3 1.2 6.6 2.6 9.7 3.1 3.1 0.6 6.6 1.7 7.8 2.5 1.2 0.8 4.7 2.1 7.7 2.8 3.1 0.8 7 2.1 8.8 2.9 4.4 1.9 18.1 6.5 24.6 8.2 2.9 0.7 9.5 3.4 14.7 5.9 5.2 2.5 10.5 4.6 11.7 4.6 1.3 0 7.3 2.4 13.3 5.4 6.1 2.9 12.8 5.7 15 6.1 3.2 0.5 22.1 9.3 33.1 15.3 1 0.6 16.1 8.1 33.4 16.7 17.3 8.6 32.2 16.1 33 16.5 0.8 0.5 7.6 3.9 15.1 7.5 7.4 3.6 16 8.6 18.9 11 3 2.4 6.7 4.7 8.2 5 1.5 0.4 3 1 3.3 1.5 0.5 0.9 18.7 10 19.9 10 0.4 0 3.1 2 5.9 4.3 2.9 2.4 9.5 6.6 14.7 9.2 5.2 2.6 11.2 6.3 13.4 8.1 2.1 1.8 5.7 4.2 8.1 5.3 2.3 1.1 6.4 3.8 9 6.1 2.6 2.2 6.3 4.7 8.2 5.5 2 0.8 5.3 3.1 7.5 5.1 2.2 1.9 5.9 4.4 8.2 5.3 2.3 1 6.4 3.7 9 6 2.6 2.3 6.4 4.8 8.3 5.6 2 0.8 5.4 3.1 7.5 5.1 4.5 4 9.4 6.4 13.3 6.4 2.3 0 2.5 0.4 2.5 4.4 0 2.4 0.3 5.7 0.6 7.4 0.6 2.8 0.4 3 -1.7 2.5 -1.3 -0.3 -3.3 -1.4 -4.4 -2.3 -3.9 -3.4 -95.7 -64 -96.9 -64 -0.7 0 -6 -3.1 -11.8 -7 -5.9 -3.8 -15.1 -9.1 -20.5 -11.7 -5.4 -2.6 -14.3 -7.7 -19.8 -11.3 -12.9 -8.5 -122 -62.8 -133.5 -66.5 -4.7 -1.6 -9.6 -3.6 -11 -4.5 -1.4 -1 -7.7 -3.6 -14.1 -5.8 -6.5 -2.2 -12.8 -4.7 -14.2 -5.6 -3.4 -2.3 -79.4 -27.6 -82.7 -27.6 -1.5 0 -10.1 -2.5 -19.1 -5.5 -12.1 -4.1 -17.8 -5.5 -22 -5.5 -3.1 0 -8.2 -0.9 -11.5 -2.1 -3.2 -1.1 -8.5 -2.5 -11.7 -3 -3.2 -0.5 -9.2 -2.1 -13.2 -3.4 -4.5 -1.6 -9.6 -2.5 -13.3 -2.5 -3.5 0 -8.3 -0.9 -11.8 -2.1 -4.4 -1.6 -9.5 -2.4 -19.9 -2.9 -11.2 -0.6 -15.5 -1.3 -21.4 -3.4 -7.4 -2.6 -7.7 -2.6 -37.9 -2.6 -30 0 -30.6 0 -37.4 -2.5 -8.7 -3.1 -13.5 -3.1 -22.8 0 -7.2 2.4 -8 2.5 -37.5 2.5 -29.5 0 -30.4 0.1 -37.9 2.5 -5 1.6 -11 2.7 -17.6 3 -6.7 0.4 -12.4 1.4 -17.2 3.1 -4.2 1.4 -9.5 2.4 -12.7 2.4 -4.1 0 -9.9 1.4 -21.8 5.5 -9 3 -17.5 5.5 -19.1 5.5 -3.5 0 -28.2 8.2 -34.2 11.4 -2.5 1.3 -7.6 3.3 -11.5 4.6 -3.8 1.2 -21.2 9.2 -38.5 17.8 -29 14.3 -33.8 17.1 -60 34.5 -17.2 11.5 -31.1 21.4 -35 25.2 -3.6 3.4 -9.9 8.5 -14 11.2 -11.2 7.5 -65.2 61.6 -72.4 72.6 -3 4.5 -7.7 10.5 -10.6 13.2 -2.8 2.8 -7.4 8.4 -10.2 12.5 -2.8 4.1 -7.2 10 -9.8 13 -7 8.3 -16.5 23.7 -19.1 30.9 -1.4 4.1 -3.9 8.1 -6.9 11.5 -10.2 11.3 -20.4 28.7 -40.9 69.8 -22.9 46.2 -29.1 61.8 -29.1 73.6 0 11.5 1.9 15.9 11.1 25.6 7.2 7.6 12.3 11.4 47.9 35 22 14.7 40.2 26.6 40.5 26.6 2.6 0 19.2 9.6 35.2 20.2 10.5 7 19.5 12.8 19.9 12.8 0.6 0 24.1 11.6 29.9 14.7 1.1 0.6 7.9 4 15 7.4 7.2 3.5 14.1 7.1 15.5 8 1.4 0.8 4.1 2.2 6 2.9 1.9 0.7 4.7 2.2 6.2 3.2 1.4 1 5 2.3 7.9 2.8 4.5 0.9 5.6 0.7 8.5 -1.1 1.9 -1.1 5.1 -4.1 7.1 -6.6 5.2 -6.4 5 -9 -1.9 -19.3 -4.6 -7.1 -6.6 -11.6 -11.8 -27.5 -3.5 -10.4 -7.1 -20.2 -8.2 -21.7 -2.5 -3.7 -5.8 -13.4 -5.8 -17.3 0 -1.8 -1 -5.8 -2.1 -9.1 -1.4 -3.7 -2.4 -9.9 -2.9 -16.9 -0.6 -7.5 -1.6 -13.5 -3.5 -19 -2.5 -7.6 -2.6 -8.8 -2.2 -24.5 0.3 -14.6 0.7 -17.4 3 -24.4 1.6 -4.5 2.7 -10.1 2.7 -13.1 0 -2.9 1.1 -8.4 2.5 -12.5 1.4 -4 2.5 -8.6 2.5 -10.1 0 -5.8 8.4 -28 17.6 -46.7 11 -22.2 22.8 -40.8 31.9 -50.2 3.4 -3.6 8.3 -9.6 10.9 -13.5 2.6 -4 11.5 -13.9 20.8 -23.2 15.4 -15.6 16.5 -16.4 23.7 -19.2 4.6 -1.8 13.7 -7 23.1 -13.3 8.5 -5.7 20 -12.6 25.5 -15.3 5.5 -2.6 12.5 -6.4 15.5 -8.5 7.9 -5.3 11.5 -7 15 -7 4.4 0 27.3 -7.6 35 -11.6 3.6 -1.9 9.2 -3.9 12.5 -4.5 3.3 -0.6 9.6 -2.1 14 -3.4 4.4 -1.3 9.8 -2.6 12.1 -3 2.3 -0.3 7.7 -1.7 12 -3.1 4.3 -1.3 10.2 -2.4 13 -2.4 2.8 0 8.4 -1.1 12.4 -2.5 6.5 -2.2 9 -2.5 21.5 -2.5 13.2 0 14.8 -0.2 22.8 -3 l8.7 -3 26.8 0 26.8 0 8.9 3 c8.6 2.9 9.4 3 28 3 17.8 0 19.7 0.2 26.5 2.5 4.4 1.5 9.6 2.5 12.9 2.5 4.5 0 13.2 2.5 43.6 12.6 20.9 6.9 39.6 13.5 41.5 14.6 1.9 1.1 11.8 4.9 22 8.4 12.4 4.2 23.6 8.8 34.1 14.2 8.6 4.4 20.1 9.4 25.5 11.2 6.8 2.2 12.3 4.9 17.5 8.5 4.2 2.9 10.3 6.1 13.5 7.2 3.3 1.1 10.1 4.8 15.3 8.2 5.1 3.3 9.9 6.1 10.6 6.1 2.8 0 63 41.1 69.5 47.4 3.6 3.5 9.2 8 12.5 10.1 9 5.5 41.4 38.1 47.9 48 2.9 4.4 7.6 10.2 10.4 12.9 3.2 3 12.5 16 25.4 35.4 18.8 28.4 27.7 43.6 29.3 50.4 0.8 3.1 -1.8 11.9 -4.7 16 -1 1.5 -2.4 4.2 -3 6 -0.6 1.8 -1.9 4.4 -2.8 5.8 -1 1.4 -2.1 3.6 -2.5 5 -0.4 1.4 -3.8 7 -7.5 12.5 -3.7 5.5 -10.2 17.2 -14.5 26 -4.3 8.8 -9.9 18.9 -12.4 22.5 -2.5 3.6 -6.4 10 -8.6 14.2 -2.2 4.2 -8.5 14.4 -13.9 22.5 -5.5 8.1 -11.5 17.7 -13.4 21.3 -4.4 8.6 -7.7 13.4 -13.3 19.7 -2.6 2.9 -6.7 9.1 -9 13.9 -2.4 4.7 -6.5 11.1 -9.2 14.3 -2.6 3.1 -7.1 9.2 -10.1 13.6 -3 4.4 -6.6 9.1 -8.1 10.5 -1.5 1.4 -5.3 6.3 -8.3 11 -3.1 4.7 -9.4 12.3 -14 16.8 -4.6 4.6 -10.7 11.8 -13.4 16 -2.8 4.3 -9 11.8 -13.8 16.7 -4.8 5 -11.4 12.8 -14.6 17.5 -7.7 11.3 -48.9 52.4 -58.9 58.8 -3.8 2.5 -12.6 10 -19.5 16.8 -6.9 6.7 -15.4 14 -18.9 16.3 -3.6 2.3 -9.6 7.1 -13.4 10.6 -6.7 6.4 -46.1 33.2 -54.1 36.8 -2.1 1 -8.5 4.9 -14.3 8.7 -5.8 3.9 -11 7 -11.7 7 -0.7 0 -5.1 2.5 -9.7 5.6 -4.6 3.1 -11 6.6 -14.2 7.6 -3.2 1.1 -8.1 3.6 -10.9 5.5 -2.8 1.9 -8.8 4.8 -13.3 6.3 -4.6 1.6 -10.3 3.9 -12.7 5.3 -2.3 1.4 -7.7 3.5 -11.8 4.7 -4.1 1.2 -10 3.5 -13 5.1 -3 1.6 -18.9 7.4 -35.4 12.9 -22.9 7.7 -31.1 10 -35.2 10 -2.9 0 -8.8 1.1 -13.1 2.5 -4.3 1.4 -10.1 2.5 -13 2.5 -3 0 -9.1 1.3 -14.5 3 -7.3 2.4 -11 3 -17.6 3 -6.5 0 -10.1 0.6 -15.4 2.5 l-6.9 2.5 -73.2 -0.1 -73.2 0 -6.9 -2.5z"/>
  <path d="M594 1197.1 c-1.4 -0.4 -4 -1.6 -5.9 -2.5 -2.5 -1.3 -7.2 -2 -18.5 -2.5 -11.8 -0.6 -16.2 -1.2 -20.1 -2.9 -3.3 -1.4 -7.9 -2.2 -13.5 -2.5 -5.9 -0.2 -9.7 -1 -12.5 -2.4 -2.7 -1.4 -7 -2.2 -13.5 -2.7 -6.4 -0.5 -10.7 -1.3 -13.3 -2.7 -2.1 -1.1 -6.2 -2.5 -9 -3.1 -2.9 -0.6 -6.8 -1.8 -8.7 -2.8 -1.9 -1 -6.4 -2.1 -10 -2.5 -3.6 -0.4 -8.8 -1.7 -11.5 -2.9 -2.8 -1.3 -6.8 -2.6 -9 -3 -2.1 -0.4 -5.6 -1.6 -7.6 -2.6 -2 -1.1 -6.8 -2.2 -10.5 -2.6 -4 -0.3 -8.8 -1.6 -11.4 -2.9 -2.5 -1.2 -6.3 -2.5 -8.4 -2.9 -2.2 -0.4 -8.5 -2.9 -14 -5.5 -5.6 -2.7 -12 -5.1 -14.3 -5.5 -2.3 -0.3 -6.3 -1.7 -8.9 -3.1 -2.6 -1.4 -5.8 -2.5 -7.2 -2.5 -1.3 0 -7.1 -2.2 -12.8 -5 -5.6 -2.7 -12.5 -5.4 -15.1 -6 -2.6 -0.6 -11.4 -4.4 -19.4 -8.5 -8.1 -4.1 -15.9 -7.5 -17.5 -7.5 -3.8 0 -11.2 -3.7 -13 -6.5 -1.6 -2.5 -4.9 -4 -10.8 -5 -3.2 -0.5 -12.4 -4.5 -17.6 -7.6 -0.8 -0.5 -8.5 -4.4 -17 -8.6 -8.5 -4.2 -17.3 -9.3 -19.5 -11.3 -2.2 -2 -11.2 -7.1 -19.9 -11.4 -8.8 -4.4 -17.5 -9.3 -19.5 -11.1 -2 -1.8 -10.8 -6.7 -19.5 -11.1 -8.8 -4.3 -17.9 -9.5 -20.1 -11.4 -2.3 -2 -5.7 -4.3 -7.6 -5 -1.9 -0.8 -4.9 -3 -6.8 -4.8 -1.9 -1.9 -5.6 -4.5 -8.4 -5.7 -3.2 -1.5 -9.1 -6.4 -16.9 -14 -8.3 -8 -13.7 -12.4 -17.2 -13.9 -3.2 -1.5 -7.1 -4.5 -10.3 -8 -3.7 -4 -5.8 -5.6 -7.7 -5.6 -2.7 0 -3.6 -2.3 -1.5 -3.6 0.7 -0.4 0.9 -2.1 0.5 -4.3 -0.3 -2 -0.3 -4.7 0.1 -5.9 0.5 -2.2 1.2 -1.7 9.7 6.6 5 4.9 13.2 11.7 18.1 15 5 3.3 12 9.2 15.7 13.1 8.3 8.8 44 33.2 60.3 41.1 6.1 2.9 14.4 7.7 18.5 10.5 4.1 2.9 12.9 7.9 19.6 11.2 6.6 3.3 15.6 8.5 20.1 11.5 4.4 3.1 12 7.4 16.9 9.7 4.9 2.3 9.8 4.7 10.9 5.3 8.4 4.8 17.6 9 24.2 11.2 4.3 1.4 10 4.2 12.7 6.1 2.6 1.9 8.5 4.6 13 6.1 4.4 1.5 12.1 4.9 17 7.6 5 2.7 13.3 6.2 18.5 7.9 5.3 1.7 11.5 4.2 13.9 5.6 2.4 1.3 12.5 5.1 22.5 8.5 10 3.3 20 7 22.2 8.2 4.5 2.6 26.9 10.1 33 11.1 2.2 0.3 11.5 3.1 20.7 6.1 9.1 3 17.9 5.4 19.5 5.4 1.5 0 8.9 2.1 16.3 4.6 9.3 3.2 16.2 4.9 22 5.5 4.7 0.4 11.8 2 15.9 3.4 4.5 1.5 9.7 2.5 13 2.5 3.5 0 8.9 1.1 14.5 3 7.8 2.6 10.3 3 20.1 3 9.3 0 12.4 0.4 18.5 2.5 l7.4 2.5 76.6 0 76.7 0 7.9 -2.5 c5.7 -1.8 10.1 -2.5 16 -2.5 6.3 0 9.9 -0.6 16.9 -3 5.7 -1.9 10.9 -3 14.5 -3 3.1 0 8.3 -0.9 11.6 -2.1 3.2 -1.1 9.3 -2.7 13.4 -3.4 11.6 -2.3 61.2 -19.6 71.5 -25 5 -2.6 12.9 -6 17.7 -7.5 4.8 -1.6 11.3 -4.2 14.5 -5.8 3.2 -1.6 9.5 -4.8 14.1 -7 4.6 -2.3 25 -15.4 45.4 -29 31.3 -20.8 38.4 -26 44.7 -32.6 4.3 -4.4 11.8 -10.6 17.1 -14.1 7.6 -5.1 14.7 -11.6 35.6 -32.7 18.7 -18.8 27.7 -28.6 31.4 -34.3 2.9 -4.4 7 -9.8 9 -12 2.1 -2.2 5.8 -7.1 8.3 -11 2.5 -3.8 9.4 -11.7 15.2 -17.5 6.4 -6.2 13 -13.9 16.3 -19 3 -4.6 7.2 -10.2 9.2 -12.5 4.7 -5.2 19.6 -27.2 21.6 -32 0.8 -2.1 6.5 -11.2 12.6 -20.4 11.4 -17.1 35.2 -62 38.2 -72.2 2.6 -8.5 1.7 -9.6 -33.2 -44.3 -21.3 -21.3 -33.3 -32.5 -38.3 -35.7 -4 -2.6 -10 -7.4 -13.3 -10.7 -8.1 -7.9 -77.5 -54.1 -91.1 -60.7 -5.5 -2.6 -13.1 -6.9 -17 -9.6 -3.8 -2.6 -9.7 -5.7 -13 -6.8 -3.3 -1.2 -8.3 -3.7 -11.1 -5.6 -2.8 -2 -8.7 -4.7 -13 -6.1 -4.3 -1.4 -9.7 -3.6 -11.9 -4.9 -3.9 -2.2 -20.1 -7.8 -26 -8.9 -5.7 -1.1 -13.5 6.8 -13.5 13.6 0.1 4 4.5 13.2 10.2 21.4 6.7 9.7 12.6 21.4 16.3 32.4 1.5 4.6 5.4 13.6 8.6 20 6.4 12.8 13.9 33.7 13.9 38.6 0 1.7 1.2 6.4 2.6 10.5 2 5.7 2.7 9.7 2.9 17.4 0.2 7.7 0.9 11.7 2.9 17.4 2.5 7.2 2.6 8.3 2.6 29 0 20.4 -0.2 22 -2.5 28.9 -1.5 4.4 -2.5 9.7 -2.5 13 0 4.4 -1.7 10.8 -7.4 27.7 -8.4 25 -15.6 40.2 -28.2 59.5 -7.4 11.2 -10.6 14.9 -32.1 36.1 -23.8 23.6 -23.8 23.7 -44.8 37.6 -21.5 14.3 -40.5 24.4 -53 28.3 -3.8 1.2 -13.3 5.3 -21 9.1 -10.2 5 -15.8 7.1 -20.5 7.8 -3.6 0.5 -13.3 3.2 -21.7 6 -8.3 2.8 -16.5 5.1 -18.1 5.1 -1.5 0 -6.2 1.1 -10.2 2.5 -4.2 1.4 -9.6 2.5 -12.7 2.5 -3.1 0 -9.1 1.2 -14.6 3 -8.1 2.6 -10.9 3 -20.4 3 -9.1 0 -12.2 0.4 -18.3 2.5 l-7.4 2.5 -52.5 0 c-44.5 0 -53.4 -0.3 -57.6 -1.6 -3.8 -1.1 -7.2 -1.3 -14.2 -0.8 -9 0.6 -9.3 0.6 -22.7 -4 -10.2 -3.4 -15.1 -4.6 -19.6 -4.6 -3.8 0 -8.4 -0.9 -12.8 -2.5 -4.2 -1.5 -9.1 -2.5 -12.4 -2.5 -3.1 0 -8.5 -1 -12.5 -2.4 -3.9 -1.3 -10.1 -2.9 -13.7 -3.4 -3.8 -0.6 -10.5 -2.8 -15.5 -5.2 -4.9 -2.2 -19.7 -7.6 -32.8 -12 -20.8 -6.9 -26.8 -9.4 -48.3 -20.3 -13.5 -6.7 -28 -14.7 -32.4 -17.6 -6.9 -4.7 -24.3 -14.1 -26 -14.1 -1.9 0 -29 -19.3 -34.1 -24.3 -3.3 -3.3 -9.1 -8 -13 -10.5 -3.8 -2.5 -11.5 -8.9 -17 -14.2 -5.5 -5.3 -11.8 -10.7 -14 -12 -5.9 -3.5 -8.2 -5.8 -13.5 -13.5 -2.7 -3.8 -11.9 -14 -20.5 -22.5 -10.9 -10.8 -17.5 -18.2 -21.7 -24.5 -3.3 -4.9 -7.5 -10.6 -9.3 -12.5 -4.8 -5.1 -28.5 -41.1 -33.3 -50.6 -2.2 -4.4 -4.8 -10.5 -5.7 -13.6 -1.6 -5.5 -1.5 -5.6 1.5 -15 1.8 -5.9 3 -11.6 3 -15.1 0 -4.2 1.7 -10.6 7.4 -27.4 4 -12 8.2 -23.4 9.3 -25.3 1.2 -1.9 4.6 -11.2 7.7 -20.7 4.8 -14.5 8.3 -22.6 15.3 -35.8 0.6 -1.1 5.3 -10.5 10.4 -21 5.1 -10.4 12.3 -23.5 16 -29 3.6 -5.5 7.5 -12 8.6 -14.5 3.6 -8.1 39.1 -60.2 45.8 -67 3.4 -3.6 8.6 -10.1 11.5 -14.5 2.9 -4.4 9.2 -12 14 -17 4.9 -4.9 10.9 -12.1 13.3 -16 5.5 -8.5 16.8 -19.7 26.1 -25.8 3.8 -2.5 13.4 -11 21.5 -19 8.9 -8.8 17.5 -16.3 22.1 -19.3 4.1 -2.6 10.7 -7.8 14.5 -11.4 3.9 -3.7 9.9 -8.6 13.5 -11 3.6 -2.3 8.1 -5.7 10 -7.5 7.6 -7.1 43.8 -30.1 61.5 -39 9.9 -5 22 -11.9 26.9 -15.3 4.9 -3.4 9.6 -6.2 10.5 -6.2 0.9 0 3.2 -1.1 5.1 -2.3 1.9 -1.3 8 -3.9 13.5 -5.7 5.5 -1.8 14.6 -5.7 20.1 -8.6 5.6 -2.9 14.4 -6.7 19.5 -8.3 5.2 -1.7 11 -4.1 12.9 -5.2 1.9 -1.2 12.7 -5.3 24 -9.2 19.3 -6.5 21.2 -7 32 -7.6 11.1 -0.6 12 -0.8 20.2 -4.9 4.7 -2.3 11.2 -4.7 14.4 -5.3 3.3 -0.6 9.5 -2.1 13.9 -3.5 4.4 -1.3 10.4 -2.4 13.2 -2.4 3.2 0 9 -1.2 14.6 -3 7.2 -2.3 11.3 -3 17.4 -3 5.9 0 9.9 -0.7 15.3 -2.5 7.2 -2.4 8 -2.5 37.4 -2.5 l30.1 0 9.4 -3 9.3 -3 26.3 0 26.3 0 9.7 3 c9.6 2.9 10.2 3 31.4 3 20.6 0 22.1 0.1 29.1 2.5 6.1 2.1 9.3 2.5 18.2 2.5 9.4 0 12.1 0.4 20 3 5.7 1.9 11.1 3 14.7 3 3.3 0 8.6 1 12.9 2.5 4.3 1.4 9.7 2.5 12.8 2.5 3.2 0 9.1 1.2 14.7 3 5.2 1.6 10.5 3 11.8 3 1.3 0 5.9 1.1 10.2 2.5 4.3 1.4 9 2.5 10.6 2.5 3.5 0 76.2 24.4 81.6 27.4 2.3 1.2 12.6 5.1 23 8.6 10.5 3.4 20.1 7 21.5 8 1.4 0.9 4.1 2.3 6 3 1.9 0.7 4 1.7 4.6 2.2 0.6 0.4 7.6 4 15.5 7.8 7.9 3.9 15.2 7.5 16.2 8 2.8 1.6 4.9 2.7 9.4 4.9 2.3 1.1 5 2.4 6 3 1 0.5 5.6 2.9 10.3 5.2 22.8 11.2 30.8 15.5 40.7 21.9 5.9 3.9 11.2 7 11.9 7 0.7 0 6.5 3.5 13.1 7.9 6.5 4.3 12.9 8.2 14.3 8.6 3.5 1.1 45.4 28.9 50.4 33.5 2.3 2 7.5 6 11.6 8.7 4.1 2.8 8.4 6.1 9.5 7.3 1.1 1.2 6.3 5.1 11.5 8.5 5.2 3.5 11.1 8.2 13 10.5 1.9 2.3 7.3 6.7 12 9.7 4.7 3.1 10.3 7.2 12.5 9.3 5.2 4.8 11.5 9 13.6 9 1.4 0 1.8 1.2 2.1 6 0.3 5.7 0.2 6 -1.9 6 -1.3 0 -2.3 -0.6 -2.3 -1.3 0 -0.7 -2.3 -2.1 -5.2 -3.2 -3.3 -1.3 -8 -4.6 -13.5 -9.7 -4.6 -4.2 -9.6 -7.9 -11.1 -8.3 -1.5 -0.3 -6.7 -4.6 -11.7 -9.5 -5.4 -5.3 -11.1 -9.9 -14.3 -11.5 -3 -1.5 -8.1 -5.4 -11.5 -8.7 -3.4 -3.2 -8.3 -7 -10.9 -8.2 -2.6 -1.3 -7.9 -5.2 -11.8 -8.7 -3.9 -3.5 -8.7 -7 -10.6 -7.6 -2 -0.7 -5.2 -2.9 -7.1 -4.8 -2 -2 -5.9 -4.8 -8.7 -6.2 -2.8 -1.4 -7 -4.3 -9.4 -6.3 -2.3 -2.1 -5.4 -4.1 -6.8 -4.4 -1.4 -0.4 -4.3 -1.8 -6.4 -3.1 -2.1 -1.3 -4.9 -2.7 -6.2 -3 -1.3 -0.3 -4.2 -2.3 -6.3 -4.3 -2.2 -2 -8.7 -6 -14.5 -9 -5.7 -2.9 -12 -6.8 -14 -8.6 -4.9 -4.4 -111.1 -57.2 -118.7 -59 -3.2 -0.7 -7.6 -2.2 -9.8 -3.3 -2.2 -1.1 -5.7 -2.3 -7.8 -2.7 -2.1 -0.4 -7.8 -2.7 -12.7 -5.2 -4.9 -2.4 -11.2 -4.9 -14.2 -5.5 -2.9 -0.7 -6.2 -1.8 -7.3 -2.5 -1.1 -0.7 -4.7 -1.9 -8 -2.7 -3.3 -0.8 -7.5 -2.2 -9.2 -3.1 -1.8 -0.9 -5.5 -2.1 -8.4 -2.7 -2.9 -0.6 -7.5 -2.2 -10.3 -3.5 -2.8 -1.3 -6 -2.4 -7.1 -2.4 -1.1 0 -4.4 -1.1 -7.3 -2.5 -3.6 -1.6 -7.2 -2.5 -10.5 -2.5 -3.3 0 -7 -0.9 -10.3 -2.4 -2.7 -1.3 -8.1 -2.6 -12 -3 -3.8 -0.4 -8.7 -1.7 -10.9 -2.8 -2.8 -1.5 -7 -2.3 -14.1 -2.9 -6.8 -0.5 -11.4 -1.4 -14 -2.7 -2.6 -1.3 -6.9 -2.1 -13 -2.5 -6.9 -0.4 -10.3 -1.1 -13.5 -2.9 -3.9 -2 -6.2 -2.4 -19.9 -2.8 -13.9 -0.4 -15.9 -0.7 -19.4 -2.8 -3.8 -2.2 -4.8 -2.3 -29 -2.5 -25 -0.3 -25.1 -0.3 -30.8 -3 l-5.7 -2.7 -24.3 0 c-22.4 0 -24.7 0.2 -28.3 2 -6.3 3.2 -13.3 3.8 -44.1 3.8 -28.4 0 -29.3 0.1 -33.5 2.3 -3.6 1.9 -6.6 2.4 -16.9 2.9 -10.4 0.5 -13.2 0.9 -16.7 2.9 -3.2 1.7 -6.4 2.4 -14 2.8 -7.2 0.5 -11.1 1.2 -14.8 3 -3.2 1.4 -6.9 2.3 -10.1 2.3 -4.2 0 -7.1 1 -15.5 5.2 l-10.4 5.3 -12.5 0.5 c-10 0.5 -13.4 1 -17 2.8 -2.5 1.2 -5.5 2.2 -6.8 2.2 -1.2 0 -4.4 1.1 -7 2.4 -2.6 1.3 -7.1 2.9 -10 3.5 -2.9 0.6 -9.4 3.1 -14.5 5.6 -5.1 2.4 -11.4 4.9 -14.1 5.5 -4.4 1 -6.2 1.7 -13.1 5.3 -13.8 7.3 -19.5 9.9 -23.9 10.8 -6.7 1.5 -27.7 11.9 -32.5 16.1 -2 1.9 -13.1 8 -24.6 13.7 -13.3 6.6 -22.5 11.7 -25 14.1 -2.2 2.1 -5.7 4.3 -7.8 5 -2.1 0.6 -5.3 2.7 -7.1 4.6 -1.9 1.9 -6 4.7 -9.2 6.3 -3.3 1.6 -8.1 5.2 -10.9 8.1 -2.7 2.8 -7.6 6.5 -10.9 8.2 -3.5 1.8 -9.5 6.5 -15 11.8 -5 4.8 -11.3 9.9 -14.1 11.3 -3.4 1.7 -10.2 7.8 -21 18.7 -12.3 12.5 -17.4 16.9 -22 19.2 -7.9 4 -24 20.1 -25.4 25.6 -0.8 2.8 -4 6.6 -12.7 15.2 -8 7.9 -12.3 13.1 -13.9 16.5 -1.5 3.1 -5.9 8.7 -11.6 14.5 -5 5.2 -10 11.3 -10.9 13.5 -1 2.3 -3.6 6.2 -5.8 8.8 -2.3 2.6 -5 6.6 -6 9 -1.1 2.3 -3.4 5.6 -5.1 7.3 -1.7 1.8 -4.1 5.4 -5.2 8 -1.2 2.7 -3.8 6.7 -5.9 8.9 -2.1 2.2 -5.6 8.2 -8 13.5 -2.4 5.2 -5.9 11.3 -7.9 13.5 -2 2.2 -6.7 10.3 -10.4 18 -3.7 7.7 -7.7 15.6 -8.7 17.5 -6.4 11.4 -18.1 36.2 -19 40.3 -0.6 2.7 -1.9 6.5 -2.9 8.5 -1 2.1 -2.1 5.5 -2.4 7.7 -0.4 2.2 -2.9 8.5 -5.6 14.1 -2.8 5.5 -5.3 12 -5.7 14.5 -0.4 2.4 -1.7 6.5 -3 9.1 -1.3 2.6 -2.4 5.8 -2.4 7.1 0 1.2 -1 4.1 -2.1 6.2 -1.5 2.9 -2.4 7 -3 14.6 -0.6 8.1 -1.3 11.5 -3 14.4 -2 3.3 -2.1 4.1 -0.9 7.4 2.9 8.2 10.5 22.7 14 26.5 2 2.3 4.3 5.6 5 7.5 0.8 1.9 3.1 5.4 5.2 7.9 2.1 2.4 5 6.7 6.4 9.5 1.4 2.9 5.2 7.9 8.4 11.2 3.2 3.3 6.9 8.1 8.2 10.7 1.5 3.1 9.2 11.7 22.1 24.8 12.6 12.7 20.4 21.4 21.4 23.8 2 5 4 7 9.3 9.7 2.5 1.3 9.7 7.4 16 13.5 7.2 7 13.6 12.3 17 14 3.3 1.7 8.7 6.1 13.5 11 5.2 5.3 10.1 9.2 14 11.2 3.3 1.6 7.4 4.3 9 5.8 2.8 2.6 30 17 32.1 17 0.6 0 2.6 1.6 4.4 3.5 2.5 2.6 12.3 8 33.5 18.5 16.6 8.3 31.1 15 32.3 15 1.3 0 4.9 1.1 8.2 2.5 3.3 1.4 6.7 2.5 7.7 2.5 1 0 4.1 1.1 7 2.4 2.9 1.4 7.3 2.8 9.9 3.2 2.5 0.3 8.7 2.8 13.8 5.4 7.2 3.8 10.5 4.9 16 5.4 3.9 0.4 8.6 1.6 11 2.8 3 1.6 6.9 2.3 14.1 2.8 7.3 0.5 10.9 1.3 13.5 2.8 2.5 1.4 6.2 2.2 13.4 2.7 6.4 0.5 11.4 1.4 14.4 2.7 8.2 3.7 15.4 4.9 21.9 3.7 6.7 -1.3 11.2 -0.7 17 2.1 4.1 1.9 6 2 54.3 2 49.7 0 50.1 0 54.3 -2.2 3.6 -1.9 6.4 -2.3 19.2 -2.8 12.6 -0.5 15.7 -0.9 19.5 -2.8 3.5 -1.6 6.4 -2.2 12.5 -2.2 6.5 0 9 -0.5 13.5 -2.6 3.4 -1.6 8 -2.8 12 -3.1 3.6 -0.3 8.2 -1.4 10.2 -2.4 2.1 -1.1 6.1 -2.4 9 -3 2.9 -0.6 6.9 -2 8.9 -3 2 -1 7 -2.2 11 -2.8 6.1 -0.7 9.9 -2.2 21.4 -7.9 7.7 -3.8 16.3 -7.4 19 -8.1 7 -1.7 37.1 -16.8 42.5 -21.3 2.5 -2 6.1 -4.4 8 -5.2 1.9 -0.8 5.6 -3.3 8.2 -5.5 2.5 -2.2 6.6 -5 9.2 -6 7 -3.1 54.3 -50.1 58.7 -58.5 1.7 -3.3 4.2 -7.2 5.5 -8.6 1.3 -1.4 4.8 -7.2 7.7 -13 3 -5.8 6.1 -11.8 7 -13.5 3.1 -5.6 5.9 -12.7 6.4 -16.4 0.3 -2 1.6 -5.6 2.8 -8.1 1.3 -2.5 2.6 -6.5 3 -9 0.4 -2.5 1.5 -5.8 2.5 -7.5 1.2 -2 1.9 -6.1 2.3 -12.8 0.5 -7.4 1.2 -11 3.2 -15.1 2.4 -5.1 2.5 -6.1 2.5 -24 0 -18 -0.1 -18.9 -2.6 -24.4 -2.1 -4.7 -2.7 -7.7 -3.1 -17.2 -0.4 -8.3 -1.1 -12.5 -2.4 -15.1 -1 -2 -2.1 -6.8 -2.5 -10.5 -0.4 -3.8 -1.5 -8.6 -2.6 -10.7 -1 -2 -2.3 -6 -2.8 -8.9 -0.6 -2.8 -4.4 -11.7 -8.4 -19.9 -4.1 -8.1 -7.8 -16.5 -8.2 -18.6 -1.1 -6.2 -12.8 -29.4 -16.7 -33.2 -2 -1.8 -3.8 -4.4 -4.2 -5.8 -0.3 -1.4 -1.8 -4.3 -3.3 -6.6 -2.2 -3.5 -2.7 -5.6 -3 -12.5 -0.6 -12.2 0.1 -14.7 5.9 -20.3 l5 -4.9 8.4 0 c6.7 0 9.3 0.5 13.7 2.5 2.9 1.4 6.5 2.5 8 2.5 1.5 0 7 2.2 12.3 5 5.3 2.7 10.2 5 10.8 5 3.5 0 9.2 2.5 13.9 6.1 4.8 3.6 7 4.5 15 6.3 1.4 0.3 4.9 2.5 7.7 4.8 4.7 4.1 7.5 5.6 28.1 15.8 4.7 2.2 9.8 5.5 11.3 7.1 1.5 1.7 4.8 3.9 7.4 5 2.6 1.1 6.4 3.6 8.6 5.5 2.1 2 5.7 4.3 8 5.3 2.3 1 6.6 3.9 9.6 6.4 2.9 2.5 6.6 4.9 8.1 5.2 1.5 0.3 4.2 2.2 6.1 4.2 1.9 1.9 6 4.8 9.3 6.4 3.9 1.8 8.9 5.7 15 11.7 5.2 5.1 10.8 9.7 13.1 10.6 4.9 2.1 67.5 64 70.8 70.1 1.7 3.2 2.2 5.7 2.2 12.5 l0 8.5 -14.9 30 c-9.8 19.7 -16.3 31.5 -18.8 34.3 -2.2 2.3 -4.8 6.3 -5.8 8.7 -1.1 2.5 -3.6 6.1 -5.6 8.1 -2 2 -4.3 5.3 -5.1 7.3 -3.8 9.3 -7.8 16.6 -10.8 20 -1.8 2 -4.2 5.6 -5.5 8.1 -1.2 2.5 -5.1 7.5 -8.6 11.1 -3.5 3.7 -7.3 8.8 -8.4 11.4 -1.4 3.3 -6.2 8.9 -16.2 19.1 -9.2 9.3 -15 15.9 -16.2 18.7 -1 2.3 -4.7 7.1 -8.1 10.7 -3.5 3.6 -7.3 8.5 -8.3 11 -2.8 6.6 -61.2 65 -68 68 -3.1 1.4 -8.7 6 -16.7 13.9 -6.8 6.7 -13.5 12.3 -15.5 13.1 -1.9 0.7 -5.4 3 -7.7 5.1 -2.2 2.1 -6.3 4.7 -9 5.9 -2.6 1.1 -6.6 3.8 -8.7 6 -2.1 2.2 -5.5 4.5 -7.5 5.1 -2 0.7 -5.6 3 -8.1 5.2 -2.5 2.2 -6.4 4.8 -8.7 5.8 -2.3 0.9 -5.9 3.3 -8 5.2 -4.5 4.1 -40.2 22.2 -45.5 23.1 -3.4 0.6 -12.7 4.6 -18.8 7.9 -7.4 4.2 -17.8 8.7 -19.8 8.7 -1.3 0 -4.3 0.9 -6.6 2 -2.4 1 -6.5 2.4 -9.1 3 -2.6 0.6 -6.3 1.9 -8.3 2.9 -2.1 1 -5.9 2.3 -8.7 2.9 -2.7 0.6 -6.8 2 -9 3.2 -2.4 1.2 -5.9 2 -9 2 -3.1 0 -7.3 1 -11 2.6 -4.3 1.9 -8.4 2.7 -14.5 3.1 -6 0.3 -10.2 1.1 -14.1 2.9 -4.8 2 -7.3 2.4 -15.8 2.4 -8.9 0 -10.9 0.3 -16.4 2.8 l-6.2 2.7 -84.5 0.2 c-46.5 0.1 -85.6 -0.2 -87 -0.6z"/>
  <path d="M737.2 904 c-4 -1.6 -8.2 -3 -9.2 -3 -1 0 -7.2 -2.7 -13.8 -6 -6.7 -3.3 -12.6 -6 -13.1 -6 -0.6 0 -10 -9.1 -21 -20.1 l-20.1 -20.2 -7 -14.1 c-3.8 -7.8 -7 -15.2 -7 -16.6 0 -1.4 -1.2 -4.8 -2.7 -7.5 l-2.8 -5 0 -26 c0 -25.4 0 -26.1 2.3 -30 1.3 -2.1 2.8 -6.3 3.2 -9.1 1.2 -7.1 8.1 -19.4 14.6 -26 2.9 -2.9 6.5 -7.7 8 -10.6 3.5 -7.1 18.7 -22.5 23.4 -23.8 1.9 -0.5 5.8 -3 8.5 -5.5 3.8 -3.4 6.3 -4.7 10.4 -5.6 2.9 -0.6 7.4 -2.2 9.9 -3.5 2.5 -1.3 5.7 -2.4 7.1 -2.4 1.4 0 5.1 -1.3 8.1 -2.8 l5.5 -2.7 26 0 c24.8 0 26.2 0.1 30 2.2 2.3 1.2 5.9 2.4 8 2.8 5.8 1 19.9 8.1 24.9 12.4 2.4 2.1 5.8 4.3 7.7 5.1 1.9 0.7 9.5 7.3 17.7 15.4 l14.3 14.1 9.7 19.5 9.7 19.5 0 31 0 31 -2.7 5.5 c-1.5 3 -2.8 6.7 -2.8 8.1 0 1.5 -3 8.7 -6.6 16 -6.6 13.2 -6.9 13.6 -20.3 27.2 -8.8 9 -15.3 14.7 -18.6 16.4 -2.7 1.4 -7.2 4.5 -9.8 6.9 -3.7 3.3 -5.9 4.5 -9.5 5 -2.6 0.3 -7 1.7 -9.8 3 -2.8 1.3 -6.1 2.4 -7.4 2.4 -1.3 0 -4.8 1.2 -7.9 2.8 -5.5 2.7 -5.9 2.7 -27.6 3 l-22 0.2 -7.3 -3z m60.2 -11.1 c21.1 -7.1 19.2 -6.2 32.6 -15.1 7.3 -4.9 13.8 -10.4 21.5 -18.3 9.6 -9.8 11.8 -12.7 16.4 -21.6 2.9 -5.7 7.3 -16.2 9.7 -23.4 l4.4 -13 0 -22 c0 -25.3 -0.1 -25.8 -8.4 -42 -3.1 -6 -5.6 -11.3 -5.6 -11.7 0 -2.4 -8.5 -13.3 -17.3 -22.3 -7.7 -7.7 -13.8 -12.6 -24.6 -19.9 -13 -8.6 -15.8 -10 -28 -14.1 l-13.6 -4.5 -16.5 0 -16.6 0 -19.2 6.4 c-17.6 5.9 -20.1 7.1 -30.4 13.9 -12.3 8.2 -20.3 15.9 -26.2 25.2 -2.1 3.3 -5.5 7.8 -7.6 10 -6.5 6.8 -10.5 14.5 -15.4 29 l-4.6 14 0 16 0 16 4.4 13.1 c2.4 7.2 6.8 17.8 9.7 23.5 5.1 10 6 11.1 23.8 28.9 17.8 17.8 19 18.8 29.1 24 5.8 2.9 16.1 7.3 23 9.6 12.3 4.2 12.7 4.3 26.9 4.3 l14.4 0.1 18.1 -6.1z"/>
 </g>
 <g fill="#feffff">
  <path d="M635.1 1310.4 c-4.2 -2.3 -5.4 -2.4 -20.3 -2.4 -14.6 0 -16.3 -0.2 -21.7 -2.5 -4.1 -1.7 -9 -2.7 -16.4 -3.3 -7 -0.6 -11.4 -1.5 -13.2 -2.6 -1.4 -0.9 -6.1 -2.1 -10.4 -2.6 -5 -0.6 -9.1 -1.7 -11.7 -3.2 -3.2 -1.9 -5.4 -2.3 -12.4 -2.4 -6.4 -0.1 -9.6 -0.6 -12.5 -2.1 -2.2 -1.1 -5.8 -2.4 -8 -2.7 -2.2 -0.4 -6 -1.7 -8.5 -2.8 -2.5 -1.1 -8 -2.4 -12.2 -2.8 -4.2 -0.5 -8.8 -1.6 -10.2 -2.5 -1.3 -0.9 -5.3 -2.3 -8.8 -3.1 -3.5 -0.8 -7.2 -2.1 -8.3 -2.8 -1.1 -0.7 -4.4 -1.8 -7.3 -2.5 -2.9 -0.6 -6.9 -1.9 -9 -3 -2 -1 -6.1 -2.4 -9 -3 -2.9 -0.6 -6.3 -1.7 -7.5 -2.5 -1.2 -0.8 -4.6 -1.9 -7.5 -2.5 -2.9 -0.6 -9.7 -3.4 -15.1 -6.1 -5.4 -2.8 -11 -5 -12.5 -5 -1.5 0 -7.7 -2.4 -13.9 -5.4 -6.2 -3 -13 -5.7 -15.2 -6.1 -2.2 -0.3 -18.4 -7.8 -35.9 -16.5 -17.6 -8.8 -33 -16 -34.3 -16 -3.9 0 -17.3 -6.8 -22.7 -11.6 -2.8 -2.4 -5.5 -4.4 -5.9 -4.4 -2.4 0 -60.5 -29.8 -63.6 -32.6 -2 -1.7 -8.2 -5.5 -13.9 -8.3 -5.6 -2.8 -11.9 -6.6 -14 -8.5 -2 -1.8 -8.4 -5.7 -14.2 -8.6 -5.8 -2.9 -12.1 -6.7 -14.1 -8.5 -2 -1.8 -8 -5.4 -13.3 -7.9 -5.4 -2.6 -11.4 -6.2 -13.4 -8 -2 -1.8 -5.9 -4.3 -8.7 -5.6 -2.7 -1.3 -6.2 -3.6 -7.6 -5.1 -1.5 -1.5 -5.1 -4 -8.1 -5.5 -2.9 -1.4 -6.9 -4.1 -8.9 -5.8 -2 -1.7 -6.9 -4.9 -10.8 -7.1 l-7.1 -4 -0.1 -13.5 c0 -7.4 0 -31.2 0 -52.9 0 -34.8 0.2 -39.5 1.6 -40.5 0.9 -0.7 1.6 -1.6 1.5 -2.1 -0.6 -3 0.8 -2 8.2 5.8 5.6 5.8 9.8 9.3 12.9 10.6 3 1.2 8.6 5.8 16.6 13.6 7.9 7.6 13.8 12.5 17 14 2.8 1.2 6.5 3.8 8.4 5.7 1.9 1.8 4.9 4 6.8 4.8 1.9 0.7 5.3 3 7.6 5 2.2 1.9 11.3 7.1 20.1 11.4 8.7 4.4 17.5 9.3 19.5 11.1 2 1.8 10.7 6.7 19.5 11.1 8.7 4.3 17.7 9.4 19.9 11.4 2.2 2 11 7.1 19.5 11.3 8.5 4.2 16.2 8.1 17 8.6 5.2 3.1 14.4 7.1 17.6 7.6 5.9 1 9.2 2.5 10.8 5 1.8 2.8 9.2 6.5 13 6.5 1.6 0 9.4 3.4 17.5 7.5 8 4.1 16.8 7.9 19.4 8.5 2.6 0.6 9.5 3.3 15.1 6 5.7 2.8 11.5 5 12.8 5 1.4 0 4.6 1.1 7.2 2.5 2.6 1.4 6.6 2.8 8.9 3.1 2.3 0.4 8.7 2.8 14.3 5.5 5.5 2.6 11.8 5.1 14 5.5 2.1 0.4 5.9 1.7 8.4 2.9 2.6 1.3 7.4 2.6 11.4 2.9 3.7 0.4 8.5 1.5 10.5 2.6 2 1 5.5 2.2 7.6 2.6 2.2 0.4 6.2 1.7 9 3 2.7 1.2 7.9 2.5 11.5 2.9 3.6 0.4 8.1 1.5 10 2.5 1.9 1 5.8 2.2 8.7 2.8 2.8 0.6 6.9 2.1 9 3.2 2.9 1.5 6.5 2.1 13.1 2.5 6.8 0.3 10.2 1 13.4 2.6 3 1.6 7.1 2.4 13.8 3 5.2 0.4 12 1.6 15 2.7 4.1 1.5 8.8 2.1 19 2.4 11.9 0.4 14 0.7 18 2.9 l4.5 2.4 83 0 83 0 6.2 -2.7 c5.5 -2.5 7.5 -2.8 16.4 -2.8 8.5 0 11 -0.4 15.8 -2.4 3.9 -1.8 8.1 -2.6 14.1 -2.9 6.1 -0.4 10.2 -1.2 14.5 -3.1 3.7 -1.6 7.9 -2.6 11 -2.6 3.1 0 6.6 -0.8 9 -2 2.2 -1.2 6.3 -2.6 9 -3.2 2.8 -0.6 6.6 -1.9 8.7 -2.9 2 -1 5.7 -2.3 8.3 -2.9 2.6 -0.6 6.7 -2 9.1 -3 2.3 -1.1 5.3 -2 6.6 -2 2 0 12.4 -4.5 19.8 -8.7 6.1 -3.3 15.4 -7.3 18.8 -7.9 5.3 -0.9 41 -19 45.5 -23.1 2.1 -1.9 5.7 -4.3 8 -5.2 2.3 -1 6.2 -3.6 8.7 -5.8 2.5 -2.2 6.1 -4.5 8.1 -5.2 2 -0.6 5.4 -2.9 7.5 -5.1 2.1 -2.2 6.1 -4.9 8.7 -6 2.7 -1.2 6.8 -3.8 9 -5.9 2.3 -2.1 5.8 -4.4 7.7 -5.1 2 -0.8 8.7 -6.4 15.5 -13.1 8 -7.9 13.6 -12.5 16.7 -13.9 6.8 -3 65.2 -61.4 68 -68 1 -2.5 4.8 -7.4 8.3 -11 3.4 -3.6 7.1 -8.4 8.1 -10.7 1.2 -2.8 7 -9.4 16.2 -18.7 10 -10.2 14.8 -15.8 16.2 -19.1 1.1 -2.6 4.9 -7.7 8.4 -11.4 3.5 -3.6 7.4 -8.6 8.6 -11.1 1.3 -2.5 3.7 -6.1 5.5 -8.1 3 -3.4 7 -10.7 10.8 -20 0.8 -2 3.1 -5.3 5.1 -7.3 2 -2 4.5 -5.6 5.6 -8.1 1 -2.4 3.6 -6.4 5.8 -8.7 2.5 -2.8 9 -14.6 18.8 -34.3 13.9 -28 14.9 -30.4 14.8 -35.5 0 -3.6 -0.8 -6.9 -2.1 -9.5 -3.3 -6.1 -65.8 -68 -70.8 -70.1 -2.3 -0.9 -7.9 -5.5 -13.1 -10.6 -6.1 -6 -11.1 -9.9 -15 -11.7 -3.3 -1.6 -7.4 -4.5 -9.3 -6.4 -1.9 -2 -4.6 -3.9 -6.1 -4.2 -1.5 -0.3 -5.2 -2.7 -8.1 -5.2 -3 -2.5 -7.3 -5.4 -9.6 -6.4 -2.3 -1 -5.9 -3.3 -8 -5.3 -2.2 -1.9 -6 -4.4 -8.6 -5.5 -2.6 -1.1 -5.9 -3.3 -7.4 -5 -1.5 -1.6 -6.6 -4.9 -11.3 -7.1 -20.6 -10.2 -23.4 -11.7 -28.1 -15.8 -2.8 -2.3 -6.3 -4.5 -7.7 -4.8 -8 -1.8 -10.2 -2.7 -15 -6.3 -4.7 -3.6 -10.4 -6.1 -13.9 -6.1 -0.6 0 -5.5 -2.2 -10.8 -5 -5.3 -2.7 -10.8 -5 -12.3 -5 -1.5 0 -5.1 -1.1 -8 -2.5 -3.6 -1.7 -7.1 -2.5 -10.7 -2.5 -5.1 0 -5.7 0.3 -10.4 4.9 -5.5 5.4 -6.6 8.7 -5.9 17.4 0.3 3.3 1.4 6.7 3.1 9.4 1.4 2.3 2.9 5.2 3.2 6.6 0.4 1.4 2.2 4 4.2 5.8 3.9 3.8 15.6 27 16.7 33.2 0.4 2.1 4.1 10.5 8.2 18.6 4 8.2 7.8 17.1 8.4 19.9 0.5 2.9 1.8 6.9 2.8 8.9 1.1 2.1 2.2 6.9 2.6 10.7 0.4 3.7 1.5 8.5 2.5 10.5 1.3 2.6 2 6.8 2.4 15.1 0.4 9.5 1 12.5 3.1 17.2 2.5 5.5 2.6 6.1 2.6 27.4 0 21.2 -0.1 21.8 -2.5 27.1 -2.1 4.3 -2.6 7.2 -2.9 14.7 -0.2 7.3 -0.7 10.1 -2.3 12.7 -1.2 1.9 -2.4 5.4 -2.8 7.9 -0.4 2.5 -1.7 6.5 -3 9 -1.2 2.5 -2.5 6.1 -2.8 8.1 -0.5 3.7 -3.3 10.8 -6.4 16.4 -0.9 1.7 -4 7.7 -7 13.5 -2.9 5.8 -6.4 11.6 -7.7 13 -1.3 1.4 -3.8 5.3 -5.5 8.6 -4.4 8.4 -51.7 55.4 -58.7 58.5 -2.6 1 -6.7 3.8 -9.2 6 -2.6 2.2 -6.3 4.7 -8.2 5.5 -1.9 0.8 -5.5 3.2 -8 5.2 -5.4 4.5 -35.5 19.6 -42.5 21.3 -2.7 0.7 -11.3 4.3 -19 8.1 -11.5 5.7 -15.3 7.2 -21.4 7.9 -4 0.6 -9 1.8 -11 2.8 -2 1 -6 2.4 -8.9 3 -2.9 0.6 -6.9 1.9 -9 3 -2 1 -6.6 2.1 -10.2 2.4 -4 0.3 -8.6 1.5 -12 3.1 -4.5 2.1 -7 2.6 -13.5 2.6 -6.1 0 -9 0.6 -12.5 2.2 -3.8 1.9 -6.9 2.3 -19.5 2.8 -12.8 0.5 -15.6 0.9 -19.2 2.8 -4.2 2.2 -4.5 2.2 -57.3 2.2 -52.6 0 -53.1 0 -57.7 -2.2 -5.1 -2.4 -10.4 -2.6 -15.8 -0.7 -2.8 1 -4.2 1 -8.5 -0.4 -2.9 -0.9 -5.8 -1.7 -6.6 -1.7 -0.7 0 -3.8 -1.1 -6.9 -2.5 -4.3 -1.9 -7.7 -2.5 -14.9 -2.8 -7.6 -0.3 -10.1 -0.8 -13.2 -2.7 -3.1 -1.8 -6.1 -2.4 -13.9 -3 -7.2 -0.5 -11.1 -1.2 -14.1 -2.8 -2.4 -1.2 -7.1 -2.4 -11 -2.8 -5.5 -0.5 -8.8 -1.6 -16 -5.4 -5.1 -2.6 -11.3 -5.1 -13.8 -5.4 -2.6 -0.4 -7 -1.8 -9.9 -3.2 -2.9 -1.3 -6 -2.4 -7 -2.4 -1 0 -4.4 -1.1 -7.7 -2.5 -3.3 -1.4 -6.9 -2.5 -8.2 -2.5 -1.2 0 -15.7 -6.7 -32.3 -15 -21.2 -10.5 -31 -15.9 -33.5 -18.5 -1.8 -1.9 -3.8 -3.5 -4.4 -3.5 -2.1 0 -29.3 -14.4 -32.1 -17 -1.6 -1.5 -5.7 -4.2 -9 -5.8 -3.9 -2 -8.8 -5.9 -14 -11.2 -4.8 -4.9 -10.2 -9.3 -13.5 -11 -3.4 -1.7 -9.8 -7 -17 -14 -6.3 -6.1 -13.5 -12.2 -16 -13.5 -5.3 -2.7 -7.3 -4.7 -9.3 -9.7 -1 -2.4 -8.8 -11.1 -21.4 -23.8 -12.9 -13.1 -20.6 -21.7 -22.1 -24.8 -1.3 -2.6 -5 -7.4 -8.2 -10.7 -3.2 -3.3 -7 -8.3 -8.4 -11.2 -1.4 -2.8 -4.3 -7.1 -6.4 -9.5 -2.1 -2.5 -4.4 -6 -5.2 -7.9 -0.7 -1.9 -3 -5.2 -5 -7.5 -3.7 -4.1 -11.3 -18.6 -14.6 -28 l-1.8 -5.1 2.8 -5.7 c2.2 -4.4 2.9 -7.8 3.6 -15.9 0.5 -7.3 1.4 -11.3 2.9 -14.2 1.1 -2.1 2.1 -5 2.1 -6.2 0 -1.3 1.1 -4.5 2.4 -7.1 1.3 -2.6 2.6 -6.7 3 -9.1 0.4 -2.5 2.9 -9 5.7 -14.5 2.7 -5.6 5.2 -11.9 5.6 -14.1 0.3 -2.2 1.4 -5.6 2.4 -7.7 1 -2 2.3 -5.8 2.9 -8.5 0.9 -4.1 12.6 -28.9 19 -40.3 1 -1.9 5 -9.8 8.7 -17.5 3.7 -7.7 8.4 -15.8 10.4 -18 2 -2.2 5.5 -8.3 7.9 -13.5 2.4 -5.3 5.9 -11.3 8 -13.5 2.1 -2.2 4.7 -6.2 5.9 -8.9 1.1 -2.6 3.5 -6.2 5.2 -8 1.7 -1.7 4 -5 5.1 -7.3 1 -2.4 3.7 -6.4 6 -9 2.2 -2.6 4.8 -6.5 5.8 -8.8 0.9 -2.2 5.9 -8.3 10.9 -13.5 5.7 -5.8 10.1 -11.4 11.6 -14.5 1.6 -3.4 5.9 -8.6 13.9 -16.5 8.7 -8.6 11.9 -12.4 12.7 -15.2 1.4 -5.5 17.5 -21.6 25.4 -25.6 4.6 -2.3 9.7 -6.7 22 -19.2 10.8 -10.9 17.6 -17 21 -18.7 2.8 -1.4 9.1 -6.5 14.1 -11.3 5.5 -5.3 11.5 -10 15 -11.8 3.3 -1.7 8.2 -5.4 10.9 -8.2 2.8 -2.9 7.6 -6.5 10.9 -8.1 3.2 -1.6 7.3 -4.4 9.2 -6.3 1.8 -1.9 5 -4 7.1 -4.6 2.1 -0.7 5.6 -2.9 7.8 -5 2.5 -2.4 11.7 -7.5 25 -14.1 11.5 -5.7 22.6 -11.8 24.6 -13.7 4.8 -4.2 25.8 -14.6 32.5 -16.1 4.4 -0.9 10.1 -3.5 23.9 -10.8 6.9 -3.6 8.7 -4.3 13.1 -5.3 2.7 -0.6 9 -3.1 14.1 -5.5 5.1 -2.5 11.6 -5 14.5 -5.6 2.9 -0.6 7.4 -2.2 10 -3.5 2.6 -1.3 5.8 -2.4 7 -2.4 1.3 0 4.3 -1 6.8 -2.2 3.6 -1.8 7 -2.3 17 -2.8 l12.5 -0.5 10.4 -5.3 c8.4 -4.2 11.3 -5.2 15.5 -5.2 3.2 0 6.9 -0.9 10.1 -2.3 3.7 -1.8 7.6 -2.5 14.8 -3 7.6 -0.4 10.8 -1.1 14 -2.8 3.5 -2 6.3 -2.4 16.7 -2.9 10.3 -0.5 13.3 -1 16.8 -2.9 4.2 -2.1 5.4 -2.2 36.5 -2.5 33.3 -0.4 35.2 -0.5 41.4 -3.7 3.4 -1.7 6.2 -1.9 31.1 -1.9 l27.3 0 5.6 2.7 c5.6 2.6 5.9 2.6 30.7 2.8 24.4 0.3 25.2 0.4 29.1 2.6 3.6 2.2 5.5 2.4 19.5 2.9 13.7 0.4 16 0.8 19.9 2.8 3.2 1.8 6.6 2.5 13.5 2.9 6.1 0.4 10.4 1.2 13 2.5 2.6 1.3 7.2 2.2 14 2.7 7.1 0.6 11.3 1.4 14.1 2.9 2.2 1.1 7.1 2.4 10.9 2.8 3.9 0.4 9.3 1.7 12 3 3.3 1.5 7 2.4 10.3 2.4 3.3 0 6.9 0.9 10.5 2.5 2.9 1.4 6.2 2.5 7.3 2.5 1.1 0 4.3 1.1 7.1 2.4 2.8 1.3 7.4 2.9 10.3 3.5 2.9 0.6 6.6 1.8 8.4 2.7 1.7 0.9 5.9 2.3 9.2 3.1 3.3 0.8 6.9 2 8 2.7 1.1 0.7 4.4 1.8 7.3 2.5 3 0.6 9.3 3.1 14.2 5.5 4.9 2.5 10.6 4.8 12.7 5.2 2.1 0.4 5.6 1.6 7.8 2.7 2.2 1.1 6.6 2.6 9.8 3.3 7.6 1.8 113.8 54.6 118.7 59 2 1.8 8.3 5.7 14 8.6 5.8 3 12.3 7 14.5 9 2.1 2 5 4 6.3 4.3 1.3 0.3 4.1 1.7 6.2 3 2.1 1.3 5 2.7 6.4 3.1 1.4 0.3 4.5 2.3 6.8 4.4 2.4 2 6.6 4.9 9.4 6.3 2.8 1.4 6.7 4.2 8.7 6.2 1.9 1.9 5.1 4.1 7.1 4.8 1.9 0.6 6.7 4.1 10.6 7.6 3.9 3.5 9.2 7.4 11.8 8.7 2.6 1.2 7.5 5 10.9 8.2 3.4 3.3 8.5 7.2 11.5 8.7 3.2 1.6 8.9 6.2 14.3 11.5 5 4.9 10.2 9.2 11.7 9.5 1.5 0.4 6.5 4.1 11.1 8.3 5.5 5 10.2 8.4 13.5 9.6 3.8 1.5 5.2 2.6 5.7 4.5 1.2 4.3 0.9 96.7 -0.3 93.3 -0.2 -0.6 -1.2 -1.2 -2.3 -1.2 -1 0 -1.9 -0.4 -1.9 -0.9 0 -0.4 -2.2 -1.7 -4.9 -2.9 -2.7 -1.1 -6.7 -3.6 -8.8 -5.6 -2.2 -2 -5.6 -4.3 -7.6 -5.1 -1.9 -0.8 -5.7 -3.3 -8.3 -5.6 -2.6 -2.3 -6.7 -5 -9 -6 -2.3 -0.9 -6 -3.4 -8.2 -5.3 -2.2 -2 -5.5 -4.3 -7.5 -5.1 -1.9 -0.8 -5.6 -3.3 -8.2 -5.5 -2.6 -2.3 -6.7 -5 -9 -6.1 -2.4 -1.1 -6 -3.5 -8.1 -5.3 -2.2 -1.8 -8.2 -5.5 -13.4 -8.1 -5.2 -2.6 -11.8 -6.8 -14.7 -9.2 -2.8 -2.3 -5.5 -4.3 -5.9 -4.3 -1.2 0 -19.4 -9.1 -19.9 -10 -0.3 -0.5 -1.8 -1.1 -3.3 -1.5 -1.5 -0.3 -5.2 -2.6 -8.2 -5 -2.9 -2.4 -11.5 -7.4 -18.9 -11 -7.5 -3.6 -14.3 -7 -15.1 -7.5 -0.8 -0.4 -15.7 -7.9 -33 -16.5 -17.3 -8.6 -32.4 -16.1 -33.4 -16.7 -11 -6 -29.9 -14.8 -33.1 -15.3 -2.2 -0.4 -8.9 -3.2 -15 -6.1 -6 -3 -12 -5.4 -13.3 -5.4 -1.2 0 -6.5 -2.1 -11.7 -4.6 -5.2 -2.5 -11.8 -5.2 -14.7 -5.9 -6.5 -1.7 -20.2 -6.3 -24.6 -8.2 -1.8 -0.8 -5.7 -2.1 -8.8 -2.9 -3 -0.7 -6.5 -2 -7.7 -2.8 -1.2 -0.8 -4.7 -1.9 -7.8 -2.5 -3.1 -0.5 -7.4 -1.9 -9.7 -3.1 -2.2 -1.2 -7.1 -2.5 -10.9 -2.9 -3.7 -0.5 -9.4 -1.8 -12.5 -3 -3.2 -1.1 -6.5 -2.1 -7.3 -2.1 -0.9 0 -3.9 -1.2 -6.8 -2.7 -4.1 -2 -7.3 -2.8 -15.2 -3.3 -6.9 -0.5 -11.2 -1.4 -14 -2.8 -2.2 -1.1 -6.8 -2.3 -10.2 -2.5 -3.7 -0.3 -7.9 -1.3 -10.5 -2.7 -3.2 -1.7 -6.6 -2.4 -13.3 -2.8 -6.4 -0.3 -10.2 -1.1 -13 -2.5 -3.4 -1.8 -6.4 -2.2 -20 -2.7 -14.8 -0.5 -16.3 -0.7 -20 -3 l-4 -2.5 -34.5 -0.5 c-32.1 -0.5 -34.7 -0.6 -38 -2.5 -2.9 -1.7 -5.3 -2 -14 -2 -8.8 0 -11 0.3 -13.5 2 -2.7 1.9 -5 2 -37.5 2.5 l-34.5 0.5 -5.5 2.8 c-4.9 2.4 -6.7 2.7 -15.5 2.7 -8.3 0 -11 0.5 -16 2.5 -4.5 1.9 -7.8 2.5 -13.1 2.5 -6.7 0 -9.7 0.8 -18.1 4.6 -1.7 0.8 -4.4 1.4 -6 1.4 -1.5 0 -4.6 1 -6.8 2.2 -2.3 1.2 -6.8 2.5 -10.5 2.8 -3.6 0.4 -9 1.8 -12 3.2 -3 1.4 -7.2 2.8 -9.3 3.2 -2.1 0.4 -7.8 2.7 -12.6 5.1 -4.9 2.4 -10.8 4.9 -13.3 5.4 -3.9 0.9 -15 5.5 -20.3 8.3 -1.1 0.6 -13.9 7.2 -28.5 14.6 -14.6 7.3 -27.8 14.7 -29.5 16.2 -1.6 1.6 -5.7 4.2 -9 5.8 -3.3 1.7 -7.1 4.2 -8.5 5.7 -1.4 1.5 -4.7 3.8 -7.5 5 -2.7 1.3 -6.4 3.7 -8.2 5.3 -1.7 1.7 -5.5 4.3 -8.3 5.7 -2.8 1.4 -8.9 6.4 -13.8 11.2 -5.2 5.2 -10.5 9.4 -13.2 10.6 -3.4 1.5 -12.6 10 -37.7 35 -27.5 27.4 -33.7 34.1 -36.2 39.1 -2 4 -5.9 8.9 -11.2 14.1 -4.9 4.8 -8.9 9.8 -10 12.4 -1.1 2.4 -4.8 7.3 -8.3 11 -3.6 3.6 -7.3 8.6 -8.4 11.1 -1.1 2.5 -3.8 6.4 -6 8.7 -3.2 3.4 -4.3 5.7 -5.6 11 -1.3 5.9 -2.1 7.3 -7.4 12.7 -3.3 3.4 -7.2 8.6 -8.7 11.6 -1.5 3 -4 6.9 -5.5 8.5 -3.5 3.7 -48.7 93.6 -49.6 98.5 -0.4 1.9 -1.8 6.2 -3.2 9.5 -2.3 5.4 -2.6 7.3 -2.6 18.5 0 7.8 0.5 14 1.4 16.4 1.7 5.2 23.8 27.2 28.2 28.1 1.6 0.4 4.9 2.5 7.4 4.6 2.5 2.2 6.9 5.1 9.6 6.5 2.8 1.4 6.7 4.1 8.6 6 2 1.9 5.6 4.4 8.1 5.5 2.5 1.1 6.2 3.5 8.1 5.3 1.9 1.8 5 3.9 6.9 4.6 1.9 0.8 5.9 3.5 8.9 6.2 3 2.6 5.9 4.8 6.4 4.8 2.5 0 28.9 13.9 32.5 17.1 2.3 2.1 5.8 4.5 7.8 5.3 1.9 0.8 5.7 3.3 8.3 5.5 2.6 2.1 11.7 7.3 20.2 11.5 8.5 4.1 19.1 9.4 23.5 11.7 12.8 6.6 13.8 7.1 17 8.6 1.7 0.8 4.4 2.1 6 3 12.7 6.8 29.6 14.6 32.6 15 4.9 0.7 10.2 -2.2 17.2 -9.5 5.6 -5.9 5.7 -6.2 5.7 -11.7 0 -6.4 -0.9 -8.6 -5.5 -13.5 -3.3 -3.4 -10.5 -18.2 -10.5 -21.4 0 -0.9 -1.1 -4.3 -2.5 -7.6 -1.4 -3.3 -2.5 -6.8 -2.5 -8 0 -1.1 -2.5 -7.1 -5.5 -13.5 -4.2 -8.7 -5.5 -12.5 -5.5 -16 0 -2.6 -1.1 -7.4 -2.4 -10.8 -1.9 -4.9 -2.5 -8.7 -2.9 -18.4 -0.4 -10.7 -0.8 -12.6 -3.1 -16.5 -2.5 -4.3 -2.6 -5 -2.6 -20.7 0 -15.9 0.1 -16.4 3 -23.1 2.5 -5.7 3 -8.1 3 -14.7 0 -4.8 0.5 -8.6 1.3 -9.8 1.9 -2.9 3.7 -9.6 3.7 -13.9 0 -2 1.1 -6.2 2.4 -9.4 1.3 -3.1 2.7 -7.5 3 -9.6 1 -5.1 23.8 -50.1 27.3 -53.8 1.6 -1.6 3.9 -5.1 5.3 -7.9 1.4 -2.7 6.4 -8.9 11.2 -13.7 5.6 -5.7 9.5 -10.6 10.7 -13.6 1.6 -3.5 6.5 -9.2 19.3 -22.1 17.8 -17.8 17.9 -17.9 28.1 -20 1.6 -0.3 4.7 -2.3 7 -4.4 2.3 -2.2 6.8 -5.1 10 -6.6 3.2 -1.5 6.6 -3.8 7.6 -5.2 1.1 -1.3 9.5 -6.1 18.8 -10.8 9.3 -4.6 17.8 -9.4 18.8 -10.6 3 -3.2 6.3 -4.6 13 -5.2 3.3 -0.4 8.7 -1.8 12 -3.2 3.3 -1.3 6.9 -2.5 8 -2.5 1.2 0 6.8 -2.3 12.5 -5.2 8.3 -4.1 11.9 -5.3 17.5 -5.8 3.8 -0.4 8.8 -1.6 11 -2.7 2.2 -1.1 7 -2.3 10.7 -2.6 4 -0.4 8.4 -1.5 11 -2.9 3.2 -1.7 6.6 -2.4 13.8 -2.8 6.8 -0.4 10.8 -1.2 14 -2.7 3.9 -1.9 6.6 -2.2 21.5 -2.6 16 -0.3 17.3 -0.5 22.6 -3 l5.6 -2.7 26.6 0 26.6 0 5.8 2.7 c5.7 2.6 6.4 2.7 28.3 3 21.3 0.4 22.8 0.5 28.1 2.8 4.4 2 7.4 2.5 13.5 2.5 6 0 8.8 0.5 11.7 2 2.1 1.1 6.1 2.5 9 3.1 2.8 0.6 6.6 1.9 8.3 2.9 1.7 1 5.4 2.3 8.1 2.8 2.7 0.6 6.9 1.9 9.3 3 2.5 1 6.5 2.2 8.8 2.6 2.4 0.3 6 1.5 8 2.5 2.1 1.1 5.7 2.4 8.2 3.1 2.5 0.7 8.6 3.2 13.7 5.6 5 2.4 11.1 4.8 13.6 5.3 2.5 0.4 6.2 1.8 8.2 3 2 1.1 5.1 2.1 6.9 2.1 2.1 0 10.7 3.7 24.9 10.9 12 6 23.5 11.1 25.5 11.5 5.3 0.8 16 6.3 20.7 10.6 3.7 3.3 7 4.6 15.6 6.4 1.4 0.3 4.5 2.2 6.8 4.3 2.4 2 8.8 5.9 14.4 8.5 5.6 2.7 11.8 6.4 13.7 8.3 1.9 1.9 5.2 4.1 7.3 5 2 0.8 5.4 3.1 7.5 4.9 2 1.8 6.1 4.5 9 6 2.9 1.5 6.9 4.2 9 6 2 1.9 5.5 4.1 7.6 5 2.1 0.9 8 5.6 13 10.5 5.5 5.3 11.3 9.9 14.6 11.5 7.9 4 44.2 40.5 47.5 47.9 1.3 3.1 4.4 7.2 7.7 10.3 8.5 8.1 13.6 14.3 14.3 17.4 0.4 1.6 2.6 5.2 5.1 7.9 2.4 2.7 5.1 6.6 5.9 8.5 0.9 2 3.1 5.3 4.9 7.4 1.8 2 4.5 6.1 6 9 1.5 2.9 3.8 6.3 5.2 7.5 2.3 1.9 15.4 26.6 15.4 28.9 0 3 -16.9 36 -20.1 39.4 -1.6 1.7 -8.1 13.3 -14.4 25.9 -6.3 12.5 -12.4 23.4 -13.6 24.2 -1.1 0.9 -4.5 6.4 -7.4 12.4 -3 6 -7.1 13 -9.3 15.6 -2.1 2.7 -4.5 6.4 -5.3 8.3 -0.7 1.9 -3 5.3 -5 7.5 -2 2.2 -4.7 6.1 -6 8.6 -1.3 2.6 -3.8 7.6 -5.6 11.1 -2.1 4.1 -5.4 8.5 -9.3 12.1 -3.3 3.1 -6 6.2 -6 6.9 0 3.5 -9.6 19.7 -14.9 25.3 -3.2 3.3 -6.9 8.3 -8.3 11.2 -1.5 2.8 -5.1 7.6 -8.2 10.7 -3 3.1 -6.4 7.7 -7.6 10.3 -1.4 3.3 -6.1 8.9 -14.9 17.8 -9 9.1 -13.1 13.9 -13.5 16.1 -0.5 2.1 -4.5 7 -12.7 15.5 -7.3 7.5 -12.9 14.2 -14.2 16.9 -1.4 3.2 -9.6 12.1 -27.6 30.3 -20.8 20.9 -26.6 26.2 -31.1 28.3 -4.2 2 -8.7 5.9 -19 16.5 -10.2 10.4 -14.8 14.3 -18.5 16 -3.3 1.4 -8.3 5.4 -15 11.9 -6.9 6.7 -11 10 -13.2 10.5 -1.8 0.3 -5.5 2.6 -8.2 5.1 -2.7 2.4 -6.7 5.1 -8.8 6 -2.1 0.9 -5.4 3.1 -7.3 4.9 -1.9 1.9 -8.4 5.9 -14.5 8.9 -6 3 -12.1 6.6 -13.5 8.1 -1.4 1.5 -7.1 5 -12.8 7.7 -5.7 2.8 -12 6.5 -14.2 8.3 -4.2 3.5 -7.6 5 -13.1 5.9 -2 0.4 -5.3 2.1 -7.5 4 -5.1 4.3 -9.6 6.6 -13.1 6.6 -1.6 0 -4.4 0.9 -6.3 2 -9.7 5.5 -15 7.9 -20.5 9 -3.4 0.7 -9.2 3.1 -13.6 5.6 -4.2 2.4 -9.9 4.8 -12.7 5.4 -2.9 0.5 -6.5 1.6 -8.1 2.4 -1.6 0.9 -5 2 -7.6 2.6 -2.6 0.6 -6.8 2 -9.3 3.1 -2.4 1.1 -6.1 2.3 -8.1 2.6 -2 0.3 -5.4 1.5 -7.6 2.6 -2.8 1.5 -7 2.3 -14 2.7 -7.4 0.5 -11.1 1.3 -14.4 2.9 -3.4 1.8 -6.6 2.4 -13.3 2.7 -6.9 0.2 -10.2 0.9 -14.5 2.9 -4.8 2.2 -6.9 2.5 -16 2.5 -9.1 0 -11 0.3 -15.3 2.5 l-4.9 2.5 -73.3 -0.1 -73.3 0 -4.4 -2.5z m156 -409.6 c3.1 -1.6 6.6 -2.8 7.9 -2.8 1.3 0 4.6 -1.1 7.5 -2.4 4.7 -2.3 8.4 -3.3 12.6 -3.5 0.9 -0.1 3.9 -2.1 6.5 -4.5 2.7 -2.4 7.2 -5.5 9.9 -6.9 3.3 -1.7 9.8 -7.4 18.6 -16.4 13.4 -13.6 13.7 -14 20.3 -27.2 3.6 -7.3 6.6 -14.5 6.6 -16 0 -1.4 1.3 -5.1 2.8 -8.1 l2.7 -5.5 0 -28 0 -28 -9.7 -19.5 -9.7 -19.5 -14.3 -14.1 c-8.2 -8.1 -15.8 -14.7 -17.7 -15.4 -1.9 -0.8 -5.3 -3 -7.7 -5.1 -5 -4.3 -19.1 -11.4 -24.9 -12.4 -2.1 -0.4 -5.7 -1.6 -8 -2.8 -3.8 -2.1 -5.3 -2.2 -27 -2.2 l-23 0 -5.5 2.7 c-3 1.5 -6.7 2.8 -8.1 2.8 -1.4 0 -4.6 1.1 -7.1 2.4 -2.5 1.3 -7 2.9 -9.9 3.5 -4.1 0.9 -6.6 2.2 -10.4 5.6 -2.7 2.5 -6.6 5 -8.5 5.5 -4.7 1.3 -19.9 16.7 -23.4 23.8 -1.5 2.9 -5.1 7.7 -8 10.6 -6.5 6.6 -13.4 18.9 -14.6 26 -0.4 2.8 -1.9 7 -3.2 9.1 -2.2 3.9 -2.3 4.7 -2.3 27 l0 23 2.8 5 c1.5 2.7 2.7 6.1 2.7 7.5 0 1.4 3.2 8.8 7 16.6 l7 14.1 20.1 20.2 c11 11 20.4 20.1 21 20.1 0.5 0 6.4 2.7 13.1 6 6.6 3.3 12.8 6 13.8 6 1 0 5.2 1.4 9.2 3 l7.3 3 19 -0.2 c18.4 -0.3 19.2 -0.4 24.6 -3z"/>
 </g>
</svg>
